<?xml version="1.0" encoding="UTF-8" standalone="no"?>
<!-- Created with Inkscape (http://www.inkscape.org/) -->

<svg
   xmlns:dc="http://purl.org/dc/elements/1.1/"
   xmlns:cc="http://creativecommons.org/ns#"
   xmlns:rdf="http://www.w3.org/1999/02/22-rdf-syntax-ns#"
   xmlns:svg="http://www.w3.org/2000/svg"
   xmlns="http://www.w3.org/2000/svg"
   xmlns:xlink="http://www.w3.org/1999/xlink"
   xmlns:sodipodi="http://sodipodi.sourceforge.net/DTD/sodipodi-0.dtd"
   xmlns:inkscape="http://www.inkscape.org/namespaces/inkscape"
   width="48"
   height="48"
   id="svg5453"
   version="1.1"
   inkscape:version="0.49 r12742"
   sodipodi:docname="start-here-kde.svg">
  <defs
     id="defs5455">
    <linearGradient
       gradientTransform="translate(384.57142,-504.56416)"
       inkscape:collect="always"
       xlink:href="#linearGradient4678"
       id="linearGradient6081"
       x1="37.957897"
       y1="1049.3441"
       x2="37.957897"
       y2="1007.4396"
       gradientUnits="userSpaceOnUse" />
    <linearGradient
       inkscape:collect="always"
       id="linearGradient4678">
      <stop
         style="stop-color:#0a7fe7;stop-opacity:1"
         offset="0"
         id="stop4680" />
      <stop
         style="stop-color:#50bffc;stop-opacity:1"
         offset="1"
         id="stop4682" />
    </linearGradient>
  </defs>
  <sodipodi:namedview
     id="base"
     pagecolor="#ffffff"
     bordercolor="#666666"
     borderopacity="1.0"
     inkscape:pageopacity="0"
     inkscape:pageshadow="2"
     inkscape:zoom="5.7010484"
     inkscape:cx="15.28902"
     inkscape:cy="32.167188"
     inkscape:document-units="px"
     inkscape:current-layer="layer1"
     showgrid="false"
     fit-margin-top="0"
     fit-margin-left="0"
     fit-margin-right="0"
     fit-margin-bottom="0"
     inkscape:window-width="1366"
     inkscape:window-height="718"
     inkscape:window-x="0"
     inkscape:window-y="23"
     inkscape:window-maximized="1" />
  <metadata
     id="metadata5458">
    <rdf:RDF>
      <cc:Work
         rdf:about="">
        <dc:format>image/svg+xml</dc:format>
        <dc:type
           rdf:resource="http://purl.org/dc/dcmitype/StillImage" />
        <dc:title></dc:title>
      </cc:Work>
    </rdf:RDF>
  </metadata>
  <g
     inkscape:label="Capa 1"
     inkscape:groupmode="layer"
     id="layer1"
     transform="translate(-384.57143,-499.798)">
    <rect
       style="fill:#000000;fill-opacity:0.01960784;stroke:none"
       id="rect5263"
       width="44.399963"
       height="44.399963"
       x="386.37146"
       y="501.59802"
       ry="6.2786646" />
    <rect
       ry="6.1938181"
       y="501.89813"
       x="386.67145"
       height="43.799973"
       width="43.799973"
       id="rect5261"
       style="fill:#000000;fill-opacity:0.03921569;stroke:none" />
    <rect
       style="fill:#000000;fill-opacity:0.07843137;stroke:none"
       id="rect5259"
       width="43.199982"
       height="43.199982"
       x="386.97144"
       y="502.19818"
       ry="6.1089716" />
    <rect
       ry="6.0241251"
       y="502.49817"
       x="387.27145"
       height="42.599991"
       width="42.599991"
       id="rect5257"
       style="fill:#000000;fill-opacity:0.15686275;stroke:none" />
    <rect
       style="fill:url(#linearGradient6081);fill-opacity:1.0;stroke:none"
       id="rect5237"
       width="42"
       height="42"
       x="387.57144"
       y="502.79803"
       ry="5.9392786" />
    <path
       inkscape:connector-curvature="0"
       style="fill:#000000;fill-opacity:0.11764706;stroke:none"
       d="m 387.57142,536.36054 0,2.5 c 0,3.2904 2.64714,5.9375 5.9375,5.9375 l 30.125,0 c 3.29036,0 5.9375,-2.6471 5.9375,-5.9375 l 0,-2.5 c 0,3.2904 -2.64714,5.9375 -5.9375,5.9375 l -30.125,0 c -3.29036,0 -5.9375,-2.6471 -5.9375,-5.9375 z"
       id="rect5265" />
    <path
       inkscape:connector-curvature="0"
       style="fill:#000000;fill-opacity:0.09803922;stroke:none"
       d="m 387.57142,538.36054 0,0.5 c 0,3.2904 2.64714,5.9375 5.9375,5.9375 l 30.125,0 c 3.29036,0 5.9375,-2.6471 5.9375,-5.9375 l 0,-0.5 c 0,3.2904 -2.64714,5.9375 -5.9375,5.9375 l -30.125,0 c -3.29036,0 -5.9375,-2.6471 -5.9375,-5.9375 z"
       id="path5252" />
    <path
       inkscape:connector-curvature="0"
       id="path5692_2_-3"
       d="m 410.6269,510.79796 -4.34993,0.43023 0,17.77716 4.30212,-0.62126 0,-7.5983 5.7362,8.41086 4.49335,-1.43383 -5.87961,-8.07614 5.92739,-7.64619 -4.58893,-1.0515 -5.6884,7.64619 0.0479,-7.83722 z m -9.79929,4.34857 c -0.0487,0 -0.10677,0.0274 -0.14345,0.0493 l -1.67304,1.72038 c -0.0712,0.0739 -0.1002,0.19979 -0.0479,0.28682 l 1.95985,3.24973 c -0.35183,0.59143 -0.61111,1.23897 -0.81263,1.91113 l -3.63291,0.76495 c -0.10129,0.0274 -0.19108,0.0876 -0.19108,0.19158 l 0,2.38954 c 0,0.10126 0.0936,0.21347 0.19108,0.2381 l 3.53731,0.86019 c 0.18834,0.77918 0.47439,1.51977 0.86041,2.19796 l -2.05545,3.10686 c -0.0569,0.0876 -0.0274,0.21348 0.0479,0.28682 l 1.67307,1.67222 c 0.0712,0.0684 0.19984,0.104 0.28679,0.0493 l 3.20272,-1.95903 c 0.62973,0.36318 1.28986,0.66614 2.00766,0.85991 l 0.76482,3.58417 c 0.0219,0.104 0.0879,0.19158 0.19108,0.19158 l 2.39006,0 c 0.10074,0 0.2149,-0.093 0.23899,-0.19158 l 0.86042,-3.58417 c 0.73992,-0.19979 1.4582,-0.52793 2.10328,-0.90781 l 3.15489,2.10272 c 0.0868,0.0547 0.21299,0.0274 0.28682,-0.0493 l 1.67304,-1.67275 c 0.0717,-0.0739 0.10047,-0.19979 0.0479,-0.28655 l -1.14724,-1.91114 -0.38241,0.14232 c -0.0545,0.0274 -0.11142,0 -0.14344,-0.0493 0,0 -0.72301,-1.09502 -1.67305,-2.48533 -1.13574,2.22231 -3.45026,3.72785 -6.11858,3.72785 -3.79103,0 -6.88342,-3.04364 -6.88342,-6.83389 0,-2.78802 1.67507,-5.18605 4.06313,-6.26026 l 0,-1.76827 c -0.43464,0.15326 -0.84377,0.30817 -1.24286,0.52602 -3e-4,0 -0.0468,0 -0.0479,0 l -3.20269,-2.10299 c -0.0435,-0.0274 -0.0947,-0.052 -0.14345,-0.0465 z"
       style="fill:#000000;fill-opacity:0.49803922;stroke:none" />
  </g>
</svg>
