<?xml version="1.0" encoding="UTF-8" standalone="no"?>
<!-- Created with Inkscape (http://www.inkscape.org/) -->

<svg
   xmlns:dc="http://purl.org/dc/elements/1.1/"
   xmlns:cc="http://creativecommons.org/ns#"
   xmlns:rdf="http://www.w3.org/1999/02/22-rdf-syntax-ns#"
   xmlns:svg="http://www.w3.org/2000/svg"
   xmlns="http://www.w3.org/2000/svg"
   xmlns:xlink="http://www.w3.org/1999/xlink"
   xmlns:sodipodi="http://sodipodi.sourceforge.net/DTD/sodipodi-0.dtd"
   xmlns:inkscape="http://www.inkscape.org/namespaces/inkscape"
   width="48"
   height="48"
   id="svg4230"
   version="1.1"
   inkscape:version="0.48.5 r10040"
   sodipodi:docname="folder-papers.svg">
  <defs
     id="defs4232">
    <linearGradient
       inkscape:collect="always"
       id="linearGradient4019">
      <stop
         style="stop-color:#4292cc;stop-opacity:1"
         offset="0"
         id="stop4021" />
      <stop
         style="stop-color:#a7d7f3;stop-opacity:1"
         offset="1"
         id="stop4023" />
    </linearGradient>
    <linearGradient
       inkscape:collect="always"
       id="linearGradient3419">
      <stop
         style="stop-color:#d3d3d4;stop-opacity:1"
         offset="0"
         id="stop3421" />
      <stop
         style="stop-color:#f4f4f4;stop-opacity:1"
         offset="1"
         id="stop3423" />
    </linearGradient>
    <linearGradient
       inkscape:collect="always"
       xlink:href="#linearGradient3419"
       id="linearGradient4053"
       gradientUnits="userSpaceOnUse"
       gradientTransform="matrix(0.8095238,0,0,0.8095238,-1101.9534,-808.48368)"
       x1="2.9250314"
       y1="1029.4803"
       x2="44.956501"
       y2="1029.4803" />
    <linearGradient
       inkscape:collect="always"
       xlink:href="#linearGradient3419"
       id="linearGradient4055"
       gradientUnits="userSpaceOnUse"
       gradientTransform="matrix(0.69047615,0,0,0.69047615,-1099.0959,-686.05959)"
       x1="2.9250314"
       y1="1029.4803"
       x2="44.956501"
       y2="1029.4803" />
    <linearGradient
       inkscape:collect="always"
       xlink:href="#linearGradient4019"
       id="linearGradient4057"
       gradientUnits="userSpaceOnUse"
       gradientTransform="matrix(0,-1,1,0,-1004.3621,1106.5249)"
       x1="2.9281611"
       y1="1031.2874"
       x2="41.929218"
       y2="1031.2874" />
    <linearGradient
       inkscape:collect="always"
       id="linearGradient4019-4">
      <stop
         style="stop-color:#4292cc;stop-opacity:1"
         offset="0"
         id="stop4021-9" />
      <stop
         style="stop-color:#a7d7f3;stop-opacity:1"
         offset="1"
         id="stop4023-2" />
    </linearGradient>
    <linearGradient
       inkscape:collect="always"
       xlink:href="#linearGradient4019-4"
       id="linearGradient4057-0"
       gradientUnits="userSpaceOnUse"
       gradientTransform="matrix(0,-1,1,0,-1004.3621,1106.5249)"
       x1="2.9281611"
       y1="1031.2874"
       x2="41.929218"
       y2="1031.2874" />
    <linearGradient
       inkscape:collect="always"
       xlink:href="#linearGradient3419-4"
       id="linearGradient4055-8"
       gradientUnits="userSpaceOnUse"
       gradientTransform="matrix(0.69047615,0,0,0.69047615,-1099.0959,-686.05959)"
       x1="2.9250314"
       y1="1029.4803"
       x2="44.956501"
       y2="1029.4803" />
    <linearGradient
       inkscape:collect="always"
       id="linearGradient3419-4">
      <stop
         style="stop-color:#d3d3d4;stop-opacity:1"
         offset="0"
         id="stop3421-8" />
      <stop
         style="stop-color:#f4f4f4;stop-opacity:1"
         offset="1"
         id="stop3423-6" />
    </linearGradient>
    <linearGradient
       inkscape:collect="always"
       xlink:href="#linearGradient3419-4"
       id="linearGradient4053-8"
       gradientUnits="userSpaceOnUse"
       gradientTransform="matrix(0.8095238,0,0,0.8095238,-1101.9534,-808.48368)"
       x1="2.9250314"
       y1="1029.4803"
       x2="44.956501"
       y2="1029.4803" />
    <linearGradient
       gradientUnits="userSpaceOnUse"
       y2="1007.4331"
       x2="26.509884"
       y1="1049.3497"
       x1="26.509884"
       id="linearGradient4047"
       xlink:href="#linearGradient4887"
       inkscape:collect="always" />
    <linearGradient
       id="linearGradient4887"
       inkscape:collect="always">
      <stop
         id="stop4889"
         offset="0"
         style="stop-color:#e0a269;stop-opacity:1" />
      <stop
         id="stop4891"
         offset="1"
         style="stop-color:#f0d3a9;stop-opacity:1" />
    </linearGradient>
    <linearGradient
       inkscape:collect="always"
       id="linearGradient4019-7">
      <stop
         style="stop-color:#4292cc;stop-opacity:1"
         offset="0"
         id="stop4021-3" />
      <stop
         style="stop-color:#a7d7f3;stop-opacity:1"
         offset="1"
         id="stop4023-0" />
    </linearGradient>
    <linearGradient
       inkscape:collect="always"
       xlink:href="#linearGradient4019-7"
       id="linearGradient4057-5"
       gradientUnits="userSpaceOnUse"
       gradientTransform="matrix(0,-1,1,0,-1004.3621,1106.5249)"
       x1="2.9281611"
       y1="1031.2874"
       x2="41.929218"
       y2="1031.2874" />
    <linearGradient
       inkscape:collect="always"
       xlink:href="#linearGradient3419-3"
       id="linearGradient4055-6"
       gradientUnits="userSpaceOnUse"
       gradientTransform="matrix(0.69047615,0,0,0.69047615,-1099.0959,-686.05959)"
       x1="2.9250314"
       y1="1029.4803"
       x2="44.956501"
       y2="1029.4803" />
    <linearGradient
       inkscape:collect="always"
       id="linearGradient3419-3">
      <stop
         style="stop-color:#d3d3d4;stop-opacity:1"
         offset="0"
         id="stop3421-7" />
      <stop
         style="stop-color:#f4f4f4;stop-opacity:1"
         offset="1"
         id="stop3423-3" />
    </linearGradient>
    <linearGradient
       inkscape:collect="always"
       xlink:href="#linearGradient3419-3"
       id="linearGradient4053-2"
       gradientUnits="userSpaceOnUse"
       gradientTransform="matrix(0.8095238,0,0,0.8095238,-1101.9534,-808.48368)"
       x1="2.9250314"
       y1="1029.4803"
       x2="44.956501"
       y2="1029.4803" />
  </defs>
  <sodipodi:namedview
     id="base"
     pagecolor="#ffffff"
     bordercolor="#666666"
     borderopacity="1.0"
     inkscape:pageopacity="0.0"
     inkscape:pageshadow="2"
     inkscape:zoom="4.2359313"
     inkscape:cx="-51.851585"
     inkscape:cy="12.25254"
     inkscape:document-units="px"
     inkscape:current-layer="layer1-0"
     showgrid="false"
     inkscape:showpageshadow="false"
     borderlayer="true"
     inkscape:window-width="1366"
     inkscape:window-height="767"
     inkscape:window-x="0"
     inkscape:window-y="0"
     inkscape:window-maximized="1"
     showguides="false"
     inkscape:guide-bbox="true"
     inkscape:snap-to-guides="true"
     inkscape:snap-grids="true">
    <sodipodi:guide
       orientation="0,1"
       position="44.847656,45.304688"
       id="guide7743" />
    <sodipodi:guide
       orientation="0,1"
       position="45.050781,45.597656"
       id="guide7745" />
    <sodipodi:guide
       orientation="0,1"
       position="44.953125,46.199219"
       id="guide7747" />
    <sodipodi:guide
       orientation="0,1"
       position="44.910156,45.894531"
       id="guide7749" />
    <sodipodi:guide
       orientation="0,1"
       position="44.426193,45.011766"
       id="guide7751" />
    <sodipodi:guide
       orientation="0,1"
       position="59.363824,1.8009126"
       id="guide7760" />
    <sodipodi:guide
       orientation="0,1"
       position="59.351563,2.1015625"
       id="guide7762" />
    <sodipodi:guide
       orientation="0,1"
       position="59.582031,2.4023438"
       id="guide7764" />
    <sodipodi:guide
       orientation="0,1"
       position="59.539063,2.703125"
       id="guide7766" />
    <sodipodi:guide
       orientation="0,1"
       position="61.269698,2.9996795"
       id="guide7768" />
    <sodipodi:guide
       orientation="0,1"
       position="64.265625,5.4921875"
       id="guide7782" />
  </sodipodi:namedview>
  <metadata
     id="metadata4235">
    <rdf:RDF>
      <cc:Work
         rdf:about="">
        <dc:format>image/svg+xml</dc:format>
        <dc:type
           rdf:resource="http://purl.org/dc/dcmitype/StillImage" />
        <dc:title />
      </cc:Work>
    </rdf:RDF>
  </metadata>
  <g
     inkscape:label="Capa 1"
     inkscape:groupmode="layer"
     id="layer1"
     transform="translate(0,-1004.3622)">
    <path
       style="fill:#000000"
       d=""
       id="path906"
       inkscape:connector-curvature="0" />
    <g
       id="g3570"
       transform="translate(0,-54.162733)">
      <rect
         style="fill:#000000;fill-opacity:0.01960784;stroke:none"
         id="rect4025"
         width="44.399963"
         height="44.399963"
         x="1.8000183"
         y="1060.325"
         ry="6.2786646" />
      <rect
         ry="6.1938181"
         y="1060.625"
         x="2.1000061"
         height="43.799973"
         width="43.799973"
         id="rect4027"
         style="fill:#000000;fill-opacity:0.03921569;stroke:none" />
      <rect
         style="fill:#000000;fill-opacity:0.07843137;stroke:none"
         id="rect4029"
         width="43.199982"
         height="43.199982"
         x="2.3999939"
         y="1060.9253"
         ry="6.1089716" />
      <rect
         ry="6.0241251"
         y="1061.2251"
         x="2.7000122"
         height="42.599991"
         width="42.599991"
         id="rect4031"
         style="fill:#000000;fill-opacity:0.15686275;stroke:none" />
      <rect
         style="fill:#6ca0c7;fill-opacity:1;stroke:none"
         id="rect4033"
         width="42"
         height="42"
         x="-1103.5249"
         y="3.0000219"
         ry="5.9392796"
         transform="matrix(0,-1,1,0,0,0)" />
      <rect
         style="opacity:0.1;fill:#000000;fill-opacity:1;stroke:none"
         id="rect4035"
         width="37.000004"
         height="37.000004"
         x="-1101.0249"
         y="5.50002"
         ry="5.2322216"
         transform="matrix(0,-1,1,0,0,0)" />
      <rect
         transform="matrix(0,-1,1,0,0,0)"
         ry="5.0625286"
         y="6.1000223"
         x="-1100.4249"
         height="35.799999"
         width="35.799999"
         id="rect4037"
         style="opacity:0.03999999;fill:#000000;fill-opacity:1;stroke:none" />
      <rect
         transform="matrix(0,-1,1,0,0,0)"
         ry="4.8079882"
         y="7.0000219"
         x="-1099.5249"
         height="34"
         width="34"
         id="rect4039"
         style="fill:url(#linearGradient4053);fill-opacity:1;stroke:none" />
      <rect
         transform="matrix(0,-1,1,0,0,0)"
         ry="4.3837538"
         y="8.50002"
         x="-1098.0249"
         height="31.000004"
         width="31.000004"
         id="rect4041"
         style="opacity:0.1;fill:#000000;fill-opacity:1;stroke:none" />
      <rect
         style="opacity:0.05;fill:#000000;fill-opacity:1;stroke:none"
         id="rect4043"
         width="30"
         height="30"
         x="-1097.5249"
         y="9.0000219"
         ry="4.2423429"
         transform="matrix(0,-1,1,0,0,0)" />
      <rect
         style="fill:url(#linearGradient4055);fill-opacity:1;stroke:none"
         id="rect4045"
         width="29.000004"
         height="29.000004"
         x="-1097.0249"
         y="9.50002"
         ry="4.1009312"
         transform="matrix(0,-1,1,0,0,0)" />
      <path
         inkscape:connector-curvature="0"
         style="fill:url(#linearGradient4057);fill-opacity:1;stroke:none"
         d="m 2.9999782,1097.5855 c 0,3.2903 2.6491,5.9394 5.9395,5.9394 l 30.1209998,0 c 3.2904,0 5.9395,-2.6491 5.9395,-5.9394 l 0,-13.0606 0,-10 0,-2 c 0,-0.1385 -0.014,-0.2738 -0.041,-0.4043 -0.1859,-0.913 -0.9895,-1.5957 -1.959,-1.5957 l -18.7129,0 -2.4863,-4.9023 c -0.1007,-0.1985 -0.2352,-0.3657 -0.3848,-0.5137 -0.089,-0.088 -0.1836,-0.1658 -0.2851,-0.2344 -0.01,0 -0.014,-0.011 -0.021,-0.016 -0.092,-0.06 -0.1887,-0.112 -0.2891,-0.1562 -0.025,-0.011 -0.049,-0.021 -0.074,-0.031 -0.089,-0.035 -0.1787,-0.062 -0.2715,-0.084 -0.039,-0.01 -0.077,-0.018 -0.1172,-0.025 -0.083,-0.014 -0.1656,-0.022 -0.25,-0.025 -0.036,0 -0.071,-0.012 -0.1074,-0.012 l -14.9999998,0 c -1.108,0 -2,0.892 -2,2 l 0,2 0,10 0,19.0606 z"
         id="path4047" />
      <path
         inkscape:connector-curvature="0"
         style="fill:#000000;fill-opacity:0.11764706;stroke:none"
         d="m 3.0000004,1095.0874 0,2.5 c 0,3.2904 2.64714,5.9375 5.9375,5.9375 l 30.1249996,0 c 3.29036,0 5.9375,-2.6471 5.9375,-5.9375 l 0,-2.5 c 0,3.2904 -2.64714,5.9375 -5.9375,5.9375 l -30.1249996,0 c -3.29036,0 -5.9375,-2.6471 -5.9375,-5.9375 z"
         id="path4049" />
      <path
         inkscape:connector-curvature="0"
         style="fill:#000000;fill-opacity:0.09803922;stroke:none"
         d="m 3.0000004,1097.0874 0,0.5 c 0,3.2904 2.64714,5.9375 5.9375,5.9375 l 30.1249996,0 c 3.29036,0 5.9375,-2.6471 5.9375,-5.9375 l 0,-0.5 c 0,3.2904 -2.64714,5.9375 -5.9375,5.9375 l -30.1249996,0 c -3.29036,0 -5.9375,-2.6471 -5.9375,-5.9375 z"
         id="path4051" />
    </g>
    <g
       id="layer1-6"
       inkscape:label="Capa 1"
       transform="matrix(0.40071381,0,0,0.40071381,-6.4141398,615.22943)">
      <path
         inkscape:connector-curvature="0"
         id="path196-9"
         d="m 92.767083,1043.9274 0,4.3701 16.151047,0 0,-4.3701 -16.151047,0 z m 0.673718,5.0438 0,10.1057 14.803609,0 0,-10.1057 -14.12989,0 -0.673719,0 z m 4.970953,1.6934 4.879906,0 c 0.32355,0 0.58268,0.2423 0.58268,0.5462 l 0,0.255 c 0,0.3039 -0.25913,0.5462 -0.58268,0.5462 l -4.879906,0 c -0.323163,0 -0.582674,-0.2423 -0.582674,-0.5462 l 0,-0.255 c 0,-0.3039 0.259511,-0.5462 0.582674,-0.5462 z"
         style="fill:#276591;fill-opacity:1;fill-rule:nonzero;stroke:none" />
    </g>
    <g
       id="layer1-0"
       inkscape:label="Capa 1"
       transform="translate(-109.93152,14.084825)">
      <g
         transform="translate(107.96901,-12.095273)"
         id="g4209">
        <rect
           style="fill:none;stroke:none"
           id="rect3270"
           width="15"
           height="15.000015"
           x="15.237164"
           y="1022.5845" />
        <path
           inkscape:connector-curvature="0"
           style="fill:#276591;fill-opacity:1;fill-rule:evenodd;stroke:none"
           d="m 16.237157,1022.5845 0,15 13,0 0,-7.5 -2,0 0,5.5 -9,0 0,-11 4.5,0 0,-2 -6.5,0 z"
           id="rect3278" />
        <rect
           style="fill:#276591;fill-opacity:1;fill-rule:evenodd;stroke:none"
           id="rect3320"
           width="4.5"
           height="5.4999843"
           x="24.737164"
           y="-1028.0845"
           transform="scale(1,-1)" />
      </g>
    </g>
  </g>
</svg>
