<?xml version="1.0" encoding="UTF-8" standalone="no"?>
<svg
   xmlns:dc="http://purl.org/dc/elements/1.1/"
   xmlns:cc="http://creativecommons.org/ns#"
   xmlns:rdf="http://www.w3.org/1999/02/22-rdf-syntax-ns#"
   xmlns:svg="http://www.w3.org/2000/svg"
   xmlns="http://www.w3.org/2000/svg"
   xmlns:xlink="http://www.w3.org/1999/xlink"
   xmlns:sodipodi="http://sodipodi.sourceforge.net/DTD/sodipodi-0.dtd"
   xmlns:inkscape="http://www.inkscape.org/namespaces/inkscape"
   width="48"
   viewBox="0 0 13.546667 13.546667"
   height="48"
   id="svg2"
   version="1.1"
   inkscape:version="0.91+devel r"
   sodipodi:docname="am2r.svg">
  <metadata
     id="metadata26">
    <rdf:RDF>
      <cc:Work
         rdf:about="">
        <dc:format>image/svg+xml</dc:format>
        <dc:type
           rdf:resource="http://purl.org/dc/dcmitype/StillImage" />
        <dc:title />
      </cc:Work>
    </rdf:RDF>
  </metadata>
  <sodipodi:namedview
     pagecolor="#ffffff"
     bordercolor="#666666"
     borderopacity="1"
     objecttolerance="10"
     gridtolerance="10"
     guidetolerance="10"
     inkscape:pageopacity="0"
     inkscape:pageshadow="2"
     inkscape:window-width="2560"
     inkscape:window-height="957"
     id="namedview24"
     showgrid="true"
     inkscape:zoom="5.8237908"
     inkscape:cx="35.332946"
     inkscape:cy="37.6395"
     inkscape:window-x="-4"
     inkscape:window-y="29"
     inkscape:window-maximized="1"
     inkscape:current-layer="svg2"
     inkscape:showpageshadow="false"
     borderlayer="true">
    <inkscape:grid
       type="xygrid"
       id="grid4473" />
  </sodipodi:namedview>
  <defs
     id="defs4">
    <linearGradient
       inkscape:collect="always"
       id="linearGradient7150">
      <stop
         style="stop-color:#8796a4;stop-opacity:1"
         offset="0"
         id="stop7152" />
      <stop
         style="stop-color:#b0b7c5;stop-opacity:1"
         offset="1"
         id="stop7154" />
    </linearGradient>
    <linearGradient
       gradientTransform="matrix(0.28222223,0,0,0.28222223,8.225708e-7,-283.45332)"
       inkscape:collect="always"
       xlink:href="#linearGradient7150"
       id="linearGradient7156"
       x1="27.568569"
       y1="1049.1152"
       x2="27.568569"
       y2="1007.4026"
       gradientUnits="userSpaceOnUse" />
  </defs>
  <rect
     style="fill:#000000;fill-opacity:0.01960784;stroke:none"
     id="rect5263"
     width="12.530657"
     height="12.530657"
     x="0.50800508"
     y="0.50800508"
     ry="1.7719787" />
  <rect
     ry="1.7480332"
     y="0.59270275"
     x="0.59266847"
     height="12.361326"
     width="12.361326"
     id="rect5261"
     style="fill:#000000;fill-opacity:0.03921569;stroke:none" />
  <rect
     style="fill:#000000;fill-opacity:0.07843137;stroke:none"
     id="rect5259"
     width="12.191996"
     height="12.191996"
     x="0.67733186"
     y="0.67740047"
     ry="1.7240876" />
  <rect
     ry="1.700142"
     y="0.76206362"
     x="0.76200479"
     height="12.022664"
     width="12.022664"
     id="rect5257"
     style="fill:#000000;fill-opacity:0.15686275;stroke:none" />
  <rect
     style="fill:url(#linearGradient7156);fill-opacity:1;stroke:none"
     id="rect5237"
     width="11.853333"
     height="11.853333"
     x="0.84666818"
     y="0.84667522"
     ry="1.6761965" />
  <path
     inkscape:connector-curvature="0"
     style="fill:#000000;fill-opacity:0.11764706;stroke:none"
     d="m 0.84666782,10.318764 0,0.705556 c 0,0.928624 0.74708198,1.675694 1.67569398,1.675694 l 8.5019452,0 c 0.928613,0 1.675695,-0.74707 1.675695,-1.675694 l 0,-0.705556 c 0,0.928624 -0.747082,1.675695 -1.675695,1.675695 l -8.5019452,0 c -0.928612,0 -1.67569398,-0.747071 -1.67569398,-1.675695 z"
     id="rect5265" />
  <path
     inkscape:connector-curvature="0"
     style="fill:#000000;fill-opacity:0.09803922;stroke:none"
     d="m 0.84666782,10.883209 0,0.141111 c 0,0.928624 0.74708198,1.675694 1.67569398,1.675694 l 8.5019452,0 c 0.928613,0 1.675695,-0.74707 1.675695,-1.675694 l 0,-0.141111 c 0,0.928624 -0.747082,1.675694 -1.675695,1.675694 l -8.5019452,0 c -0.928612,0 -1.67569398,-0.74707 -1.67569398,-1.675694 z"
     id="path5252" />
  <g
     transform="matrix(0.10190212,0,0,-0.10190212,-25.315475,-3.0646289)"
     id="g312"
     style="fill:#000000;fill-opacity:0.49803922" />
  <g
     transform="matrix(0.10190212,0,0,-0.10190212,-22.110734,-6.2695671)"
     id="g316"
     style="fill:#000000;fill-opacity:0.49803922" />
  <path
     inkscape:connector-curvature="0"
     id="path4160-6"
     d="m 6.3769571,10.419132 c -0.101447,-0.02357 -0.224474,-0.189674 -0.2476,-0.3343 -0.03388,-0.2118906 -0.08727,-0.2459626 -0.422656,-0.2697396 -0.238767,-0.016928 -0.332484,-0.037825 -0.477672,-0.1065113 -0.09935,-0.046998 -0.202115,-0.085461 -0.22838,-0.085474 -0.02626,-1.25e-5 -0.06419,-0.019829 -0.08428,-0.04403 -0.02009,-0.024209 -0.06091,-0.044013 -0.09072,-0.044013 -0.09355,0 -0.244105,-0.1036254 -0.42292,-0.2910934 C 4.2245441,9.0571609 4.1747371,8.9581099 4.1393671,8.7202218 4.1264271,8.6332298 4.0759971,8.5173532 4.0041021,8.4094562 3.9122321,8.2715834 3.8883261,8.2074722 3.8837461,8.086714 c -0.0031,-0.082881 -0.0085,-0.1837005 -0.01198,-0.2240433 -0.0034,-0.040343 -0.0075,-0.1432809 -0.009,-0.2287513 -0.0025,-0.1407873 -0.01098,-0.1601009 -0.09079,-0.2053816 -0.04845,-0.027489 -0.09567,-0.076387 -0.104935,-0.1086612 -0.0093,-0.032274 -0.04799,-0.1577996 -0.08607,-0.2789453 -0.05697,-0.181252 -0.12468,-0.5624977 -0.135439,-0.7626322 -0.007,-0.1294125 0.09476,-0.5089738 0.182284,-0.6801741 0.09969,-0.195002 0.390601,-0.4934346 0.481001,-0.4934346 0.02218,0 0.06255,-0.068525 0.09076,-0.1540362 0.168884,-0.5119652 0.36842,-0.8445596 0.699552,-1.1660448 0.274744,-0.26674 0.593711,-0.4598867 0.956083,-0.5789458 l 0.308073,-0.1012186 0.704165,0.01168 0.704165,0.01168 0.249392,0.09862 c 0.137165,0.054241 0.289001,0.1223836 0.337412,0.1514276 0.04841,0.029044 0.123307,0.07279 0.166434,0.097215 0.09958,0.056395 0.202197,0.153416 0.441883,0.4177861 0.267658,0.2952241 0.404404,0.5527607 0.569456,1.0724702 0.02434,0.076651 0.0543,0.1393661 0.06658,0.1393661 0.03085,0 0.298649,0.206996 0.36061,0.278732 0.07918,0.091667 0.2581429,0.4664234 0.2581429,0.5405485 0,0.036701 0.02135,0.1117168 0.04744,0.1667033 0.04383,0.092358 0.04365,0.1217573 -0.0024,0.385857 -0.0274,0.1572347 -0.08399,0.4159103 -0.1257469,0.5748349 -0.06133,0.233398 -0.08897,0.2948956 -0.14376,0.3198597 -0.06393,0.02913 -0.118242,0.1235543 -0.103064,0.1791887 0.0038,0.013836 -0.0082,0.1914348 -0.02654,0.3946641 -0.02887,0.3193765 -0.04334,0.3825412 -0.106675,0.4655732 -0.04613,0.060482 -0.07327,0.1344003 -0.07327,0.1995569 0,0.056921 -0.01066,0.1100807 -0.02369,0.1181343 -0.01303,0.00806 -0.04742,0.090079 -0.07642,0.1822782 -0.04006,0.1273488 -0.09183,0.2069759 -0.215432,0.331334 -0.169746,0.1707856 -0.295617,0.2633107 -0.359716,0.2644201 -0.02074,3.465e-4 -0.07072,0.026468 -0.111058,0.058029 -0.04035,0.031561 -0.09443,0.057669 -0.120189,0.058029 -0.02576,3.466e-4 -0.08556,0.019968 -0.132898,0.043587 -0.112618,0.056179 -0.421717,0.1259072 -0.636914,0.1436745 -0.205484,0.01696 -0.269783,0.06724 -0.296047,0.2314846 -0.02676,0.167303 -0.124102,0.314163 -0.240484,0.36279 -0.100694,0.04207 -0.735777,0.0528 -0.89777,0.01517 z m 0.546709,-0.03727 c -0.01482,-0.02398 0.01159,-0.02781 0.09362,-0.01358 0.08753,0.01518 0.103968,0.01216 0.07026,-0.01291 -0.03515,-0.02614 -0.02757,-0.03009 0.03769,-0.01963 0.04494,0.0072 0.07475,0.0061 0.06627,-0.0024 -0.0085,-0.0085 -0.0013,-0.03249 0.01602,-0.05333 0.03649,-0.04396 0.173588,-0.5060016 0.194949,-0.656993 0.008,-0.056482 0.03267,-0.1233619 0.05483,-0.1486261 0.02217,-0.025265 0.04863,-0.09128 0.05881,-0.1467011 0.03162,-0.1721229 0.195501,-0.6523401 0.264681,-0.7755495 0.03624,-0.064548 0.09573,-0.1701733 0.132185,-0.2347218 0.04406,-0.078016 0.0697,-0.1016592 0.07648,-0.070524 0.0056,0.025759 -0.03684,0.1181815 -0.09433,0.2053815 -0.107847,0.1635852 -0.234578,0.4626037 -0.207527,0.4896543 0.0084,0.00843 0.04807,-0.058742 0.08811,-0.1492656 0.06753,-0.1526836 0.199492,-0.2868574 0.241158,-0.2451905 0.0099,0.00988 -0.0043,0.026485 -0.03145,0.036912 -0.02717,0.010428 -0.09212,0.1086431 -0.144331,0.218259 -0.07978,0.1675068 -0.08603,0.1945409 -0.03918,0.1694606 0.03067,-0.016412 0.08382,-0.033796 0.118128,-0.038629 0.0343,-0.00483 0.128383,-0.029755 0.209069,-0.055379 0.18201,-0.057803 0.190712,-0.057871 0.190712,-0.00148 0,0.025158 0.01262,0.037938 0.02806,0.028401 0.01543,-0.00954 0.02224,-0.033422 0.01515,-0.053077 -0.0071,-0.019654 0.04658,-0.075345 0.1193,-0.1237563 0.07272,-0.048411 0.16676,-0.1375898 0.208984,-0.1981743 0.04222,-0.060584 0.12184,-0.1380084 0.176925,-0.1720531 0.110129,-0.068063 0.113199,-0.1088654 0.0043,-0.05615 -0.04862,0.02352 -0.03869,0.0063 0.03416,-0.059279 0.09412,-0.084715 0.09657,-0.090835 0.02934,-0.073329 -0.07169,0.018669 -0.07136,0.017333 0.01467,-0.059046 0.05529,-0.049091 0.06802,-0.071443 0.03422,-0.060115 -0.03575,0.011982 -0.04945,0.00572 -0.04084,-0.018665 0.0085,-0.024019 0.06254,-0.034215 0.156487,-0.029515 0.102124,0.00511 0.130836,-0.00111 0.09952,-0.021557 -0.02421,-0.015804 -0.08362,-0.030343 -0.132031,-0.032307 l -0.08802,-0.00357 0.07855,-0.031131 c 0.0432,-0.017124 0.08448,-0.053808 0.09173,-0.081525 0.0094,-0.03602 0.03416,-0.046384 0.08672,-0.036335 0.04045,0.00773 0.08129,0.00152 0.09076,-0.013806 0.01,-0.016178 -0.01624,-0.021804 -0.06257,-0.013415 l -0.0798,0.014453 0.07175,-0.084704 c 0.03946,-0.046587 0.01306,-0.030226 -0.05868,0.036358 -0.247915,0.2301108 -0.367055,0.3487273 -0.439895,0.4379635 -0.08407,0.1029951 -0.429672,0.3546661 -0.453843,0.330495 -0.0089,-0.0089 0.05021,-0.066797 0.131343,-0.1286706 0.149503,-0.1140132 0.341132,-0.3279611 0.316137,-0.3529573 -0.01829,-0.018288 -0.455636,0.2187395 -0.483645,0.2621195 -0.01213,0.018783 -0.05506,0.051247 -0.0954,0.072142 -0.04537,0.023498 -0.02095,-0.011206 0.06401,-0.090972 0.07555,-0.070929 0.214182,-0.1652382 0.308073,-0.2095742 0.218956,-0.103394 0.508483,-0.2992896 0.713502,-0.48276 l 0.161371,-0.1444098 -0.004,-0.5233639 c -0.0022,-0.2878521 -0.01742,-0.6884049 -0.0338,-0.8901188 -0.02804,-0.3453914 -0.02886,-0.3324522 -0.01415,0.2221516 0.01167,0.4397361 0.0064,0.606221 -0.02097,0.6572685 -0.03184,0.059489 -0.03043,0.066002 0.01084,0.050166 0.03384,-0.012985 0.04743,-0.00155 0.04743,0.039959 0,0.089421 -0.06148,0.1684986 -0.119241,0.153392 -0.0561,-0.014669 -0.181353,0.090984 -0.149711,0.1262799 0.01076,0.012001 0.0029,0.012235 -0.01743,5.084e-4 -0.02926,-0.016846 -0.02819,-0.03387 0.0052,-0.081423 0.02316,-0.033067 0.03421,-0.080704 0.02456,-0.1058585 -0.01293,-0.033679 -0.0046,-0.040769 0.03155,-0.026892 0.02701,0.010365 0.04911,0.00605 0.04911,-0.00958 0,-0.066979 -0.119798,-0.016082 -0.366752,0.1558183 -0.24999,0.1740132 -0.615574,0.3982758 -0.989328,0.6068895 -0.09236,0.05155 -0.183439,0.083996 -0.20258,0.072166 -0.02346,-0.014501 -0.02697,-0.00885 -0.01076,0.017366 0.01759,0.028451 0.01053,0.033685 -0.02633,0.019541 -0.02769,-0.010626 -0.04314,-0.00765 -0.03432,0.00661 0.01934,0.031283 -0.06595,0.068405 -0.103646,0.045113 -0.01468,-0.00907 -0.02687,7.856e-4 -0.02709,0.021911 -2.31e-4,0.021123 -0.0079,0.071415 -0.01722,0.1117574 -0.01318,0.057519 -0.01003,0.063852 0.01462,0.02934 0.02348,-0.032878 0.03155,-0.034203 0.03189,-0.00524 2.31e-4,0.021324 -0.01842,0.057641 -0.04148,0.080705 -0.04696,0.046958 -0.113302,0.3227483 -0.11701,0.4864076 -0.0013,0.058905 -0.01233,0.1010361 -0.02443,0.093624 -0.0121,-0.00741 -0.02427,0.036814 -0.02703,0.098281 -0.0051,0.1140315 -0.01217,0.1768837 -0.02567,0.2291184 -0.0042,0.016136 -0.01015,0.042544 -0.01329,0.05868 -0.0031,0.016136 -0.01334,0.049145 -0.02267,0.07335 -0.0093,0.024206 -0.04505,0.189245 -0.07938,0.366753 -0.03433,0.1775087 -0.0792,0.3397448 -0.09971,0.3605268 -0.04439,0.04496 -0.329861,0.06911 -0.417197,0.03529 -0.04,-0.01549 -0.07301,-0.06827 -0.09452,-0.1511282 -0.06049,-0.2329849 -0.178651,-0.7422404 -0.192932,-0.8314857 -0.0078,-0.048411 -0.03524,-0.1804422 -0.06112,-0.2934021 -0.02586,-0.1129598 -0.0609,-0.2912017 -0.07786,-0.396093 -0.01696,-0.1048912 -0.04615,-0.2225788 -0.06487,-0.2615281 -0.0266,-0.055329 -0.02589,-0.073556 0.0033,-0.083343 0.02052,-0.00689 -0.119509,-0.088295 -0.31118,-0.180902 -0.191772,-0.092597 -0.388294,-0.1966353 -0.436819,-0.2311871 -0.04852,-0.034552 -0.09754,-0.053507 -0.108925,-0.042122 -0.01139,0.011385 -0.04734,-0.01211 -0.07992,-0.052212 -0.03257,-0.040101 -0.04951,-0.054508 -0.03766,-0.032013 0.01523,0.028893 -0.0051,0.02516 -0.06921,-0.012719 -0.04992,-0.029489 -0.08599,-0.061356 -0.08014,-0.070813 0.0058,-0.00946 -0.03592,-0.047707 -0.09281,-0.084999 -0.05689,-0.037292 -0.09344,-0.051637 -0.08123,-0.031878 0.01222,0.01976 -0.01864,0.011797 -0.06857,-0.017692 -0.04991,-0.029489 -0.08493,-0.063054 -0.0778,-0.074588 0.0071,-0.011534 -0.0497,-0.062061 -0.126291,-0.1122811 C 4.2423331,6.8279 4.2312071,6.8042791 4.2341651,6.3274036 c 0.0024,-0.3779126 -0.0083,-0.4284171 -0.05245,-0.2486581 -0.0216,0.087968 -0.0233,0.084073 -0.0186,-0.042498 0.0033,-0.089139 0.01839,-0.1393509 0.04185,-0.1393659 0.02315,-1.5e-5 0.03668,-0.042792 0.03668,-0.1160053 0,-0.1090311 0.0066,-0.117813 0.110026,-0.1465376 0.06052,-0.016805 0.157545,-0.030629 0.215625,-0.030719 0.05808,-9.09e-5 0.206614,-0.0087 0.330077,-0.019139 0.202496,-0.017116 0.224496,-0.025018 0.224659,-0.080686 10e-5,-0.033941 0.0199,-0.099528 0.04401,-0.14575 0.07316,-0.1402755 0.05565,-0.2310019 -0.0662,-0.3429737 l -0.110025,-0.1011113 0.102691,0.113706 c 0.148646,0.1645914 0.01753,0.085004 -0.161372,-0.09795 -0.08068,-0.082515 -0.140099,-0.1594248 -0.132031,-0.1709118 0.0081,-0.011487 -0.01637,-0.025279 -0.0543,-0.030649 -0.05876,-0.00832 -0.06609,-0.021352 -0.04951,-0.088021 0.01071,-0.043042 0.03715,-0.1574761 0.05876,-0.2542989 0.03506,-0.157035 0.04008,-0.1649543 0.04657,-0.07335 0.007,0.099739 0.0076,0.1001605 0.01848,0.01467 0.01685,-0.1323806 0.06146,-0.3446966 0.08632,-0.4108286 0.01953,-0.051938 0.01643,-0.054059 -0.02715,-0.018616 -0.02705,0.022 -0.04175,0.052034 -0.03265,0.066743 0.0091,0.014709 0.0012,0.023115 -0.01741,0.018681 -0.05876,-0.013959 -0.33767,0.4282056 -0.451421,0.7156528 -0.10759,0.2718783 -0.128482,0.3414469 -0.132903,0.442559 -0.0012,0.02824 -0.01875,0.048044 -0.03892,0.044011 -0.02603,-0.00521 -0.03734,0.045949 -0.03896,0.1761723 l -0.0023,0.1835073 0.01104,-0.1770248 c 0.01416,-0.2270199 0.06688,-0.2012342 0.06688,0.032714 0,0.1286945 -0.01169,0.1797156 -0.04401,0.1921189 -0.02988,0.011465 -0.04401,0.058276 -0.04401,0.1457804 0,0.077363 -0.01345,0.1288917 -0.03365,0.1288917 -0.02387,0 -0.0287,0.066055 -0.01661,0.2273867 0.01032,0.1378497 0.007,0.2042803 -0.0083,0.1687063 -0.01895,-0.04389 -0.02723,-0.018008 -0.03283,0.1026906 l -0.0074,0.1613713 -0.01077,-0.154036 c -0.0077,-0.1099275 -0.02294,-0.1540361 -0.05326,-0.1540361 -0.04234,0 -0.04692,-0.073496 -0.04721,-0.7586956 l -7e-5,-0.1572211 -0.08553,0.081941 c -0.121499,0.1164044 -0.251129,0.4032675 -0.290683,0.6432644 -0.03966,0.2406757 -0.03953,0.1975 -0.0017,0.522051 0.01654,0.1418943 0.0566,0.3388206 0.08903,0.437614 0.03243,0.098793 0.05897,0.1918316 0.05897,0.206751 0,0.014919 0.02971,0.052374 0.06602,0.083233 0.06044,0.051373 0.06107,0.054693 0.0074,0.039352 -0.04334,-0.012375 -0.03951,-0.00499 0.01467,0.028243 0.104803,0.064292 0.208828,0.061894 0.185216,-0.00427 -0.01357,-0.038025 -0.0029,-0.03422 0.04104,0.014669 0.03265,0.036308 0.06638,0.066015 0.07495,0.066015 0.0086,0 0.01506,-0.2252205 0.0144,-0.5004908 -6.51e-4,-0.2752699 0.01059,-0.5122809 0.02498,-0.5266903 0.01533,-0.015349 0.02617,0.1939425 0.02617,0.5053385 0,0.4072675 0.0088,0.534491 0.03776,0.5441671 0.02077,0.00694 0.07622,0.044991 0.123226,0.084544 0.04701,0.039554 0.306428,0.18401 0.576493,0.3210138 0.370486,0.1879483 0.51546,0.2776434 0.59056,0.365381 0.105668,0.12345 0.160997,0.14956 0.137608,0.064938 -0.0078,-0.02824 0.0025,-0.018216 0.02292,0.022273 0.02042,0.040491 0.0777,0.1329128 0.127302,0.2053815 0.09789,0.1430145 0.210558,0.4042993 0.234299,0.543336 0.0082,0.047965 0.04921,0.206037 0.09115,0.3512712 0.04194,0.1452346 0.08174,0.3686943 0.08845,0.4965789 0.009,0.1726076 0.02505,0.2430946 0.06213,0.2735716 0.03161,0.02599 0.03379,0.03281 0.0059,0.01858 -0.03789,-0.01935 -0.03841,-0.01557 -0.0038,0.02716 0.02215,0.0273 0.06505,0.04965 0.09536,0.04965 0.0303,0 0.05509,0.0198 0.05509,0.04401 0,0.02421 0.01398,0.04401 0.03107,0.04401 0.01709,0 0.02367,-0.01197 0.01463,-0.02661 -0.009,-0.01463 0.01,-0.01969 0.04228,-0.01125 0.0323,0.0084 0.05872,0.02639 0.05872,0.03987 0,0.01348 0.08252,0.0292 0.183377,0.03493 0.100857,0.0057 0.187456,0.01296 0.192442,0.01607 0.005,0.0031 -2.3e-4,-0.0094 -0.01158,-0.02775 z M 6.0215201,8.7233171 c -0.01076,-0.010758 -0.01956,-0.033203 -0.01956,-0.049878 0,-0.018385 0.01366,-0.016652 0.03472,0.0044 0.0191,0.019097 0.0279,0.041541 0.01956,0.049878 -0.0083,0.00834 -0.02396,0.00635 -0.03472,-0.0044 z m 2.151615,-0.1867419 c 0,-0.015631 0.01981,-0.028419 0.04401,-0.028419 0.02421,0 0.04401,0.00519 0.04401,0.011532 0,0.00634 -0.0198,0.019131 -0.04401,0.028419 -0.02421,0.00929 -0.04401,0.0041 -0.04401,-0.011532 z M 8.0557741,8.1595361 c 0,-0.016136 0.01321,-0.0375 0.02934,-0.047474 0.01614,-0.00997 0.02934,-0.00493 0.02934,0.011206 0,0.016136 -0.0132,0.0375 -0.02934,0.047474 -0.01614,0.00997 -0.02934,0.00493 -0.02934,-0.011206 z M 5.4994331,7.7233049 c -0.0365,-0.046536 -0.03546,-0.047573 0.01108,-0.011077 0.02824,0.022147 0.05135,0.045253 0.05135,0.051345 0,0.024148 -0.02409,0.00861 -0.06243,-0.040268 z m 3.722635,-0.4041283 c -0.0078,-0.040728 -0.0027,-0.081116 0.01125,-0.089752 0.01398,-0.00863 0.0254,0.024687 0.0254,0.07405 0,0.1089236 -0.01741,0.1163808 -0.03665,0.015703 z m -5.297545,-0.02864 c 5.99e-4,-0.048411 0.0072,-0.064664 0.01461,-0.036117 0.0074,0.028547 0.007,0.068156 -0.0011,0.08802 -0.008,0.019864 -0.01412,-0.0035 -0.01352,-0.051904 z m 0.0046,-0.5697295 c 0.0028,-0.2890331 0.01562,-0.4560999 0.03551,-0.4627025 0.03487,-0.011578 0.02857,0.2930768 -0.01406,0.6803493 -0.02311,0.2099709 -0.02537,0.1870206 -0.02145,-0.2176468 z m 0.08005,0.1565216 c 0.0014,-0.03418 0.0084,-0.041132 0.01773,-0.017726 0.0085,0.021178 0.0075,0.046486 -0.0023,0.056235 -0.0098,0.00975 -0.01668,-0.00758 -0.01541,-0.038509 z m 0.02703,-0.215875 c 0,-0.031322 0.0113,-0.06393 0.0251,-0.072463 0.0138,-0.00853 0.01887,0.017094 0.01125,0.056948 -0.01655,0.086567 -0.03635,0.095019 -0.03635,0.015515 z m 0.117361,-0.3995563 c 0,-0.041295 0.01196,-0.067688 0.02658,-0.058651 0.01462,0.00904 0.01968,0.042823 0.01125,0.075082 -0.02111,0.080731 -0.03783,0.073469 -0.03783,-0.016433 z m 0.03674,-0.4970521 c 3.26e-4,-0.064548 0.0063,-0.0875 0.01335,-0.051003 0.007,0.036497 0.0067,0.089309 -5.92e-4,0.117361 -0.0074,0.028052 -0.01308,-0.0018 -0.01276,-0.066358 z m 3.223707,4.2566067 c 0.01659,0.01026 0.02058,-0.01228 0.0098,-0.05529 -0.01014,-0.04038 -0.0042,-0.08131 0.01349,-0.09221 0.01745,-0.01078 0.03064,-0.04853 0.02933,-0.083886 -0.002,-0.055221 -0.0077,-0.051873 -0.03999,0.023734 -0.02068,0.04841 -0.04549,0.127629 -0.05512,0.176041 -0.0096,0.04841 -0.01031,0.07143 -0.0015,0.05116 0.0088,-0.02027 0.02861,-0.02907 0.04402,-0.01955 z M 6.9684141,9.8593624 c 0.03623,-0.03142 0.05733,-0.070923 0.04691,-0.087782 -0.01792,-0.028998 0.02405,-0.2209201 0.118217,-0.5406231 0.02313,-0.078505 0.04214,-0.170926 0.04225,-0.2053816 1.17e-4,-0.034456 0.02537,-0.168271 0.05613,-0.2973679 0.03076,-0.1290971 0.06332,-0.3007373 0.07236,-0.3814228 0.01135,-0.1012854 1.76e-4,-0.073558 -0.0361,0.089564 -0.06828,0.3070638 -0.08065,0.3360491 -0.143022,0.3349357 -0.04615,-8.351e-4 -0.04701,-0.00512 -0.0073,-0.036675 0.05019,-0.039897 0.133894,-0.3780674 0.16363,-0.6611317 0.01948,-0.185442 0.06542,-0.269487 0.147311,-0.269487 0.024,0 0.03529,-0.013531 0.02506,-0.030067 -0.01022,-0.016537 -0.0067,-0.026439 0.0078,-0.022006 0.04799,0.014702 0.386675,-0.162365 0.368088,-0.1924388 -0.0108,-0.017468 0.0011,-0.022088 0.02919,-0.011319 0.03109,0.011927 0.06782,-0.00911 0.106574,-0.06103 0.06134,-0.082185 0.08349,-0.044047 0.03118,0.053696 -0.03384,0.063208 -0.08268,0.090134 0.451536,-0.2488915 l 0.289689,-0.1838433 -0.09501,-0.033122 c -0.05226,-0.018216 -0.1067,-0.0259 -0.120984,-0.017072 -0.01429,0.00883 -0.02597,0.00208 -0.02597,-0.015021 0,-0.017089 0.01398,-0.031072 0.03107,-0.031072 0.01709,0 0.02178,-0.01503 0.01043,-0.033401 -0.01475,-0.023863 0.0092,-0.027796 0.084,-0.013771 0.06375,0.01196 0.112234,0.00735 0.124069,-0.011797 0.01068,-0.017285 0.06902,-0.062737 0.129633,-0.1010009 0.186998,-0.118047 0.207638,-0.1512763 0.2072,-0.3335744 -4.85e-4,-0.2013131 -0.02495,-0.3045668 -0.06615,-0.2791078 -0.01795,0.011093 -0.02173,0.00463 -0.0092,-0.015695 0.01175,-0.019013 -0.0064,-0.1179952 -0.04033,-0.2199612 -0.06054,-0.1819362 -0.05737,-0.280632 0.0092,-0.2847233 0.01844,-0.00113 0.0071,-0.013408 -0.02514,-0.027278 -0.03227,-0.013868 -0.263327,-0.025307 -0.513453,-0.025418 -0.300043,-1.349e-4 -0.432312,0.00883 -0.388758,0.026333 0.03631,0.014593 0.06602,0.031103 0.06602,0.036686 0,0.025225 -0.436712,-0.056246 -0.475411,-0.088691 -0.02389,-0.020033 -0.05181,-0.028053 -0.06204,-0.017824 -0.02685,0.026847 -0.108035,-0.047776 -0.108035,-0.099299 0,-0.029987 0.01808,-0.021966 0.0577,0.025598 0.03174,0.038096 0.05814,0.054808 0.05868,0.037138 0.0011,-0.035721 -0.08539,-0.121944 -0.131055,-0.1306681 -0.01614,-0.00308 -0.06234,-0.01955 -0.10269,-0.036591 -0.04089,-0.017271 -0.289902,-0.031866 -0.562633,-0.032975 -0.478397,-0.00195 -0.490961,-4.112e-4 -0.564798,0.068955 -0.04153,0.03902 -0.0751,0.058741 -0.07458,0.043826 0.0016,-0.048612 0.07256,-0.1226289 0.131829,-0.1376538 0.05299,-0.013435 0.05245,-0.014981 -0.0064,-0.018093 -0.04582,-0.00242 -0.102329,0.046017 -0.19663,0.168569 -0.109261,0.141992 -0.151758,0.1751832 -0.243771,0.1903884 -0.168137,0.027785 -0.278823,0.023181 -0.257868,-0.010723 0.01745,-0.028229 -0.686639,-0.010386 -0.716665,0.018161 -0.0067,0.00639 0.145111,0.014233 0.337412,0.017423 l 0.349637,0.0058 -0.322742,0.01774 -0.322742,0.01774 0.334029,0.0058 c 0.372247,0.00646 0.693592,-0.038606 0.77772,-0.1090791 0.05285,-0.044268 0.0536,-0.043397 0.01579,0.018175 -0.02184,0.035567 -0.07322,0.069362 -0.114182,0.0751 -0.06396,0.00896 -0.06707,0.013792 -0.02203,0.034248 0.03467,0.015746 0.07027,0.00768 0.105072,-0.023819 0.02895,-0.026198 0.06358,-0.037702 0.07696,-0.025564 0.01338,0.012137 0.01447,0.00499 0.0025,-0.015892 -0.02365,-0.040995 0.03445,-0.1314349 0.07024,-0.1093217 0.01196,0.00739 0.05338,-0.022458 0.09203,-0.066339 l 0.07028,-0.079781 -0.08068,0.07113 c -0.04437,0.039121 -0.08068,0.057671 -0.08068,0.041223 0,-0.04917 0.09661,-0.1192017 0.192494,-0.1395389 0.07078,-0.015012 0.101856,-0.00531 0.146701,0.045788 0.0313,0.035659 0.03836,0.053924 0.01569,0.040589 -0.02629,-0.015467 -0.03431,-0.013087 -0.02216,0.00657 0.01217,0.019683 0.05717,0.02222 0.124558,0.00702 0.05803,-0.013089 0.17663,-0.017696 0.263552,-0.010245 0.129042,0.011065 0.17358,0.00205 0.242732,-0.049064 0.08373,-0.061902 0.228,-0.07069 0.221255,-0.013477 -0.0019,0.016136 0.0543,0.093588 0.124906,0.1721127 0.116961,0.1300896 0.141843,0.1438255 0.280095,0.1546242 0.08345,0.00652 0.159276,6.701e-4 0.168497,-0.013006 0.01816,-0.026925 0.816283,0.00657 0.845184,0.035464 0.0097,0.00966 -0.02095,0.017355 -0.06802,0.017105 -0.04707,-2.542e-4 -0.321902,0.00658 -0.610745,0.015189 -0.451006,0.013438 -0.531804,0.00917 -0.572135,-0.03023 -0.02583,-0.025233 -0.07337,-0.065108 -0.105645,-0.088612 -0.04597,-0.033479 -0.04756,-0.038861 -0.0074,-0.024852 0.114547,0.039892 0.01214,-0.09883 -0.106596,-0.1443922 -0.03253,-0.012486 -0.07919,6.701e-4 -0.122126,0.034443 -0.09748,0.076677 -0.645951,0.072268 -0.702927,-0.00565 -0.02945,-0.040277 -0.05196,-0.044328 -0.114391,-0.020589 -0.04275,0.016254 -0.08653,0.052855 -0.09728,0.081338 -0.01075,0.028482 -0.05583,0.088314 -0.10017,0.1329596 -0.06552,0.06597 -0.108426,0.0818 -0.229087,0.084519 -0.08554,0.00192 -0.15001,0.017267 -0.152103,0.036187 -0.01941,0.175452 -0.01831,0.3104642 0.0025,0.2976458 0.02982,-0.018426 0.02428,0.041836 -0.0087,0.094614 -0.03147,0.050374 0.01285,0.046011 0.09138,-0.009 0.03815,-0.026722 0.06521,-0.032508 0.06521,-0.013944 0,0.017451 -0.03168,0.043773 -0.07039,0.058492 -0.03872,0.01472 -0.09153,0.05694 -0.117361,0.093823 -0.03649,0.052094 -0.04697,0.056168 -0.04697,0.018254 0,-0.026844 0.01324,-0.056989 0.02942,-0.066989 0.01957,-0.012091 0.01921,-0.037243 -0.0011,-0.075083 -0.01675,-0.031295 -0.02008,-0.056882 -0.0074,-0.05686 0.01267,2.19e-5 0.01806,-0.075896 0.01198,-0.1687063 -0.0061,-0.09281 -0.01929,-0.1486642 -0.02934,-0.1241196 -0.02052,0.050112 -0.05708,0.055081 -0.118623,0.016127 -0.03204,-0.020281 -0.03705,-0.014343 -0.02167,0.025721 0.01486,0.038713 0.0086,0.04772 -0.02436,0.035075 -0.05208,-0.019982 -0.0597,0.042068 -0.01114,0.090629 0.01826,0.01826 0.03853,0.090218 0.04504,0.1599043 0.0065,0.069686 0.01611,0.1748764 0.02133,0.2337564 0.0068,0.076673 -0.0061,0.1203875 -0.04537,0.1540362 -0.0696,0.059596 -0.07353,0.059098 -0.09204,-0.011698 -0.0096,-0.036759 -9e-4,-0.05868 0.02332,-0.05868 0.03925,0 0.04288,-0.069437 0.0056,-0.1067316 -0.01122,-0.011228 -0.02194,-0.1337394 -0.02382,-0.2722499 -0.0019,-0.1385101 -0.0092,-0.2254306 -0.01639,-0.1931563 -0.03107,0.140429 -0.05195,0.135849 -0.06689,-0.014669 l -0.01595,-0.1613725 -0.190712,-0.00846 c -0.264667,-0.011735 -0.42469,0.024862 -0.428126,0.097912 -0.0015,0.031485 -0.01984,0.096854 -0.0408,0.1452655 -0.02096,0.048411 -0.0583,0.1342314 -0.08298,0.1907115 -0.02468,0.05648 -0.04593,0.1724547 -0.04722,0.2577215 -0.0022,0.1432668 0.0055,0.1612306 0.100344,0.2367317 0.170038,0.1352824 0.299806,0.2005862 0.314697,0.1583664 0.02024,-0.057378 0.08399,-0.043992 0.257882,0.054146 0.08851,0.049952 0.160926,0.077373 0.160926,0.060937 0,-0.027923 0.102513,0.054923 0.257247,0.2078962 0.129069,0.1275987 0.152314,0.1637917 0.115008,0.1790716 -0.02545,0.010425 -0.02395,0.021892 0.0056,0.042564 0.02223,0.015562 0.03277,0.040692 0.02341,0.055845 -0.0094,0.015152 0.09909,0.082091 0.241018,0.1487497 0.141926,0.066658 0.274784,0.1413668 0.295244,0.1660179 0.02046,0.024651 0.06753,0.1935444 0.104606,0.3753194 0.03708,0.1817747 0.07665,0.366808 0.08796,0.4111851 0.01533,0.060213 0.0098,0.080686 -0.02175,0.080686 -0.02327,0 -0.04342,-0.016504 -0.04479,-0.036675 -0.0035,-0.052174 -0.118938,-0.6069901 -0.147156,-0.7075031 -0.01825,-0.064999 -0.05529,-0.096056 -0.163594,-0.1371683 -0.07701,-0.02923 -0.159373,-0.069218 -0.183044,-0.088864 -0.02367,-0.019644 -0.05036,-0.028403 -0.0593,-0.019462 -0.0089,0.00894 0.06927,0.057075 0.173804,0.1069638 0.183819,0.087729 0.190522,0.094799 0.20413,0.2153109 0.0078,0.068532 0.03554,0.1992017 0.06178,0.2903768 0.02624,0.091175 0.0531,0.223206 0.0597,0.2934021 0.0107,0.1138686 0.11297,0.6222153 0.192179,0.9552493 0.01615,0.067903 0.02264,0.1409803 0.01442,0.1624016 -0.0082,0.021416 0.0123,0.068189 0.0456,0.1039314 0.07654,0.08215 0.230512,0.08593 0.320523,0.0079 z M 6.6206821,8.6922075 c -0.0513,-0.00967 -0.06004,-0.019968 -0.03179,-0.037431 0.02144,-0.013251 0.06968,-0.012421 0.107193,0.00185 0.03751,0.014263 0.09143,0.018457 0.11981,0.00932 0.04348,-0.014002 0.04468,-0.011636 0.0076,0.015044 -0.04518,0.032494 -0.07979,0.034411 -0.202802,0.011227 z m 0.358087,-0.0027 c -0.02143,-0.013239 -0.0079,-0.032753 0.03766,-0.054242 0.0756,-0.035675 0.09638,-0.00855 0.03346,0.043666 -0.02071,0.01719 -0.05271,0.021948 -0.07112,0.010575 z m 0.201431,-0.5334286 c 0,-0.040343 0.0066,-0.056847 0.0148,-0.036675 0.0081,0.020171 0.0081,0.053179 0,0.07335 -0.0081,0.020171 -0.0148,0.00367 -0.0148,-0.036675 z m 0.411731,-0.5318943 c 0.007,-0.022133 0.04172,-0.053273 0.07698,-0.069203 0.03526,-0.015929 0.06412,-0.045637 0.06412,-0.066016 0,-0.020379 0.01127,-0.037052 0.02506,-0.037052 0.01378,0 0.05999,-0.032377 0.102691,-0.07195 0.05856,-0.054275 0.07764,-0.060808 0.07764,-0.026594 0,0.024946 -0.0264,0.052262 -0.05868,0.060701 -0.03227,0.00844 -0.05868,0.026594 -0.05868,0.040343 0,0.013748 0.0176,0.018241 0.03912,0.00999 0.02151,-0.00826 0.03912,0.00206 0.03912,0.022925 0,0.020867 -0.03241,0.039942 -0.07203,0.042391 -0.03962,0.00245 -0.111664,0.033761 -0.160113,0.06958 -0.05372,0.03972 -0.08307,0.049429 -0.07522,0.024887 z m 0.405163,-0.2697651 c 0,-0.047198 0.167503,-0.193994 0.19422,-0.1702108 0.01131,0.010071 0.01068,0.00115 -0.0014,-0.01979 -0.01713,-0.029678 -0.03129,-0.030374 -0.0641,-0.00315 -0.02316,0.019221 -0.04962,0.027435 -0.0588,0.018255 -0.0092,-0.00918 0.03507,-0.05419 0.09835,-0.1000231 0.06327,-0.045833 0.110152,-0.097991 0.10418,-0.1159067 -0.006,-0.017916 0.0088,-0.04013 0.03289,-0.049365 0.02966,-0.011381 0.0385,-0.00309 0.02744,0.025726 -0.02096,0.054626 0.02175,0.054372 0.09438,-5.545e-4 0.03132,-0.023692 0.0689,-0.043497 0.0835,-0.044011 0.04922,-0.00174 -0.07404,0.1107508 -0.160704,0.1466468 -0.04725,0.019568 -0.0859,0.047961 -0.0859,0.063093 0,0.015132 -0.01524,0.018092 -0.03387,0.00657 -0.02051,-0.012676 -0.02593,-0.00808 -0.01373,0.011657 0.02197,0.035548 0.106285,0.015127 0.106285,-0.025744 0,-0.013905 0.02023,-0.017516 0.04496,-0.00802 0.03475,0.013332 0.02345,0.033125 -0.04971,0.0871 -0.05207,0.038416 -0.112511,0.069847 -0.134315,0.069847 -0.0218,0 -0.07205,0.032408 -0.111661,0.072017 -0.03961,0.039609 -0.07202,0.055752 -0.07202,0.035874 z M 5.5618561,7.0851551 c -0.05047,-0.028852 -0.05845,-0.042255 -0.0256,-0.042971 0.02626,-5.777e-4 0.06418,0.018764 0.08428,0.042971 0.04467,0.053825 0.03547,0.053825 -0.05868,0 z M 5.7012651,6.865665 c -0.04007,-0.031525 -0.08124,-0.04895 -0.09147,-0.038721 -0.01023,0.010229 -0.0186,0.00231 -0.0186,-0.017608 0,-0.024092 0.02209,-0.029315 0.06602,-0.015608 0.09724,0.030343 0.177149,0.092035 0.14497,0.1119229 -0.01543,0.00953 -0.06084,-0.00846 -0.100917,-0.039986 z m 2.553342,0.012449 c -0.011,-0.010998 -0.0017,-0.03823 0.02052,-0.060514 0.05272,-0.052725 0.07405,-0.05122 0.07405,0.00522 0,0.025158 -0.01208,0.038279 -0.02684,0.029158 -0.01476,-0.00912 -0.03154,-0.00247 -0.03728,0.014773 -0.0057,0.017246 -0.01945,0.022357 -0.03045,0.011361 z m -0.04652,-0.161101 c 0.03842,-0.02241 0.04738,-0.0615 0.03966,-0.1731248 -0.0055,-0.079299 -0.01869,-0.1582941 -0.02935,-0.1755446 -0.01066,-0.017251 0.0012,-0.031364 0.02635,-0.031364 0.02516,0 0.04676,0.0099 0.048,0.022006 0.02269,0.2210401 0.03654,0.2884488 0.06252,0.304507 0.03801,0.023494 -0.06726,0.084636 -0.143537,0.083359 -0.04904,-8.087e-4 -0.04933,-0.00319 -0.0036,-0.029837 z m 0.716842,-0.6599005 c -0.02831,-0.073782 -0.01996,-0.092819 0.01463,-0.03334 0.01713,0.02945 0.02495,0.059726 0.01741,0.067281 -0.0075,0.00756 -0.02197,-0.00772 -0.03203,-0.033941 z M 8.8186201,5.8381952 c 0,-0.016136 0.0132,-0.02934 0.02934,-0.02934 0.01614,0 0.02934,0.013202 0.02934,0.02934 0,0.016136 -0.01321,0.02934 -0.02934,0.02934 -0.01614,0 -0.02934,-0.013202 -0.02934,-0.02934 z M 7.6005731,5.7201425 c -0.01223,-0.019795 0.02468,-0.023403 0.108295,-0.010587 0.167658,0.0257 0.178966,0.04062 0.03078,0.04062 -0.06628,0 -0.128872,-0.013514 -0.139081,-0.030032 z m 0.609237,0.00981 c 0.02824,-0.00738 0.07445,-0.00738 0.102691,0 0.02824,0.00738 0.0052,0.013418 -0.05135,0.013418 -0.05648,0 -0.07958,-0.00604 -0.05135,-0.013418 z m 0.192545,1.821e-4 c 0.02118,-0.00848 0.04649,-0.00743 0.05624,0.00232 0.0098,0.00975 -0.0076,0.016684 -0.03851,0.015411 -0.03418,-0.00141 -0.04113,-0.00836 -0.01772,-0.017726 z M 6.0606391,5.6070665 c 0,-0.014161 0.02197,-0.043868 0.04881,-0.066016 0.04427,-0.036514 0.04554,-0.034113 0.01364,0.025748 -0.03638,0.068274 -0.06245,0.085085 -0.06245,0.040268 z m -0.04124,4.1086214 0.06144,-0.00458 -0.05263,-0.2420563 c -0.02895,-0.1331298 -0.0533,-0.2593384 -0.05411,-0.2804622 -8.09e-4,-0.021123 -0.01236,-0.031683 -0.02566,-0.023464 -0.01329,0.00822 -0.0232,-0.010266 -0.02201,-0.041077 0.0012,-0.030811 -0.01103,-0.056926 -0.02717,-0.058034 -0.01614,-0.00111 -0.03947,0.1006755 -0.05185,0.2261853 -0.01238,0.1255097 -0.03533,0.2660246 -0.051,0.3122556 -0.04271,0.1260073 -0.0339,0.130401 0.222964,0.1112394 z M 5.8892321,9.3590218 c 0,-0.040343 0.0066,-0.056847 0.0148,-0.036675 0.0081,0.020171 0.0081,0.053179 0,0.07335 -0.0081,0.020171 -0.0148,0.00367 -0.0148,-0.036675 z m -0.386057,0.3246521 c 0,-0.015088 -0.01431,-0.064595 -0.0318,-0.1100252 l -0.0318,-0.082596 -0.03696,0.088021 c -0.02643,0.062941 -0.02782,0.094162 -0.0049,0.1095767 0.04528,0.030415 0.105438,0.027582 0.105438,-0.00499 z m 0.225425,-0.036751 c -0.0094,-0.023407 -0.01632,-0.016456 -0.01772,0.017724 -0.0013,0.03093 0.0056,0.048262 0.01541,0.038511 0.0098,-0.00975 0.01079,-0.035057 0.0023,-0.056236 z m 2.070715,-0.02384 c -0.007,-0.072283 -0.0066,-0.072389 0.02106,-0.00737 0.03398,0.079757 0.195632,0.098939 0.16519,0.019607 -0.0098,-0.025527 -0.01912,-0.088241 -0.02073,-0.1393666 -0.0025,-0.079719 -0.0056,-0.083408 -0.02201,-0.025904 -0.01836,0.064497 -0.02084,0.064996 -0.06521,0.013098 -0.03045,-0.035613 -0.04182,-0.090888 -0.03344,-0.1625903 0.007,-0.059748 0.0034,-0.1580115 -0.0079,-0.2183631 l -0.02058,-0.1097303 -0.06087,0.073237 c -0.03781,0.045491 -0.05381,0.053785 -0.04224,0.021893 0.01024,-0.02824 0.0069,-0.051345 -0.0075,-0.051345 -0.04215,0 -0.117135,0.2627449 -0.136602,0.4786239 l -0.01803,0.1998929 0.127941,-0.00918 c 0.11672,-0.00838 0.127321,-0.015612 0.120874,-0.082531 z m 0.05108,0 c 0,-0.016136 0.0198,-0.029342 0.04401,-0.029342 0.02421,0 0.04401,0.013205 0.04401,0.029342 0,0.016136 -0.0198,0.029342 -0.04401,0.029342 -0.02421,0 -0.04401,-0.013205 -0.04401,-0.029342 z m 0.175286,-0.1320311 c -0.01953,-0.1722731 -0.02005,-0.1731097 -0.02427,-0.039076 -0.0037,0.1171749 0.01922,0.251117 0.03825,0.2237168 0.0033,-0.00475 -0.003,-0.087819 -0.01398,-0.1846421 z m -2.355577,0.022006 c -0.0074,-0.028237 -0.01342,-0.00516 -0.01342,0.051349 0,0.056482 0.0061,0.079585 0.01342,0.051349 0.0074,-0.028237 0.0074,-0.074452 0,-0.1026907 z m -0.321573,0.0923 c -0.0098,-0.00975 -0.03506,-0.010791 -0.05624,-0.00228 -0.02341,0.00937 -0.01646,0.016317 0.01772,0.017724 0.03093,0.00132 0.04826,-0.00565 0.03851,-0.015407 z m 2.811117,-0.2040602 c 0.0014,-0.0878 -0.0082,-0.1596355 -0.02129,-0.1596355 -0.01314,0 -0.02558,0.023105 -0.02764,0.051345 -0.002,0.02824 -0.0077,0.084353 -0.01259,0.1246958 -0.01061,0.08799 0.01427,0.1878871 0.04031,0.1618468 0.01024,-0.010243 0.01979,-0.090453 0.02122,-0.1782523 z m 0.189531,0.1484364 c 0,-0.029342 0.02934,-0.044013 0.08802,-0.044013 0.0908,0 0.109876,-0.038143 0.05868,-0.1173612 -0.02528,-0.039121 -0.02872,-0.039121 -0.03095,0 -0.0016,0.029083 -0.01052,0.024107 -0.02612,-0.014669 -0.02906,-0.072242 -0.0093,-0.1119102 0.04537,-0.090942 0.05715,0.021931 0.05189,0.00853 -0.03231,-0.082327 -0.0611,-0.065926 -0.07343,-0.070318 -0.0738,-0.026289 -3.93e-4,0.04532 -0.0048,0.046581 -0.03126,0.00885 -0.02516,-0.03594 -0.02824,-0.03325 -0.01678,0.014669 0.0077,0.032274 0.02297,0.111309 0.03389,0.1756328 l 0.01986,0.1169527 -0.06289,-0.056916 c -0.03683,-0.033328 -0.06095,-0.087875 -0.0582,-0.1316207 0.0083,-0.1314486 -7.86e-4,-0.1813115 -0.02967,-0.1634651 -0.03729,0.02305 -0.002,0.4049428 0.03994,0.4330586 0.05033,0.033681 0.07622,0.026354 0.07622,-0.021557 z m -3.198084,-0.00906 c 0,-0.01305 -0.01939,-0.049359 -0.04308,-0.080682 -0.04233,-0.055955 -0.0431,-0.055883 -0.04401,0.00418 -5.13e-4,0.033616 0.0079,0.069925 0.01863,0.080682 0.02706,0.027058 0.06846,0.024536 0.06846,-0.00418 z m 0.03428,-0.071079 c -0.02177,-0.02177 -0.02559,-0.010314 -0.01283,0.038487 0.01037,0.039674 0.02368,0.052978 0.031,0.030996 0.007,-0.021164 -0.0011,-0.052437 -0.01817,-0.069483 z m 0.571953,-5.315e-4 c -0.0081,-0.020173 -0.0148,-0.00368 -0.0148,0.036678 0,0.040345 0.0066,0.05685 0.0148,0.036678 0.0081,-0.020174 0.0081,-0.053183 0,-0.073347 z m 2.855909,-0.057967 c 0,-0.1108298 -0.01465,-0.099636 -0.03935,0.030085 -0.01153,0.060493 -0.0076,0.090114 0.01045,0.078955 0.01589,-0.00982 0.0289,-0.058889 0.0289,-0.109039 z m -3.589414,-7.232e-4 c -0.0081,-0.020171 -0.0148,-0.00367 -0.0148,0.036675 0,0.040345 0.0066,0.05685 0.0148,0.036678 0.0081,-0.020174 0.0081,-0.053183 0,-0.073351 z m 0.586804,0 c -0.0081,-0.020171 -0.0148,-0.00367 -0.0148,0.036675 0,0.040345 0.0066,0.05685 0.0148,0.036678 0.0081,-0.020174 0.0081,-0.053183 0,-0.073351 z m -0.676993,-0.043862 c -0.03205,-0.032051 -0.05403,0.018921 -0.03102,0.071936 0.02182,0.050268 0.0234,0.050227 0.03556,-0.00106 0.007,-0.029503 0.005,-0.06141 -0.0045,-0.070906 z m 0.478762,-0.078338 c 0.01652,-0.063176 0.01833,-0.1027854 0.004,-0.088021 -0.01432,0.014764 -0.03368,0.079657 -0.04302,0.1442053 -0.01925,0.1329167 -0.0052,0.112568 0.03901,-0.056185 z m -0.622684,0.065353 c -0.0094,-0.023406 -0.01632,-0.016453 -0.01773,0.017726 -0.0013,0.030929 0.0056,0.048258 0.01541,0.038509 0.0098,-0.00975 0.01079,-0.035056 0.0023,-0.056235 z m -0.08606,0.00315 c -0.0324,-0.018873 -0.05135,-0.065447 -0.05135,-0.1262482 0,-0.068544 -0.01348,-0.096343 -0.0467,-0.096343 -0.03615,0 -0.04276,0.019711 -0.02924,0.087305 0.01695,0.084732 0.08957,0.1650681 0.14929,0.1651515 0.01614,2.26e-5 0.0062,-0.013418 -0.02201,-0.029865 z m 0.418098,0.00235 c 0,-0.016136 -0.0132,-0.02934 -0.02934,-0.02934 -0.01614,0 -0.02934,0.013202 -0.02934,0.02934 0,0.016136 0.01321,0.02934 0.02934,0.02934 0.01614,0 0.02934,-0.013202 0.02934,-0.02934 z m 0.665817,-0.080127 c -0.0074,-0.028547 -0.01402,-0.012294 -0.01461,0.036117 -6e-4,0.048411 0.0055,0.071768 0.01353,0.051904 0.008,-0.019864 0.0085,-0.059473 0.0011,-0.08802 z m 2.142557,-0.088178 c -0.0067,-0.044599 -0.01244,-0.015074 -0.01266,0.065612 -2.05e-4,0.080686 0.0053,0.1171757 0.01226,0.081089 0.007,-0.036086 0.0071,-0.1021022 3.92e-4,-0.1467012 z m 0.800472,0.1078908 c 0,-0.031322 -0.01398,-0.056948 -0.03107,-0.056948 -0.01709,0 -0.02352,-0.012213 -0.0143,-0.027141 0.0092,-0.014928 7.86e-4,-0.062217 -0.01874,-0.1050869 -0.03411,-0.074865 -0.03641,-0.07553 -0.05812,-0.016835 -0.01244,0.03361 -0.01682,0.077598 -0.0097,0.097751 0.0582,0.1657661 0.07692,0.1992301 0.102572,0.1833777 0.01617,-0.00999 0.02939,-0.043795 0.02939,-0.075116 z m -3.031339,-0.00377 c -0.0094,-0.023406 -0.01632,-0.016453 -0.01772,0.017726 -0.0013,0.030929 0.0056,0.048259 0.01541,0.038509 0.0098,-0.00975 0.01079,-0.035056 0.0023,-0.056235 z M 5.6399671,9.175644 c -0.0081,-0.020171 -0.0148,-0.00367 -0.0148,0.036675 0,0.040343 0.0066,0.056847 0.0148,0.036675 0.0081,-0.020171 0.0081,-0.053179 0,-0.07335 z m 0.176942,-0.072792 c -0.0075,-0.028547 -0.01402,-0.012294 -0.01461,0.036117 -6.01e-4,0.048411 0.0055,0.071768 0.01353,0.051904 0.008,-0.019864 0.0085,-0.059473 0.0011,-0.088021 z m -0.919269,0.036117 c 0.0093,-0.024206 0.0041,-0.044011 -0.01154,-0.044011 -0.01563,0 -0.02842,0.019803 -0.02842,0.044011 0,0.024206 0.0052,0.044011 0.01154,0.044011 0.0063,0 0.01913,-0.019804 0.02842,-0.044011 z m 3.895279,-0.051834 c -0.02897,-0.028761 -0.03235,-0.025391 -0.01642,0.016426 0.01102,0.028936 0.02743,0.04522 0.03646,0.036186 0.009,-0.00903 1.9e-5,-0.032709 -0.02003,-0.052611 z M 4.4370171,9.028944 c -0.0081,-0.020171 -0.0148,-0.00367 -0.0148,0.036675 0,0.040343 0.0066,0.056847 0.0148,0.036675 0.0081,-0.020171 0.0081,-0.053179 0,-0.07335 z m 3.550166,0 c -0.0081,-0.020171 -0.0148,-0.00367 -0.0148,0.036675 0,0.040343 0.0066,0.056847 0.0148,0.036675 0.0081,-0.020171 0.0081,-0.053179 0,-0.07335 z m 1.16268,0.036675 c -0.0084,-0.032274 -0.02041,-0.05868 -0.02659,-0.05868 -0.0062,0 -0.01125,0.026406 -0.01125,0.05868 0,0.032275 0.01197,0.058681 0.02659,0.058681 0.01463,0 0.01969,-0.026406 0.01125,-0.058681 z M 4.7216671,8.978493 c -0.01615,-0.016149 -0.06825,0.059512 -0.06891,0.100068 -2.47e-4,0.015187 0.01827,0.00201 0.04116,-0.029295 0.02289,-0.031299 0.03538,-0.063147 0.02775,-0.070774 z m -0.327387,6.47e-4 c 0.007,-0.047559 0.0019,-0.079788 -0.01134,-0.071619 -0.02352,0.014538 -0.03505,0.1580896 -0.01269,0.1580896 0.0062,0 0.01705,-0.038912 0.02403,-0.086471 z m 4.586674,3.183e-4 c -0.0245,-0.047388 -0.05787,-0.094392 -0.07416,-0.1044533 -0.01628,-0.01006 -0.0019,0.028711 0.03203,0.08616 0.07431,0.1259486 0.104597,0.1391002 0.04212,0.018295 z m -3.683159,0.012809 c 0.02106,-0.025367 0.02391,-0.044011 0.0067,-0.044011 -0.01639,0 -0.03739,0.019804 -0.04668,0.044011 -0.0093,0.024206 -0.01232,0.044011 -0.0067,0.044011 0.0056,0 0.02659,-0.019806 0.04668,-0.044011 z m 3.436446,-0.022494 c -0.02897,-0.028761 -0.03235,-0.025391 -0.01642,0.016425 0.01102,0.028936 0.02743,0.04522 0.03646,0.036186 0.009,-0.00903 1.9e-5,-0.032709 -0.02003,-0.052611 z m 0.515186,0.00233 c -0.0094,-0.023406 -0.01632,-0.016453 -0.01772,0.017726 -0.0012,0.03093 0.0056,0.048259 0.01541,0.038509 0.0098,-0.00975 0.01079,-0.035056 0.0023,-0.056235 z m -4.929768,-0.060517 c -0.0081,-0.020171 -0.0148,-0.00367 -0.0148,0.036675 0,0.040343 0.0066,0.056847 0.0148,0.036675 0.0081,-0.020171 0.0081,-0.053179 0,-0.07335 z m 0.702191,0.032519 c 0.0557,-0.062614 0.05565,-0.062692 -0.01012,-0.022282 -0.03631,0.022304 -0.06602,0.050581 -0.06602,0.062836 0,0.035376 0.01634,0.026672 0.07614,-0.040554 z m 0.813911,0.026161 c -0.01263,-0.020171 -0.0235,-0.049878 -0.02414,-0.066016 -0.0071,-0.1776206 -0.24656,-0.4767692 -0.51937,-0.6489864 -0.06454,-0.040746 -0.110654,-0.080789 -0.102462,-0.088981 0.0082,-0.00819 0.04946,0.00775 0.09171,0.035432 0.105041,0.068825 0.128018,0.033768 0.02532,-0.038638 -0.08856,-0.06244 -0.539318,-0.3010948 -0.565397,-0.299349 -0.0087,5.777e-4 0.02385,0.033522 0.07226,0.073205 0.102909,0.084353 0.0682,0.095664 -0.05868,0.01912 -0.254513,-0.1535427 -0.180885,-0.047217 0.132032,0.1906664 0.18875,0.1434905 0.339969,0.2953099 0.31701,0.3182695 -0.0089,0.00887 -0.08634,-0.043806 -0.172149,-0.1170548 -0.08581,-0.073249 -0.171344,-0.1331797 -0.190069,-0.1331797 -0.01872,0 -0.100557,-0.072617 -0.181848,-0.1613709 -0.08129,-0.088754 -0.165008,-0.1613713 -0.186033,-0.1613713 -0.02361,0 -0.0176,0.015081 0.01573,0.039454 0.05115,0.037401 0.05029,0.040416 -0.0164,0.057932 -0.03869,0.010162 -0.07475,0.00561 -0.08013,-0.010113 -0.0054,-0.015725 -0.02959,-0.028591 -0.05379,-0.028591 -0.02421,0 -0.03823,0.016504 -0.03115,0.036675 0.0084,0.023907 0.05944,0.033701 0.146666,0.028131 0.07359,-0.0047 0.142301,0.00521 0.152686,0.022006 0.01038,0.016802 0.0034,0.030549 -0.01544,0.030549 -0.01888,0 -0.0031,0.027412 0.03494,0.060916 0.03809,0.033504 0.05286,0.052594 0.03282,0.042422 -0.02004,-0.010171 -0.05965,-0.00498 -0.08802,0.011541 -0.04721,0.027493 -0.04646,0.030112 0.0088,0.030928 0.07515,0.00111 0.188222,0.08669 0.141029,0.106741 -0.02165,0.0092 -0.01139,0.041225 0.02934,0.091605 0.08158,0.1009099 0.38124,0.407455 0.383569,0.3923801 0.0054,-0.035129 0.133829,0.037684 0.133829,0.07589 0,0.034146 0.0096,0.037648 0.0382,0.013921 0.03774,-0.031324 0.16718,-0.015369 0.16718,0.020607 0,0.010222 0.03631,0.020436 0.08068,0.022703 0.119957,0.00612 0.24151,0.029563 0.262578,0.050631 0.03154,0.031538 0.04286,0.020573 0.01867,-0.018075 z M 4.9603821,8.0680525 c -0.04784,-0.020557 -0.04951,-0.025597 -0.0091,-0.027278 0.02729,-0.00113 0.05777,0.011142 0.06775,0.027278 0.02085,0.033738 0.01983,0.033738 -0.05868,0 z m -0.102691,0.7775156 c 0,-0.00462 -0.0176,-0.015148 -0.03912,-0.023404 -0.02152,-0.00826 -0.03912,0.00228 -0.03912,0.023404 0,0.02113 0.0176,0.031661 0.03912,0.023404 0.02152,-0.00826 0.03912,-0.018789 0.03912,-0.023404 z m 3.711538,-0.044011 c -0.01,-0.016136 -0.03055,-0.02934 -0.04574,-0.02934 -0.01519,0 -0.02761,0.013202 -0.02761,0.02934 0,0.016136 0.02058,0.02934 0.04574,0.02934 0.02516,0 0.03758,-0.013202 0.02761,-0.02934 z m 0.13203,-0.08802 c 0,-0.016136 -0.01398,-0.02934 -0.03107,-0.02934 -0.01709,0 -0.02291,0.013202 -0.01294,0.02934 0.01,0.016136 0.02396,0.02934 0.03107,0.02934 0.0071,0 0.01294,-0.013202 0.01294,-0.02934 z M 4.3333101,8.6035114 c 0.0365,-0.046536 0.03546,-0.047573 -0.01108,-0.011077 -0.02824,0.022146 -0.05135,0.045253 -0.05135,0.051345 0,0.024148 0.02409,0.00861 0.06243,-0.040267 z m 4.48531,0.00907 c 0,-0.00711 -0.01321,-0.0211 -0.02934,-0.031072 -0.01614,-0.00997 -0.02934,-0.00415 -0.02934,0.012939 0,0.017089 0.0132,0.031072 0.02934,0.031072 0.01614,0 0.02934,-0.00582 0.02934,-0.012939 z m 0.07335,-0.1044221 c -0.01,-0.016136 -0.03386,-0.029138 -0.05308,-0.028891 -0.021,2.541e-4 -0.01738,0.011802 0.0091,0.028891 0.05637,0.036427 0.06652,0.036427 0.04401,0 z m -4.588001,-0.051345 c 0.0365,-0.046535 0.03546,-0.047573 -0.01108,-0.011077 -0.02824,0.022147 -0.05135,0.045253 -0.05135,0.051345 0,0.024148 0.02409,0.00861 0.06242,-0.040268 z m 1.316676,-0.02189 c -0.03784,-0.040279 -0.07625,-0.065782 -0.08536,-0.056674 -0.0091,0.00911 0.01625,0.041771 0.05635,0.072582 0.100221,0.077004 0.110831,0.071186 0.02901,-0.015908 z m -1.349762,-0.029459 c 0.0379,-0.040343 0.06231,-0.07335 0.05424,-0.07335 -0.0081,0 -0.04568,0.033008 -0.08358,0.07335 -0.0379,0.040343 -0.06231,0.07335 -0.05424,0.07335 0.0081,0 0.04568,-0.033008 0.08358,-0.07335 z m 5.134538,0.00512 c 0,-0.00526 -0.03631,-0.041564 -0.08068,-0.080686 l -0.08068,-0.07113 0.07113,0.080686 c 0.06648,0.075413 0.09024,0.094141 0.09024,0.07113 z M 4.2855571,8.3027742 c 0.02921,-0.032274 0.0465,-0.05868 0.03844,-0.05868 -0.0081,0 -0.03857,0.026406 -0.06777,0.05868 -0.02921,0.032274 -0.0465,0.05868 -0.03844,0.05868 0.0081,0 0.03857,-0.026406 0.06777,-0.05868 z m -0.08782,-0.029018 c -0.0085,-0.01373 0.01948,-0.052427 0.06216,-0.085994 0.04267,-0.033566 0.0626,-0.06103 0.04429,-0.06103 -0.01831,0 -0.03173,-0.0099 -0.02982,-0.022006 0.0019,-0.012103 0.0015,-0.048411 -9.82e-4,-0.080686 -0.0043,-0.055641 -0.0075,-0.055092 -0.06216,0.010585 -0.06483,0.077824 -0.0768,0.1363834 -0.02103,0.102875 0.02886,-0.017341 0.02915,-0.012733 0.0014,0.021627 -0.03862,0.047762 -0.04043,0.177918 -0.0021,0.154256 0.01305,-0.00806 0.01678,-0.025899 0.0083,-0.039628 z m -0.112799,-0.066338 c -0.0081,-0.020171 -0.0148,-0.00367 -0.0148,0.036675 0,0.040343 0.0066,0.056847 0.0148,0.036675 0.0081,-0.020171 0.0081,-0.053179 0,-0.07335 z m 5.42397,-0.046662 c -0.01084,-0.064148 -0.03786,-0.1409551 -0.06005,-0.1706835 -0.03362,-0.045045 -0.03348,-0.034495 8.09e-4,0.06331 0.02265,0.064548 0.04176,0.1492681 0.04247,0.1882664 7.15e-4,0.038998 0.0092,0.062993 0.01887,0.053323 0.0097,-0.00967 0.0087,-0.070067 -0.0021,-0.1342147 z m -0.118152,-0.00468 c -0.02921,-0.032275 -0.06757,-0.058387 -0.08523,-0.058028 -0.01767,3.465e-4 9.01e-4,0.026472 0.04122,0.058028 0.09451,0.073924 0.110912,0.073924 0.04401,0 z m -2.048445,-0.064186 c -0.0094,-0.023406 -0.01632,-0.016453 -0.01772,0.017726 -0.0013,0.03093 0.0056,0.048259 0.01541,0.038509 0.0098,-0.00975 0.01079,-0.035056 0.0023,-0.056235 z m 2.034648,-0.051545 c -0.04184,-0.078182 -0.08073,-0.097749 -0.106242,-0.053458 -0.01177,0.020435 -0.01057,0.027335 0.0027,0.015335 0.01324,-0.012001 0.04252,0.0045 0.06505,0.036675 0.0525,0.07496 0.07838,0.075932 0.03852,0.00146 z m -1.970847,-0.135047 c 0.01037,-0.016897 -0.0042,-0.00562 -0.03234,0.025061 -0.02816,0.030681 -0.04166,0.070913 -0.03003,0.089403 0.01352,0.021491 0.02519,0.012447 0.03234,-0.025061 0.0061,-0.032275 0.01966,-0.072506 0.03003,-0.089403 z M 4.1609971,7.7615011 c -0.0079,-0.04118 -0.02598,-0.076522 -0.04023,-0.078539 -0.01425,-0.00201 -0.04203,-0.00532 -0.06173,-0.00734 -0.0197,-0.00201 -0.05251,-0.036675 -0.07292,-0.077018 -0.02041,-0.040343 -0.0373,-0.064528 -0.03755,-0.053745 -2.37e-4,0.010783 -0.0093,0.042656 -0.02009,0.070829 -0.01382,0.036006 -0.009,0.044617 0.01633,0.028987 0.02735,-0.016906 0.03313,0.02039 0.02412,0.1556007 -0.0067,0.1008882 5.53e-4,0.1819741 0.01682,0.1873988 0.01578,0.00526 0.06488,-0.026634 0.10912,-0.070872 0.05868,-0.058682 0.07656,-0.1006828 0.06612,-0.1553056 z m 5.431215,0.043774 c 0.01182,-0.1181157 0.0086,-0.1788654 -0.0086,-0.1613711 -0.03069,0.031277 -0.04292,0.1245364 -0.03608,0.2750025 0.0066,0.1449191 0.02293,0.1033434 0.04465,-0.1136314 z m -5.211911,0.069009 c -0.0097,-0.00975 -0.03506,-0.01079 -0.05624,-0.00232 -0.02341,0.00937 -0.01646,0.016319 0.01773,0.017726 0.03093,0.00127 0.04826,-0.00566 0.03851,-0.015411 z m 5.078468,-0.2202265 c -0.0089,-0.093866 -0.0016,-0.1141297 0.04124,-0.1141297 0.02867,0 0.05212,-0.012516 0.05212,-0.027813 0,-0.03244 -0.167479,0.019563 -0.19229,0.059707 -0.0089,0.014362 0.0024,0.019018 0.02496,0.010344 0.03322,-0.012747 0.03724,0.00967 0.02097,0.1168455 -0.01309,0.086266 -0.009,0.1364686 0.01177,0.1436364 0.04141,0.014304 0.05475,-0.04675 0.04123,-0.1885887 z m -5.072101,0.074174 c -0.05561,-0.057805 -0.127517,-0.118185 -0.159792,-0.1341786 -0.03227,-0.015993 -0.0025,0.019249 0.06617,0.078317 0.06866,0.059068 0.117399,0.1194483 0.108295,0.1341784 -0.0091,0.01473 0.0066,0.026782 0.03494,0.026782 0.03987,0 0.02866,-0.023732 -0.04961,-0.1050992 z m 3.375705,-0.028439 c 0,-0.00807 -0.03961,0.00581 -0.08802,0.030847 -0.04841,0.025034 -0.08802,0.052119 -0.08802,0.060187 0,0.00807 0.03961,-0.00581 0.08802,-0.030847 0.04841,-0.025035 0.08802,-0.052119 0.08802,-0.060187 z m 0.249184,-0.012828 c 0.01028,-0.016631 -0.0015,-0.021551 -0.02761,-0.011532 -0.05083,0.019505 -0.06013,0.040535 -0.01792,0.040535 0.01519,0 0.03568,-0.013052 0.04554,-0.029004 z m -2.280607,-0.06635 c -0.02613,-0.020172 -0.0617,-0.091063 -0.07905,-0.1575375 -0.03185,-0.121981 -0.159405,-0.2361261 -0.341055,-0.3051893 -0.04003,-0.015218 -0.08478,-0.059241 -0.09945,-0.097829 -0.03005,-0.079034 -0.131191,-0.114687 -0.255474,-0.090054 -0.06622,0.013124 -0.118499,-0.00851 -0.251985,-0.1042708 -0.202329,-0.1451457 -0.222682,-0.1795088 -0.214184,-0.361601 0.0038,-0.083084 -0.0034,-0.1252295 -0.01767,-0.1026909 -0.04449,0.070142 -0.02589,-0.022659 0.0482,-0.240504 0.04035,-0.1186129 0.07182,-0.2364524 0.06995,-0.261866 -0.0027,-0.036635 -0.0062,-0.03557 -0.01683,0.00514 -0.0074,0.02824 -0.02441,0.051345 -0.03786,0.051345 -0.01344,0 -0.01754,-0.026406 -0.0091,-0.058681 0.0084,-0.032274 0.02701,-0.05868 0.04126,-0.05868 0.01425,0 0.02592,-0.013983 0.02592,-0.031072 0,-0.017089 -0.01208,-0.023609 -0.02684,-0.014487 -0.01476,0.00912 -0.03352,-1.6e-6 -0.0417,-0.020273 -0.0095,-0.023614 -0.01569,-0.019637 -0.01718,0.011065 -0.0013,0.026358 -0.02872,0.054829 -0.061,0.063269 -0.0478,0.0125 -0.05868,0.04002 -0.05868,0.1483915 0,0.073175 0.0132,0.1412063 0.02934,0.1511794 0.01614,0.00997 0.02934,0.051141 0.02934,0.091484 0,0.040863 -0.01285,0.065411 -0.02901,0.055425 -0.01668,-0.01031 -0.02152,0.00157 -0.01139,0.027982 0.0097,0.025249 0.0045,0.062244 -0.01161,0.082209 -0.01608,0.019966 -0.02965,0.1103439 -0.03018,0.20084 -9e-4,0.1578072 0.0041,0.168663 0.121303,0.2653749 0.06724,0.05546 0.16846,0.1306815 0.22494,0.1671587 l 0.102691,0.066321 -0.08671,-0.067635 c -0.04769,-0.037202 -0.140112,-0.1182063 -0.205383,-0.1800131 -0.104708,-0.099152 -0.09875,-0.096615 0.05063,0.021559 0.09311,0.073664 0.208641,0.1542784 0.256726,0.1791442 0.08991,0.046494 0.121951,0.09257 0.04342,0.062433 -0.08982,-0.034467 -0.03811,0.00799 0.17875,0.1467804 0.345813,0.2213134 0.842565,0.4809123 0.679838,0.3552787 z M 4.4469281,6.1058505 c 0,-0.014161 0.0198,-0.042184 0.04401,-0.062273 0.04777,-0.039647 0.05374,-0.030164 0.0262,0.041611 -0.01886,0.049129 -0.07021,0.064244 -0.07021,0.020663 z m 5.186048,1.2648784 c 0.0063,-0.018791 -0.0139,-0.025177 -0.04983,-0.015781 -0.03564,0.00932 -0.06035,0.00166 -0.06035,-0.018711 0,-0.018972 0.01229,-0.026897 0.02731,-0.017613 0.01502,0.00928 0.03648,0.00205 0.04768,-0.016072 0.01442,-0.023334 0.02755,-0.021334 0.04498,0.00686 0.01989,0.032167 0.03467,0.029159 0.07701,-0.01567 0.02883,-0.030513 0.0359,-0.046238 0.01573,-0.034944 -0.02216,0.012412 -0.03668,0.00313 -0.03668,-0.023475 0,-0.054269 0.05833,-0.095267 0.05958,-0.04187 0.002,0.083699 0.05108,-0.054068 0.07002,-0.196315 0.01461,-0.1097558 0.01144,-0.1356175 -0.0126,-0.1026906 -0.0268,0.036713 -0.03036,0.03428 -0.02147,-0.014669 0.0059,-0.032275 0.02557,-0.055648 0.0438,-0.051941 0.05522,0.011227 0.07433,-0.1053528 0.02531,-0.1543796 -0.02481,-0.024804 -0.0365,-0.066332 -0.02622,-0.09312 0.01637,-0.042658 0.02116,-0.041694 0.0407,0.00819 0.0136,0.034703 0.02249,-0.017114 0.02303,-0.1341759 6.07e-4,-0.1338871 -0.01845,-0.2350124 -0.06397,-0.3393791 -0.07966,-0.1826423 -0.267763,-0.4162355 -0.297039,-0.3688655 -0.01142,0.018482 -0.0035,0.033482 0.01776,0.033562 0.02112,7.93e-5 0.0039,0.029787 -0.03818,0.066015 -0.0753,0.064761 -0.0762,0.070068 -0.05368,0.3152617 0.0126,0.1371655 0.02396,0.4833214 0.02524,0.7692353 l 0.0023,0.5198431 0.06451,-0.023862 c 0.03548,-0.013124 0.06924,-0.038065 0.07503,-0.055427 z m -0.09037,-0.4577422 c -0.01247,-0.046282 -0.01542,-0.091392 -0.0065,-0.1002458 0.0089,-0.00885 0.0163,0.0026 0.01655,0.025467 3.69e-4,0.034506 0.0047,0.034804 0.02567,0.00175 0.01759,-0.027751 0.03131,-0.029972 0.04529,-0.00734 0.01104,0.017861 0.007,0.032473 -0.009,0.032473 -0.01597,0 -0.03359,0.029707 -0.03917,0.066015 -0.0092,0.060026 -0.01219,0.05838 -0.0328,-0.018133 z m -0.0088,-0.7364103 c -0.0091,-0.023673 -0.0097,-0.059982 -0.0014,-0.080686 0.0083,-0.020705 0.01616,-0.00716 0.01744,0.030104 0.0015,0.043393 0.01449,0.060221 0.03619,0.046812 0.02098,-0.012971 0.02591,-0.00805 0.01293,0.012939 -0.02789,0.045138 -0.04527,0.042694 -0.06517,-0.00917 z m -0.02322,-0.1584013 c -0.01264,-0.02045 -0.01506,-0.045106 -0.0054,-0.05479 0.02626,-0.026258 0.05489,0.012361 0.04071,0.054909 -0.0099,0.029814 -0.01685,0.029792 -0.03533,-1.174e-4 z m -0.658882,0.9422843 c 0.0365,-0.046536 0.03546,-0.047573 -0.01108,-0.011079 -0.02824,0.022146 -0.05135,0.045253 -0.05135,0.051345 0,0.024148 0.02409,0.00861 0.06243,-0.040267 z m 0.388876,-0.023529 c 0.01002,-0.026111 0.0051,-0.037888 -0.01154,-0.027609 -0.01595,0.00986 -0.02901,0.03035 -0.02901,0.045534 0,0.042204 0.02103,0.032904 0.04053,-0.017925 z m -0.01119,-0.086497 c 0.0379,-0.040343 0.06231,-0.07335 0.05424,-0.07335 -0.0081,0 -0.04567,0.033008 -0.08358,0.07335 -0.0379,0.040343 -0.06231,0.07335 -0.05424,0.07335 0.0081,0 0.04567,-0.033008 0.08358,-0.07335 z m 2e-6,-0.2347271 c 0.0236,-0.084303 0.03017,-0.1954762 0.01781,-0.3014929 -0.01077,-0.09237 -0.02249,-0.2658437 -0.02603,-0.3854977 -0.0044,-0.1485415 -0.01831,-0.219974 -0.04385,-0.2251861 -0.02057,-0.0042 -0.02407,-9.906e-4 -0.0078,0.00714 0.01861,0.00927 0.01304,0.046857 -0.01494,0.1009688 -0.03991,0.077178 -0.03986,0.1000756 4.38e-4,0.2187771 0.05093,0.1500175 0.06043,0.5555999 0.01576,0.6730879 -0.01609,0.042316 -0.0179,0.069922 -0.004,0.061346 0.01388,-0.00857 0.04206,-0.075688 0.06261,-0.149139 z m -0.08084,0.029345 c 0.0077,-0.040343 0.0026,-0.07335 -0.01125,-0.07335 -0.0139,0 -0.02527,0.033007 -0.02527,0.07335 0,0.040343 0.0051,0.07335 0.01125,0.07335 0.0062,0 0.01756,-0.033008 0.02527,-0.07335 z m -4.828894,-0.080685 c -0.0081,-0.020171 -0.0148,-0.00367 -0.0148,0.036675 0,0.040343 0.0066,0.056847 0.0148,0.036675 0.0081,-0.020171 0.0081,-0.053179 0,-0.07335 z m 4.842455,-0.2050392 c -0.007,-0.036497 -0.01303,-0.013545 -0.01335,0.051003 -3.23e-4,0.064548 0.0054,0.094409 0.01276,0.066358 0.0074,-0.028052 0.0076,-0.080864 6.01e-4,-0.1173607 z M 4.3217101,6.0362424 c -0.0061,-0.068583 -0.01123,-0.01247 -0.01123,0.124696 0,0.1371656 0.0051,0.1932787 0.01123,0.1246958 0.0062,-0.068583 0.0062,-0.1808089 0,-0.2493918 z m 5.6908519,0.1619297 c -0.0075,-0.028547 -0.01402,-0.012294 -0.01461,0.036117 -6.01e-4,0.048411 0.0055,0.071768 0.01352,0.051904 0.008,-0.019864 0.0085,-0.059473 0.0011,-0.088021 z M 4.5911171,6.1315981 c -0.0011,-0.029019 -0.0102,-0.024022 -0.02683,0.014669 -0.03466,0.080659 -0.03466,0.1269835 0,0.07335 0.01565,-0.024206 0.02771,-0.063815 0.02683,-0.088021 z m 4.480083,-0.1653337 c -0.04263,-0.1251038 -0.04231,-0.1325867 0.005,-0.1161514 0.03995,0.013891 0.03824,0.00757 -0.0082,-0.030182 -0.05798,-0.047179 -0.05789,-0.047563 0.0074,-0.032159 0.03631,0.00857 0.06602,0.00363 0.06602,-0.011002 0,-0.041913 -0.106516,-0.031002 -0.144533,0.014804 -0.02414,0.029086 -0.02498,0.047196 -0.0028,0.060893 0.01735,0.010723 0.02881,0.035003 0.02548,0.053958 -0.0034,0.018954 0.01262,0.093877 0.03545,0.1664939 0.02508,0.079751 0.04554,0.1112497 0.05167,0.079548 0.0056,-0.028866 -0.01035,-0.1126565 -0.03541,-0.1862015 z m -5.015603,0.099318 c -0.0081,-0.020171 -0.0148,-0.00367 -0.0148,0.036675 0,0.040343 0.0066,0.056847 0.0148,0.036675 0.0081,-0.020171 0.0081,-0.053179 0,-0.07335 z m 0.587415,-0.1155271 c -0.0094,-0.023406 -0.01632,-0.016453 -0.01773,0.017726 -0.0013,0.03093 0.0056,0.048259 0.01541,0.038509 0.0098,-0.00975 0.01079,-0.035056 0.0023,-0.056235 z M 9.8732771,5.6866986 C 9.7687421,5.4777669 9.7031131,5.3919802 9.6655651,5.4151863 c -0.01398,0.00864 -0.02615,-0.00157 -0.02704,-0.022697 -9.01e-4,-0.021124 -0.03958,-0.068348 -0.08596,-0.1049427 l -0.08433,-0.066535 0.01665,0.1692266 c 0.02119,0.215305 0.03659,0.2331345 0.04268,0.049421 l 0.0047,-0.144256 0.01977,0.1613711 0.01978,0.1613713 0.0068,-0.1320309 0.0068,-0.1320311 0.0362,0.1342752 c 0.02555,0.094778 0.07675,0.1731309 0.174061,0.2663675 0.08272,0.079264 0.139617,0.1605055 0.142256,0.2031373 0.0042,0.067416 0.005,0.067053 0.01637,-0.0071 0.0075,-0.048645 -0.02314,-0.1483334 -0.08104,-0.2640619 z M 9.7416311,5.5428419 c -0.01063,-0.017211 -0.01305,-0.037585 -0.0053,-0.045275 0.0077,-0.00769 0.0218,0.00639 0.03136,0.031292 0.01984,0.051701 0.0029,0.060795 -0.026,0.013983 z m -5.686034,0.3466996 c -0.0081,-0.020171 -0.0148,-0.00367 -0.0148,0.036675 0,0.040343 0.0066,0.056847 0.0148,0.036675 0.0081,-0.020171 0.0081,-0.053179 0,-0.07335 z m 1.388898,0.036675 c 0,-0.016136 -0.01398,-0.02934 -0.03107,-0.02934 -0.01709,0 -0.02291,0.013202 -0.01293,0.02934 0.01,0.016136 0.02395,0.02934 0.03107,0.02934 0.0071,0 0.01294,-0.013202 0.01294,-0.02934 z m 0.205382,-0.02934 c 0,-0.016136 -0.01398,-0.02934 -0.03107,-0.02934 -0.01709,0 -0.02292,0.013202 -0.01293,0.02934 0.01,0.016136 0.02395,0.02934 0.03107,0.02934 0.0071,0 0.01294,-0.013202 0.01294,-0.02934 z m 3.804319,-0.1833761 c -0.0081,-0.020171 -0.0148,-0.00367 -0.0148,0.036675 0,0.040343 0.0066,0.056847 0.0148,0.036675 0.0081,-0.020171 0.0081,-0.053179 0,-0.07335 z m -5.418031,-0.038407 c 0,-0.023253 -0.01321,-0.042279 -0.02934,-0.042279 -0.01614,0 -0.02934,0.027186 -0.02934,0.060412 0,0.033227 0.01321,0.052252 0.02934,0.042279 0.01614,-0.00998 0.02934,-0.037159 0.02934,-0.060412 z m 0.06192,-0.1094548 c -0.01738,-0.017383 -0.04172,-0.020772 -0.0541,-0.00754 -0.01237,0.013237 -0.006,0.02996 0.01418,0.037165 0.02017,0.0072 0.03821,0.035103 0.04007,0.061999 0.0028,0.039957 0.006,0.03894 0.01742,-0.00556 0.0077,-0.029954 -2.02e-4,-0.068683 -0.01759,-0.086064 z m 0.664591,0.1056974 c -0.02805,-0.00734 -0.08086,-0.00761 -0.117361,-6.008e-4 -0.0365,0.00702 -0.01355,0.013027 0.051,0.013353 0.06455,3.236e-4 0.09441,-0.00542 0.06635,-0.012761 z m 4.818792,-0.00918 c 0,-0.016136 -0.01321,-0.02934 -0.02934,-0.02934 -0.01614,0 -0.02934,0.013202 -0.02934,0.02934 0,0.016136 0.0132,0.02934 0.02934,0.02934 0.01614,0 0.02934,-0.013202 0.02934,-0.02934 z M 8.6264431,5.576222 c 0.341162,-0.00162 0.430813,-0.00991 0.403428,-0.037296 -0.01936,-0.019365 -0.03512,-0.049072 -0.03502,-0.066016 1.18e-4,-0.016943 0.02495,0.00675 0.05523,0.052665 0.07564,0.1147244 0.101057,0.056013 0.06356,-0.1468157 -0.01694,-0.091654 -0.02615,-0.171304 -0.02045,-0.177 0.0057,-0.0057 0.03368,0.052653 0.06219,0.1296636 0.02851,0.077012 0.07168,0.1558897 0.09594,0.1752858 0.02426,0.019395 0.03626,0.055705 0.02668,0.080686 -0.01082,0.028198 -0.0012,0.04542 0.02534,0.04542 0.07561,0 0.02341,-0.4915562 -0.08797,-0.828423 -0.05194,-0.1570959 -0.101414,-0.2786551 -0.109938,-0.2701315 -0.0085,0.00852 -0.02358,-0.00556 -0.03346,-0.031302 -0.01041,-0.027109 -0.0057,-0.039257 0.01104,-0.028874 0.05918,0.03657 0.02569,-0.013536 -0.08836,-0.1322387 -0.06924,-0.072071 -0.117361,-0.15053 -0.117361,-0.191374 0,-0.038073 -0.01305,-0.077291 -0.02901,-0.08715 -0.01694,-0.010467 -0.0221,0.00408 -0.01241,0.034944 0.0094,0.029962 -0.02382,0.00837 -0.07669,-0.049822 l -0.09327,-0.1026907 0.04585,0.091646 c 0.02522,0.050405 0.06577,0.1871955 0.09012,0.3039782 0.02435,0.1167828 0.05971,0.2309262 0.07856,0.253652 0.02666,0.032123 0.02359,0.053139 -0.01377,0.094425 -0.02644,0.029208 -0.04806,0.075171 -0.04806,0.1021404 0,0.026969 -0.01361,0.049035 -0.03023,0.049035 -0.01662,0 -0.116699,0.073359 -0.222392,0.1630214 -0.154895,0.1314023 -0.20025,0.156314 -0.233837,0.1284386 -0.06952,-0.057696 -0.04954,-0.093681 0.152151,-0.2740461 0.18406,-0.1645972 0.192969,-0.178591 0.177444,-0.2787321 -0.01604,-0.1034488 -0.01556,-0.104053 0.02521,-0.032084 0.05962,0.105238 0.05324,0.018279 -0.01505,-0.2053815 -0.03203,-0.1048913 -0.05846,-0.2171176 -0.05874,-0.2493918 -2.93e-4,-0.032274 -0.03176,-0.1257851 -0.06995,-0.2078018 -0.06126,-0.1315647 -0.0976,-0.1656299 -0.30861,-0.2893386 -0.389529,-0.2283655 -0.986622,-0.4172443 -1.240094,-0.3922797 -0.08739,0.00861 -0.09376,0.016933 -0.09682,0.1265744 -0.0018,0.064549 -0.0088,0.2625949 -0.01544,0.4401033 l -0.01216,0.3227424 -0.01728,-0.396093 C 6.8360391,3.3116212 6.8352531,3.3078366 6.8252971,3.5643294 l -0.01025,0.2640619 -0.02134,-0.2453234 C 6.7819671,3.4481401 6.7597971,3.3293122 6.7444371,3.319006 6.7290771,3.3087 6.7079871,3.277162 6.6975671,3.248922 c -0.0489,-0.1325376 -0.781881,0.00191 -1.172266,0.215017 -0.06044,0.032998 -0.1252,0.050541 -0.143899,0.038985 -0.02266,-0.014007 -0.02599,-0.00806 -0.01,0.017848 0.01741,0.028159 0.01067,0.033738 -0.02445,0.020259 -0.02798,-0.010738 -0.04552,-0.00509 -0.04149,0.013351 0.0038,0.017573 -0.01136,0.038616 -0.03378,0.046761 -0.02804,0.010189 -0.03344,0.00218 -0.0173,-0.025673 0.01385,-0.0239 0.01252,-0.030467 -0.0033,-0.016032 -0.01469,0.013448 -0.02701,0.039854 -0.02737,0.058681 -3.61e-4,0.018827 -0.0217,0.030755 -0.04743,0.026508 -0.0537,-0.00887 -0.122449,0.063031 -0.128961,0.134866 -0.0059,0.065345 -0.07458,0.3895876 -0.09422,0.4449905 -0.0086,0.024206 -0.0183,0.063815 -0.02159,0.088021 -0.0033,0.024206 -0.01565,0.1115078 -0.02747,0.1940049 l -0.02148,0.1499945 0.22107,0.1986413 0.221069,0.1986413 -0.002,0.2471627 c -0.0011,0.1359395 0.0031,0.2523247 0.0094,0.2586341 0.0063,0.00631 0.129892,0.020326 0.274627,0.031147 l 0.263161,0.019674 0.171272,-0.2191618 c 0.149352,-0.1911103 0.187844,-0.2229538 0.300738,-0.2487876 0.155621,-0.035611 0.17547,-0.00103 0.02167,0.037744 -0.131564,0.033172 -0.17268,0.1065617 -0.0486,0.086742 0.04568,-0.00729 0.144333,-0.020976 0.219241,-0.030401 0.169908,-0.021378 0.16761,-0.011556 0.152931,-0.6536982 -0.0061,-0.2697151 5.54e-4,-0.5696096 0.01496,-0.6664324 0.0218,-0.1466651 0.02781,-0.083017 0.03603,0.3814229 l 0.0099,0.5574641 0.01572,-0.5134538 0.01573,-0.5134539 0.0227,0.3227425 c 0.01248,0.1775083 0.02948,0.4211607 0.03777,0.5414498 0.01595,0.2313195 0.04221,0.3184381 0.04221,0.1399967 0,-0.1700452 0.04333,-0.1484475 0.05098,0.025411 0.005,0.1131282 -0.0034,0.1563739 -0.02934,0.1512229 -0.0224,-0.00445 -0.03881,0.032136 -0.04285,0.095477 -0.0052,0.081921 -0.0011,0.090822 0.01994,0.044011 0.02317,-0.051341 0.02674,-0.052167 0.02854,-0.00661 0.0029,0.071641 0.118567,0.1092996 0.335895,0.1092996 0.198679,0 0.223917,0.016506 0.405374,0.2651147 l 0.07572,0.1037431 0.230686,-0.020971 c 0.126877,-0.011536 0.428072,-0.021911 0.669322,-0.023059 z m 0.04548,-0.1774536 c 0,-0.012745 0.0264,-0.030076 0.05868,-0.038516 0.03227,-0.00844 0.05868,-0.00492 0.05868,0.00783 0,0.012745 -0.0264,0.030077 -0.05868,0.038516 -0.03227,0.00844 -0.05868,0.00492 -0.05868,-0.00783 z m 0.190712,-6.747e-4 c -0.01,-0.016137 0.0025,-0.02934 0.02761,-0.02934 0.02516,0 0.04574,0.013203 0.04574,0.02934 0,0.016137 -0.01242,0.02934 -0.02761,0.02934 -0.01519,0 -0.03577,-0.013203 -0.04574,-0.02934 z m -0.550132,-0.019432 c 0.02017,-0.00814 0.05318,-0.00814 0.07335,0 0.02017,0.00814 0.0037,0.014799 -0.03668,0.014799 -0.04034,0 -0.05685,-0.00666 -0.03668,-0.014799 z M 6.4796041,5.0855479 c -0.06294,-0.025505 0.06179,-0.1324752 0.126736,-0.1086918 0.05313,0.019456 0.05299,0.017207 -0.0029,-0.047388 l -0.05868,-0.067812 0.06601,0.040554 c 0.03631,0.022305 0.06582,0.047281 0.06557,0.055502 -0.0013,0.0448 -0.05164,0.083432 -0.10267,0.078854 -0.03294,-0.00296 -0.05506,0.010711 -0.05091,0.031449 0.004,0.020172 0.004,0.035633 0,0.034359 -0.004,-0.00128 -0.02345,-0.00885 -0.04315,-0.016827 z m -0.310105,-0.098218 c -0.0084,-0.032275 -0.0049,-0.058681 0.0079,-0.058681 0.01274,0 0.03008,0.026406 0.03852,0.058681 0.0084,0.032274 0.0049,0.05868 -0.0079,0.05868 -0.01275,0 -0.03008,-0.026406 -0.03852,-0.05868 z m -0.783684,-0.07335 c 0,-0.024206 0.01398,-0.044011 0.03107,-0.044011 0.01709,0 0.02292,0.013203 0.01294,0.02934 -0.01,0.016137 -0.0042,0.02934 0.01294,0.02934 0.01709,0 0.03107,-0.022445 0.03107,-0.049878 0,-0.036624 0.0087,-0.041202 0.03265,-0.017226 0.01795,0.017958 0.02378,0.047005 0.01293,0.064548 -0.02956,0.047835 -0.133611,0.038401 -0.133611,-0.012113 z m 0.968227,-0.07335 c 0,-0.016137 0.01242,-0.02934 0.02761,-0.02934 0.01519,0 0.03577,0.013203 0.04574,0.02934 0.01,0.016137 -0.0025,0.02934 -0.02761,0.02934 -0.02516,0 -0.04574,-0.013203 -0.04574,-0.02934 z m -0.249184,-0.029005 c -0.01028,-0.016632 0.0015,-0.021551 0.02761,-0.011531 0.05083,0.019506 0.06013,0.040535 0.01793,0.040535 -0.01519,0 -0.03568,-0.013052 -0.04554,-0.029004 z m 0.307864,-0.015006 c -0.05047,-0.028852 -0.05845,-0.042255 -0.0256,-0.042971 0.02626,-5.707e-4 0.06419,0.018764 0.08428,0.042971 0.04467,0.053825 0.03547,0.053825 -0.05868,0 z m 0.44242,-0.6185898 c 0.0014,-0.03418 0.0084,-0.041132 0.01772,-0.017726 0.0085,0.02118 0.0075,0.046486 -0.0023,0.056235 -0.0098,0.00975 -0.01669,-0.00758 -0.01541,-0.038509 z m 0.195119,1.4077191 c -0.0098,-0.00975 -0.03506,-0.010793 -0.05624,-0.00232 -0.02341,0.00937 -0.01646,0.016319 0.01772,0.017726 0.03093,0.00127 0.04826,-0.00566 0.03851,-0.015411 z M 4.0358891,5.4274331 c 0.0072,0.086346 0.01181,0.077007 0.02906,-0.05868 0.01128,-0.088754 0.01759,-0.1653007 0.01403,-0.1701034 -0.0036,-0.00481 -0.02786,0.012644 -0.05399,0.038771 -0.03299,0.032994 -0.04616,0.093911 -0.0431,0.1994436 l 0.0044,0.1519403 0.02053,-0.132031 c 0.02012,-0.1294181 0.0207,-0.1299987 0.02906,-0.02934 z m 1.224598,-0.1687063 c -0.0063,-0.060514 -0.01151,-0.011002 -0.01151,0.1100258 0,0.1210284 0.0052,0.1705401 0.01151,0.1100259 0.0063,-0.060514 0.0063,-0.1595375 0,-0.2200517 z m 4.136348,0.132373 c -0.007,-0.036497 -0.01302,-0.013545 -0.01335,0.051003 -3.23e-4,0.064548 0.0054,0.09441 0.01276,0.066358 0.0074,-0.028052 0.0076,-0.080864 6.01e-4,-0.117361 z m -4.196359,-0.027849 c -0.0094,-0.023406 -0.01632,-0.016453 -0.01773,0.017726 -0.0013,0.03093 0.0056,0.048259 0.01541,0.038509 0.0098,-0.00975 0.01079,-0.035056 0.0023,-0.056235 z m 2.187808,-0.01393 c -0.02017,-0.00814 -0.05318,-0.00814 -0.07335,0 -0.02017,0.00814 -0.0037,0.014799 0.03668,0.014799 0.04035,0 0.05685,-0.00666 0.03668,-0.014799 z m -0.718493,-0.030068 c -0.02805,-0.00734 -0.08086,-0.00761 -0.117361,-5.915e-4 -0.0365,0.00702 -0.01354,0.013026 0.051,0.013352 0.06455,3.258e-4 0.09441,-0.00542 0.06635,-0.01276 z m 0.410421,-6.46e-5 c -0.02824,-0.00738 -0.07445,-0.00738 -0.10269,0 -0.02824,0.00738 -0.0052,0.013418 0.05135,0.013418 0.05648,0 0.07959,-0.00604 0.05135,-0.013418 z M 6.7851371,4.9952233 c -0.0074,-0.028547 -0.01402,-0.012294 -0.01461,0.036117 -6e-4,0.048411 0.0055,0.071768 0.01352,0.051904 0.008,-0.019864 0.0085,-0.059473 0.0011,-0.088021 z m 1.754751,-0.00789 c 0.02921,-0.032275 0.0465,-0.058681 0.03844,-0.058681 -0.0081,0 -0.03857,0.026406 -0.06777,0.058681 -0.02921,0.032274 -0.0465,0.05868 -0.03844,0.05868 0.0081,0 0.03857,-0.026406 0.06777,-0.05868 z m -3.388795,-0.010126 c 0,-0.00557 -0.02971,-0.035274 -0.06602,-0.066015 l -0.06602,-0.055892 0.05589,0.066016 c 0.05253,0.062038 0.07614,0.079372 0.07614,0.055893 z m 3.359455,-0.048558 c 0.02921,-0.032274 0.0465,-0.05868 0.03844,-0.05868 -0.0081,0 -0.03857,0.026406 -0.06777,0.05868 -0.02921,0.032275 -0.0465,0.058681 -0.03844,0.058681 0.0081,0 0.03857,-0.026406 0.06778,-0.058681 z M 4.7603731,4.629746 c -0.0094,-0.023406 -0.01632,-0.016453 -0.01773,0.017726 -0.0013,0.03093 0.0056,0.048259 0.01541,0.038509 0.0098,-0.00975 0.01079,-0.035056 0.0023,-0.056235 z m 0.08741,-0.089854 c -0.0081,-0.020171 -0.0148,-0.00367 -0.0148,0.036675 0,0.040343 0.0066,0.056847 0.0148,0.036675 0.0081,-0.020172 0.0081,-0.053179 0,-0.07335 z m 0.03066,-0.2343801 c -0.007,-0.036497 -0.01303,-0.013545 -0.01335,0.051003 -3.26e-4,0.064548 0.0054,0.094409 0.01276,0.066358 0.0074,-0.028052 0.0076,-0.080864 5.91e-4,-0.1173609 z m 3.872199,0.089512 c -0.0094,-0.023406 -0.01632,-0.016453 -0.01772,0.017726 -0.0013,0.03093 0.0056,0.048259 0.01541,0.038509 0.0098,-0.00975 0.01079,-0.035056 0.0023,-0.056235 z m 0.229349,-0.1411995 c -0.02504,-0.048411 -0.05212,-0.088021 -0.06019,-0.088021 -0.0081,0 0.0058,0.039609 0.03085,0.088021 0.02504,0.048411 0.05212,0.088021 0.06019,0.088021 0.0081,0 -0.0058,-0.039609 -0.03085,-0.088021 z m -0.25869,-0.0055 c -0.0094,-0.023406 -0.01632,-0.016453 -0.01772,0.017726 -0.0012,0.03093 0.0056,0.048259 0.01541,0.038509 0.0098,-0.00975 0.01079,-0.035056 0.0023,-0.056235 z M 4.9064621,4.1291285 c -0.0081,-0.020172 -0.0148,-0.00367 -0.0148,0.036675 0,0.040343 0.0066,0.056847 0.0148,0.036675 0.0081,-0.020171 0.0081,-0.053179 0,-0.07335 z m 0.02995,-0.1448673 c -0.0094,-0.023406 -0.01632,-0.016453 -0.01772,0.017726 -0.0013,0.03093 0.0056,0.048259 0.01541,0.038509 0.0098,-0.00975 0.01079,-0.035056 0.0023,-0.056235 z m 3.802073,-0.036381 c 0.04023,0.03333 0.03452,0.021165 -0.01482,-0.031561 -0.06295,-0.067264 -0.08798,-0.078104 -0.115894,-0.050186 -0.02413,0.024125 -0.02514,0.035608 -0.0031,0.035608 0.01788,0 0.02674,0.029651 0.01971,0.066015 -0.01217,0.062964 -0.01133,0.062777 0.01797,-0.00404 0.03019,-0.068867 0.03184,-0.069137 0.09618,-0.01583 z m -0.213265,-0.233257 c 0,-0.00609 -0.0231,-0.029198 -0.05135,-0.051345 -0.04653,-0.036495 -0.04757,-0.035458 -0.01108,0.011078 0.03833,0.048874 0.06243,0.064416 0.06243,0.040268 z M 6.8234861,3.2122468 c 0,-0.024206 -0.02033,-0.044011 -0.04517,-0.044011 -0.03732,0 -0.03859,0.00746 -0.0074,0.042894 0.04809,0.054529 0.0525,0.054623 0.0525,0.00111 z m -0.594751,-0.032396 c -0.0098,-0.00975 -0.03506,-0.010792 -0.05624,-0.00232 -0.02341,0.00937 -0.01646,0.016318 0.01772,0.017726 0.03093,0.00128 0.04826,-0.00566 0.03851,-0.01541 z m 0.176041,-0.02934 c -0.0098,-0.00975 -0.03506,-0.010792 -0.05624,-0.00232 -0.02341,0.00937 -0.01646,0.016318 0.01772,0.017726 0.03093,0.00128 0.04826,-0.00566 0.03851,-0.01541 z m 0.221221,-0.00152 c -0.01986,-0.00804 -0.05947,-0.00853 -0.08802,-0.00109 -0.02855,0.00744 -0.0123,0.014015 0.03612,0.014613 0.04841,5.98e-4 0.07177,-0.00549 0.05191,-0.013526 z m 0.365583,0.00152 c -0.0098,-0.00975 -0.03506,-0.010792 -0.05624,-0.00232 -0.02341,0.00937 -0.01646,0.016318 0.01772,0.017726 0.03093,0.00128 0.04826,-0.00566 0.03851,-0.01541 z"
     style="opacity:1;fill:#000000;fill-opacity:0.49803922;stroke-width:0.02934021" />
</svg>
