<?xml version="1.0" encoding="UTF-8" standalone="no"?>
<!-- Created with Inkscape (http://www.inkscape.org/) -->

<svg
   xmlns:dc="http://purl.org/dc/elements/1.1/"
   xmlns:cc="http://creativecommons.org/ns#"
   xmlns:rdf="http://www.w3.org/1999/02/22-rdf-syntax-ns#"
   xmlns:svg="http://www.w3.org/2000/svg"
   xmlns="http://www.w3.org/2000/svg"
   xmlns:xlink="http://www.w3.org/1999/xlink"
   xmlns:sodipodi="http://sodipodi.sourceforge.net/DTD/sodipodi-0.dtd"
   xmlns:inkscape="http://www.inkscape.org/namespaces/inkscape"
   width="48"
   height="48"
   id="svg4230"
   version="1.1"
   inkscape:version="0.91+devel r"
   sodipodi:docname="byfoot.svg">
  <defs
     id="defs4232">
    <linearGradient
       id="linearGradient7161"
       inkscape:collect="always">
      <stop
         id="stop7163"
         offset="0"
         style="stop-color:#dedede;stop-opacity:1" />
      <stop
         id="stop7165"
         offset="1"
         style="stop-color:#f0f0f0;stop-opacity:1" />
    </linearGradient>
    <linearGradient
       gradientUnits="userSpaceOnUse"
       y2="1007.4396"
       x2="29.135878"
       y1="1049.4602"
       x1="29.135878"
       id="linearGradient7167"
       xlink:href="#linearGradient7161"
       inkscape:collect="always"
       gradientTransform="translate(0,4.7900391e-5)" />
  </defs>
  <sodipodi:namedview
     id="base"
     pagecolor="#ffffff"
     bordercolor="#666666"
     borderopacity="1.0"
     inkscape:pageopacity="0.0"
     inkscape:pageshadow="2"
     inkscape:zoom="8.0058983"
     inkscape:cx="25.331454"
     inkscape:cy="28.881327"
     inkscape:document-units="px"
     inkscape:current-layer="layer1"
     showgrid="false"
     inkscape:showpageshadow="false"
     borderlayer="true"
     inkscape:window-width="1366"
     inkscape:window-height="670"
     inkscape:window-x="-4"
     inkscape:window-y="29"
     inkscape:window-maximized="1">
    <inkscape:grid
       type="xygrid"
       id="grid4056" />
  </sodipodi:namedview>
  <metadata
     id="metadata4235">
    <rdf:RDF>
      <cc:Work
         rdf:about="">
        <dc:format>image/svg+xml</dc:format>
        <dc:type
           rdf:resource="http://purl.org/dc/dcmitype/StillImage" />
        <dc:title />
      </cc:Work>
    </rdf:RDF>
  </metadata>
  <g
     inkscape:label="Capa 1"
     inkscape:groupmode="layer"
     id="layer1"
     transform="translate(0,-1004.3622)">
    <rect
       style="fill:#000000;fill-opacity:0.01960784;stroke:none"
       id="rect5263"
       width="44.399963"
       height="44.399963"
       x="1.8000183"
       y="1006.1622"
       ry="6.2786646" />
    <rect
       ry="6.1938181"
       y="1006.4623"
       x="2.1000061"
       height="43.799973"
       width="43.799973"
       id="rect5261"
       style="fill:#000000;fill-opacity:0.03921569;stroke:none" />
    <rect
       style="fill:#000000;fill-opacity:0.07843137;stroke:none"
       id="rect5259"
       width="43.199982"
       height="43.199982"
       x="2.3999939"
       y="1006.7624"
       ry="6.1089716" />
    <rect
       ry="6.0241251"
       y="1007.0624"
       x="2.7000122"
       height="42.599991"
       width="42.599991"
       id="rect5257"
       style="fill:#000000;fill-opacity:0.15686275;stroke:none" />
    <rect
       style="fill:url(#linearGradient7167);fill-opacity:1;stroke:none"
       id="rect5237"
       width="42"
       height="42"
       x="3"
       y="1007.3622"
       ry="5.9392786" />
    <path
       inkscape:connector-curvature="0"
       style="fill:#000000;fill-opacity:0.11764706;stroke:none"
       d="m 2.9999991,1040.9247 0,2.5 c 0,3.2904 2.64714,5.9375 5.9375,5.9375 l 30.1249999,0 c 3.29036,0 5.9375,-2.6471 5.9375,-5.9375 l 0,-2.5 c 0,3.2904 -2.64714,5.9375 -5.9375,5.9375 l -30.1249999,0 C 5.6471391,1046.8622 2.9999991,1044.2151 2.9999991,1040.9247 Z"
       id="rect5265" />
    <path
       inkscape:connector-curvature="0"
       style="fill:#000000;fill-opacity:0.09803922;stroke:none"
       d="m 2.9999991,1042.9247 0,0.5 c 0,3.2904 2.64714,5.9375 5.9375,5.9375 l 30.1249999,0 c 3.29036,0 5.9375,-2.6471 5.9375,-5.9375 l 0,-0.5 c 0,3.2904 -2.64714,5.9375 -5.9375,5.9375 l -30.1249999,0 C 5.6471391,1048.8622 2.9999991,1046.2151 2.9999991,1042.9247 Z"
       id="path5252" />
    <path
       style="fill:#000000;fill-opacity:0.49803922"
       d="m 23.279178,1041.3548 c -0.05727,-0.013 -0.256353,-0.023 -0.442436,-0.04 -2.679378,-0.2284 -5.32644,-1.3561 -7.375356,-3.1422 -2.396117,-2.0886 -3.985622,-5.0892 -4.35988,-8.2302 -0.146191,-1.2269 -0.135054,-2.2521 0.03719,-3.4236 0.329502,-2.241 1.234538,-4.3758 2.601647,-6.1367 2.786434,-3.5891 7.273139,-5.4671 11.777026,-4.9291 2.544525,0.3037 4.905896,1.3327 6.888107,3.0016 0.422781,0.3559 1.248043,1.1918 1.58677,1.6074 1.188017,1.4574 2.031253,3.0769 2.517758,4.8353 0.257836,0.9321 0.370331,1.6259 0.460905,2.8429 0.04598,0.6178 0.04174,0.7917 -0.04385,1.7934 -0.1003,1.1737 -0.409,2.4743 -0.860811,3.6265 -0.191173,0.4875 -0.606613,1.3344 -0.891427,1.8172 -1.683444,2.8537 -4.365147,4.9376 -7.562197,5.8765 -0.709794,0.2085 -1.468863,0.3576 -2.290441,0.45 -0.354586,0.04 -1.791807,0.075 -2.043004,0.05 z m 1.574543,-0.292 c 0.121676,-0.013 0.377512,-0.032 0.568539,-0.052 0.191026,-0.022 0.364463,-0.038 0.385412,-0.038 0.02095,0 0.03086,-0.013 0.02201,-0.027 -0.0089,-0.015 -0.04175,-0.027 -0.07311,-0.028 -0.133022,0 -0.484106,-0.1148 -0.699256,-0.2265 l -0.23175,-0.1199 -0.239673,0.078 c -0.552754,0.1806 -1.207112,0.2748 -1.937678,0.2792 -0.289773,0.013 -0.52693,0.013 -0.527017,0.018 -2.36e-4,0.023 0.83778,0.1084 1.294352,0.1313 0.397293,0.02 0.983228,0.014 1.43817,-0.015 z m 2.144886,-0.174 c 0.423672,-0.043 0.855667,-0.2086 1.529752,-0.5829 0.294144,-0.1634 0.390841,-0.2348 0.657981,-0.4866 0.948643,-0.8945 1.975281,-1.6792 3.227802,-2.4673 l 0.442434,-0.2785 0.01865,-0.2493 c 0.02292,-0.3065 -0.01721,-1.1447 -0.07331,-1.5307 -0.06642,-0.4574 -0.217727,-1.0167 -0.274962,-1.0167 -0.01279,0 -0.09026,0.029 -0.172136,0.064 -0.44049,0.1882 -1.070805,0.3596 -1.619307,0.4402 -0.616561,0.091 -1.039489,0.1109 -2.123773,0.1033 l -1.043714,-0.013 -0.229328,0.3447 c -0.748094,1.1246 -1.113941,1.4482 -2.836302,2.5099 -0.314908,0.1941 -0.587872,0.3673 -0.606585,0.3849 -0.0635,0.06 0.155056,0.8112 0.400543,1.3769 0.132588,0.3057 0.440497,0.9142 0.493326,0.9752 0.01914,0.022 0.155566,0.1033 0.303176,0.1789 0.215861,0.1122 0.337141,0.1542 0.619728,0.2169 0.31659,0.07 0.384813,0.077 0.689676,0.065 0.186084,-0.013 0.454447,-0.025 0.596365,-0.04 z m -8.859475,-1.2277 c 0,-0.013 -0.09394,-0.083 -0.20877,-0.1742 -0.114829,-0.091 -0.323414,-0.281 -0.463536,-0.4227 -0.282071,-0.2852 -0.774511,-0.875 -0.750742,-0.8993 0.02808,-0.029 -0.717682,-0.634 -1.114443,-0.9046 -0.233666,-0.1593 -0.692098,-0.4202 -1.155605,-0.6577 l -0.244711,-0.1249 0.08855,0.1147 c 0.149356,0.1931 0.905593,0.9723 1.194644,1.2309 0.727638,0.6511 1.457643,1.1698 2.407363,1.7108 0.251712,0.1434 0.247242,0.1411 0.247242,0.1277 z m -1.057104,-1.7222 c 0.621561,-0.449 1.14769,-0.9315 1.424291,-1.3059 0.08432,-0.1148 0.153324,-0.2167 0.153324,-0.2278 0,-0.013 -0.07178,-0.1508 -0.159521,-0.3105 -0.43296,-0.7879 -0.910084,-1.9624 -1.221931,-3.008 -0.14167,-0.475 -0.41431,-1.547 -0.41431,-1.629 0,-0.033 -0.04806,-0.074 -0.149648,-0.1275 -0.772549,-0.3994 -1.820652,-1.3845 -2.63858,-2.48 -0.266917,-0.3576 -0.222802,-0.3431 -0.544429,-0.1788 -0.621749,0.3178 -1.110245,0.7897 -1.290649,1.2473 l -0.0577,0.1464 0.01964,1.5941 0.01964,1.5941 0.111031,0.2656 c 0.303663,0.7267 0.853839,1.6071 1.580765,2.5296 l 0.297523,0.3777 0.447811,0.2309 c 0.77768,0.4011 1.192244,0.6783 1.875831,1.2549 0.141247,0.1186 0.262835,0.2165 0.270197,0.2165 0.0073,0 0.131882,-0.085 0.276711,-0.1903 z m 7.291579,-0.1897 c 1.30018,-0.804 1.676965,-1.075 2.109501,-1.5168 0.312872,-0.3194 0.542897,-0.6217 0.867804,-1.1401 l 0.207782,-0.3315 -0.258814,-1.3246 c -0.142348,-0.7286 -0.364344,-1.8867 -0.493325,-2.5734 -0.128982,-0.6869 -0.240316,-1.274 -0.247411,-1.3047 -0.0092,-0.04 -0.107334,-0.1059 -0.345156,-0.2301 -1.038215,-0.544 -2.491743,-1.1173 -3.611476,-1.4242 -0.400409,-0.1097 -1.076736,-0.2691 -1.142581,-0.2691 -0.02028,0 -0.08383,0.087 -0.141231,0.1927 -0.247137,0.4562 -0.627627,0.9341 -1.027256,1.2904 -0.501879,0.4475 -0.9156,0.7352 -2.126286,1.4788 -0.422265,0.2594 -0.876357,0.5434 -1.009094,0.631 l -0.24134,0.1595 0.01592,0.097 c 0.109608,0.6646 0.521024,2.0645 0.863824,2.9392 0.266645,0.6805 0.658795,1.5183 0.871893,1.8629 l 0.06579,0.1059 0.816086,0.287 c 1.277281,0.4492 4.116507,1.4009 4.239802,1.4211 0.0078,0.013 0.271412,-0.1566 0.585575,-0.351 z m 8.717931,-0.9102 c 0.176651,-0.1161 0.290278,-0.1577 0.492059,-0.1832 0.08495,-0.013 0.181615,-0.031 0.214804,-0.043 0.03319,-0.013 0.184686,-0.1941 0.336659,-0.4028 1.410486,-1.9357 2.249359,-3.9339 2.523759,-6.0116 0.03132,-0.2371 0.04624,-0.5329 0.04757,-0.9438 l 0.002,-0.5985 -0.400806,-0.5838 c -0.220443,-0.3211 -0.404086,-0.588 -0.408095,-0.593 -0.004,0 -0.09461,0.069 -0.201313,0.1635 -0.230018,0.2048 -0.863322,0.7227 -1.235973,1.0108 l -0.265278,0.205 0,0.3385 c 0,0.5589 -0.08913,1.1112 -0.303052,1.8781 -0.224187,0.8036 -0.542904,1.6298 -0.991162,2.5694 l -0.275195,0.5769 0.05881,0.1902 c 0.147136,0.4759 0.237476,1.2246 0.244177,2.0236 0.0024,0.274 0.0069,0.4981 0.01012,0.4981 0.0033,0 0.0712,-0.043 0.150884,-0.094 z m -21.425166,-6.4746 c 0.25499,-0.226 0.423945,-0.3651 0.443204,-0.3651 0.0089,0 0.0085,0.019 -6.25e-4,0.043 -0.01112,0.029 -0.0067,0.038 0.01383,0.025 0.01674,-0.013 0.03045,-0.037 0.03045,-0.059 0,-0.054 0.134277,-0.327 0.22956,-0.4681 0.11734,-0.174 0.488615,-0.5243 0.720371,-0.6798 0.237711,-0.1594 0.731979,-0.4126 0.764888,-0.3919 0.01212,0.013 -0.0053,-0.062 -0.03855,-0.1563 -0.103948,-0.2924 -0.123686,-0.4789 -0.0894,-0.8444 0.119351,-1.2722 0.682784,-3.2659 1.149736,-4.0686 0.06059,-0.1045 0.166837,-0.2457 0.236113,-0.3146 l 0.125955,-0.125 -0.07597,-0.1536 c -0.112905,-0.2284 -0.232108,-0.6435 -0.280104,-0.9756 -0.0419,-0.2899 -0.04063,-1.0267 0.0019,-1.134 0.01345,-0.033 -0.0087,-0.05 -0.104686,-0.074 -0.15563,-0.041 -0.334228,-0.1327 -0.490061,-0.2541 l -0.122861,-0.096 -0.05123,0.061 c -0.106797,0.1262 -0.594925,0.7917 -0.719498,0.98 -1.195786,1.8091 -1.883824,3.7961 -2.091991,6.0416 -0.04483,0.4836 -0.03751,1.6854 0.01327,2.1786 0.04468,0.4339 0.12274,0.9963 0.138301,0.9963 0.0054,0 0.09416,-0.075 0.197336,-0.1663 z m 15.371732,-1.3941 c 0.741826,-0.9575 1.446269,-1.7016 2.187909,-2.3112 0.325212,-0.2672 0.802847,-0.5974 1.04923,-0.7255 l 0.177372,-0.092 -0.0163,-0.1461 c -0.153249,-1.373 -0.446848,-2.6113 -0.878771,-3.7064 -0.170038,-0.431 -0.490138,-1.1116 -0.559804,-1.1902 -0.06711,-0.075 -0.839108,-0.4523 -1.229389,-0.5999 -0.721527,-0.2726 -1.764427,-0.5601 -2.940645,-0.8105 -0.814476,-0.1736 -1.028759,-0.2129 -1.069623,-0.196 -0.05053,0.02 -3.668769,3.0642 -3.727777,3.1356 -0.06692,0.082 -0.05123,0.1462 0.164484,0.6839 0.459762,1.1462 1.011285,3.0437 1.212398,4.1713 0.03779,0.2118 0.0704,0.3872 0.07247,0.3895 0.0022,0 0.194882,0.047 0.428474,0.1007 1.065454,0.2427 2.324494,0.673 3.433875,1.1734 0.515711,0.2326 1.255282,0.6176 1.256827,0.6543 7.49e-4,0.018 0.02937,0 0.06358,-0.046 0.03419,-0.043 0.203265,-0.2618 0.375701,-0.4844 z m 8.533847,-1.3892 0.242948,-0.2023 0.0173,-0.2906 c 0.04861,-0.8157 0.01136,-1.954 -0.08854,-2.7081 -0.238716,-1.801 -0.92771,-3.1824 -2.273866,-4.5591 l -0.379361,-0.3879 -0.312123,-0.015 c -0.319646,-0.015 -0.632412,-0.087 -1.077926,-0.2434 -0.106285,-0.037 -0.196347,-0.068 -0.200141,-0.068 -0.0039,0 -0.10967,0.1466 -0.235289,0.3255 -0.407279,0.5804 -0.56471,0.7034 -1.511925,1.1818 -0.332803,0.1681 -0.605093,0.3083 -0.605093,0.3118 0,0 0.0766,0.17 0.170221,0.3701 0.561109,1.1997 0.892892,2.3757 1.108665,3.9295 l 0.08411,0.6057 0.418081,0.2103 c 1.052161,0.5292 1.983091,1.2294 2.701978,2.0321 0.157029,0.1754 0.343617,0.3986 0.414642,0.496 l 0.129137,0.177 0.577116,-0.4813 c 0.317413,-0.2647 0.68644,-0.5724 0.820063,-0.6837 z m -1.059433,0.9636 c 0.03237,-0.042 0.03145,-0.043 -0.0099,-0.013 -0.02505,0.02 -0.04555,0.041 -0.04555,0.046 0,0.022 0.02137,0.013 0.05538,-0.036 z m 0.813893,-0.6565 c 0.468717,-0.3924 0.566594,-0.4786 0.508442,-0.4477 -0.05655,0.031 -1.273603,1.0445 -1.273603,1.0616 0,0.018 0.250095,-0.1826 0.765161,-0.6139 z M 17.570999,1022.68 c 1.235729,-0.1534 2.267876,-0.2914 2.29366,-0.3067 0.04951,-0.029 3.704075,-3.0957 3.821107,-3.206 l 0.06826,-0.064 -0.282968,-1.4248 c -0.155632,-0.7838 -0.282968,-1.436 -0.282968,-1.4495 0,-0.045 -0.855554,0.02 -1.535508,0.1173 -1.284579,0.1828 -2.564258,0.5587 -3.615259,1.0619 -0.258584,0.1237 -0.287659,0.1457 -0.394474,0.2955 -0.06343,0.089 -0.289657,0.3304 -0.50274,0.5364 -0.213085,0.2061 -0.788502,0.8136 -1.278705,1.3503 -0.690887,0.7563 -0.894909,0.9952 -0.907418,1.0626 -0.0089,0.048 -0.0231,0.2724 -0.03159,0.4989 -0.0173,0.461 0.01788,0.7782 0.1299,1.171 0.06166,0.216 0.232943,0.6357 0.259517,0.6357 0.0069,0 1.023468,-0.125 2.259197,-0.2788 z m 15.335991,-3.3908 c -0.170856,-0.185 -0.776836,-0.7112 -1.143486,-0.9928 -0.908714,-0.6979 -1.873556,-1.2565 -2.927875,-1.6953 -0.475566,-0.1978 -0.53809,-0.2101 -0.195191,-0.038 0.944583,0.4738 1.910973,1.2762 2.679223,2.2246 0.112442,0.1389 0.217316,0.2615 0.233054,0.2726 0.05358,0.038 0.609779,0.2093 0.840088,0.2588 0.126251,0.028 0.310788,0.051 0.410085,0.051 l 0.180542,0 -0.07644,-0.083 z m -15.149378,-1.8633 c 0.0092,-0.024 0.01957,-0.024 0.03471,0 0.01461,0.019 0.138168,-0.024 0.385859,-0.1364 1.382062,-0.6275 2.825761,-0.9764 4.60652,-1.1136 0.3093,-0.024 0.596172,-0.064 0.844358,-0.1186 0.621034,-0.1371 1.134804,-0.194 1.784222,-0.1975 0.31491,0 0.677966,0 0.806792,0.015 0.297034,0.023 0.17208,-0.013 -0.312306,-0.082 -0.549005,-0.082 -0.855231,-0.1109 -1.416038,-0.1337 -1.79106,-0.074 -3.556833,0.2332 -5.268865,0.9164 -0.394741,0.1575 -1.630259,0.7707 -1.630259,0.8093 0,0.027 0.0775,0.077 0.12145,0.078 0.0167,2e-4 0.0363,-0.014 0.04356,-0.032 z"
       id="path4162"
       inkscape:connector-curvature="0" />
  </g>
</svg>
