<?xml version="1.0" encoding="UTF-8" standalone="no"?>
<!-- Created with Inkscape (http://www.inkscape.org/) -->

<svg
   xmlns:dc="http://purl.org/dc/elements/1.1/"
   xmlns:cc="http://creativecommons.org/ns#"
   xmlns:rdf="http://www.w3.org/1999/02/22-rdf-syntax-ns#"
   xmlns:svg="http://www.w3.org/2000/svg"
   xmlns="http://www.w3.org/2000/svg"
   xmlns:xlink="http://www.w3.org/1999/xlink"
   xmlns:sodipodi="http://sodipodi.sourceforge.net/DTD/sodipodi-0.dtd"
   xmlns:inkscape="http://www.inkscape.org/namespaces/inkscape"
   width="48"
   height="48"
   id="svg5453"
   version="1.1"
   inkscape:version="0.91+devel r"
   sodipodi:docname="desktop-environment-enlightenment.svg"
   viewBox="0 0 48 48">
  <defs
     id="defs5455">
    <linearGradient
       gradientUnits="userSpaceOnUse"
       y2="993.48169"
       x2="157.63258"
       y1="1035.4817"
       x1="157.63258"
       id="linearGradient7861"
       xlink:href="#linearGradient7150"
       inkscape:collect="always"
       gradientTransform="translate(-132.63258,13.880431)" />
    <linearGradient
       id="linearGradient7150"
       inkscape:collect="always">
      <stop
         id="stop7152"
         offset="0"
         style="stop-color:#8796a4;stop-opacity:1" />
      <stop
         id="stop7154"
         offset="1"
         style="stop-color:#b0b7c5;stop-opacity:1" />
    </linearGradient>
  </defs>
  <sodipodi:namedview
     id="base"
     pagecolor="#ffffff"
     bordercolor="#666666"
     borderopacity="1.0"
     inkscape:pageopacity="0"
     inkscape:pageshadow="2"
     inkscape:zoom="9.6840192"
     inkscape:cx="70.941303"
     inkscape:cy="22.898203"
     inkscape:document-units="px"
     inkscape:current-layer="layer1"
     showgrid="true"
     fit-margin-top="0"
     fit-margin-left="0"
     fit-margin-right="0"
     fit-margin-bottom="0"
     inkscape:window-width="2560"
     inkscape:window-height="957"
     inkscape:window-x="-4"
     inkscape:window-y="29"
     inkscape:window-maximized="1">
    <inkscape:grid
       type="xygrid"
       id="grid4147" />
  </sodipodi:namedview>
  <metadata
     id="metadata5458">
    <rdf:RDF>
      <cc:Work
         rdf:about="">
        <dc:format>image/svg+xml</dc:format>
        <dc:type
           rdf:resource="http://purl.org/dc/dcmitype/StillImage" />
        <dc:title />
      </cc:Work>
    </rdf:RDF>
  </metadata>
  <g
     inkscape:label="Capa 1"
     inkscape:groupmode="layer"
     id="layer1"
     transform="translate(-384.57143,-499.798)">
    <g
       id="g4317"
       transform="translate(329.04895,505.22607)" />
    <g
       id="layer1-6"
       inkscape:label="Capa 1"
       transform="translate(384.57143,-504.56415)">
      <rect
         ry="6.2786646"
         y="1006.1622"
         x="1.8000183"
         height="44.399963"
         width="44.399963"
         id="rect5263-5"
         style="fill:#000000;fill-opacity:0.01960784;stroke:none" />
      <rect
         style="fill:#000000;fill-opacity:0.03921569;stroke:none"
         id="rect5261-9"
         width="43.799973"
         height="43.799973"
         x="2.1000061"
         y="1006.4623"
         ry="6.1938181" />
      <rect
         ry="6.1089716"
         y="1006.7626"
         x="2.3999939"
         height="43.199982"
         width="43.199982"
         id="rect5259-3"
         style="fill:#000000;fill-opacity:0.07843137;stroke:none" />
      <rect
         style="fill:#000000;fill-opacity:0.15686275;stroke:none"
         id="rect5257-8"
         width="42.599991"
         height="42.599991"
         x="2.7000122"
         y="1007.0624"
         ry="6.0241251" />
      <rect
         ry="5.9392786"
         y="1007.3622"
         x="3"
         height="42"
         width="42"
         id="rect5237-1"
         style="fill:url(#linearGradient7861);fill-opacity:1.0;stroke:none" />
      <path
         id="rect5265-2"
         d="m 2.9999971,1040.9248 0,2.5 c 0,3.2904 2.64714,5.9375 5.9375,5.9375 l 30.1249999,0 c 3.29036,0 5.9375,-2.6471 5.9375,-5.9375 l 0,-2.5 c 0,3.2904 -2.64714,5.9375 -5.9375,5.9375 l -30.1249999,0 c -3.29036,0 -5.9375,-2.6471 -5.9375,-5.9375 z"
         style="fill:#000000;fill-opacity:0.11764706;stroke:none"
         inkscape:connector-curvature="0" />
      <path
         id="path5252-0"
         d="m 2.9999971,1042.9248 0,0.5 c 0,3.2904 2.64714,5.9375 5.9375,5.9375 l 30.1249999,0 c 3.29036,0 5.9375,-2.6471 5.9375,-5.9375 l 0,-0.5 c 0,3.2904 -2.64714,5.9375 -5.9375,5.9375 l -30.1249999,0 c -3.29036,0 -5.9375,-2.6471 -5.9375,-5.9375 z"
         style="fill:#000000;fill-opacity:0.09803922;stroke:none"
         inkscape:connector-curvature="0" />
    </g>
    <path
       inkscape:connector-curvature="0"
       id="path4168"
       d="m 408.5606,536.776 c 0,-0.0287 -0.0321,-0.32281 -0.0608,-0.55377 -0.15828,-1.28151 -0.38586,-1.99735 -0.74977,-2.35857 -0.0599,-0.0599 -0.1978,-0.16224 -0.21779,-0.16224 -0.0194,0 -0.13736,0.0515 -0.19189,0.0836 -0.13844,0.0819 -0.25147,0.17854 -0.36332,0.312 -0.2313,0.27595 -0.42681,0.63041 -0.6522,1.18224 -0.1051,0.25721 -0.29469,0.78827 -0.39768,1.11378 -0.0236,0.0743 -0.0439,0.13295 -0.0456,0.13109 0,0 0.008,-0.0768 0.0135,-0.16655 0.0346,-0.3385 0.049,-0.51122 0.0743,-0.88965 0.0135,-0.20193 0.0135,-0.82972 2.5e-4,-0.97948 -0.0498,-0.56389 -0.16934,-0.91658 -0.38882,-1.15033 l -0.0515,-0.0549 -0.0355,0.008 c -0.49248,0.0743 -0.99095,0.55157 -1.6228,1.55266 -0.13253,0.21002 -0.33251,0.54574 -0.46758,0.78515 -0.0253,0.0456 -0.0481,0.081 -0.0498,0.0793 0,0 0.0228,-0.0836 0.0532,-0.18217 0.25527,-0.80566 0.39675,-1.3894 0.45356,-1.87048 0.0177,-0.14832 0.0236,-0.41338 0.0127,-0.54769 -0.0203,-0.24827 -0.0918,-0.47188 -0.19905,-0.61927 l -0.0287,-0.0388 -0.12975,0 c -0.13312,0 -0.21188,0.0169 -0.32635,0.0549 -0.26261,0.0862 -0.57748,0.28228 -0.90713,0.56474 -0.32297,0.27671 -0.73399,0.69372 -1.17979,1.19693 -0.0549,0.0616 -0.10307,0.11598 -0.10746,0.12037 -0.008,0.008 -0.008,0.008 0.10535,-0.19263 0.21771,-0.38469 0.47602,-0.88291 0.59522,-1.14797 0.23957,-0.53258 0.35581,-0.93389 0.36754,-1.26953 0.008,-0.18808 -0.0194,-0.35775 -0.0734,-0.47939 -0.0186,-0.0422 -0.0219,-0.0447 -0.0625,-0.0566 -0.12882,-0.0363 -0.34239,-0.0439 -0.49231,-0.0177 -0.54262,0.0953 -1.2155,0.46606 -2.30809,1.27197 -0.0684,0.0507 -0.12983,0.0958 -0.13642,0.10063 -0.0169,0.0127 -0.008,0 0.15744,-0.18749 0.85927,-0.98268 1.27636,-1.60904 1.4116,-2.11951 0.0566,-0.21416 0.0591,-0.44833 0.008,-0.60399 -0.008,-0.0253 -0.0143,-0.0464 -0.0135,-0.0464 0,0 0.0583,0.0734 0.1257,0.16259 0.47399,0.62585 0.75644,0.9268 1.40425,1.49593 0.3553,0.31216 0.62552,0.52126 0.97677,0.75594 0.16318,0.10906 0.66081,0.3997 0.96192,0.56187 0.33589,0.18082 0.76185,0.36864 1.12019,0.494 0.28567,0.0999 0.8775,0.28355 1.06347,0.32989 0.34636,0.0864 0.72927,0.15482 1.10382,0.19711 0.67321,0.076 0.95137,0.0933 1.38889,0.0861 0.30314,-0.008 0.423,-0.0127 0.87497,-0.0583 0.49974,-0.0498 0.69204,-0.0777 1.03561,-0.14899 0.34855,-0.0726 0.50304,-0.11346 0.90713,-0.24076 0.55495,-0.17474 0.74024,-0.24362 1.18275,-0.43989 0.35041,-0.1554 1.05603,-0.54895 1.42688,-0.7957 0.36467,-0.24278 0.62374,-0.44546 1.03831,-0.81267 0.58669,-0.51949 0.89253,-0.84905 1.33325,-1.43683 0.0616,-0.0827 0.11295,-0.149 0.11371,-0.14815 8.4e-4,7.6e-4 -0.008,0.0338 -0.0177,0.0734 -0.10096,0.3759 0.0456,0.85201 0.44927,1.45701 0.23239,0.34872 0.58188,0.78861 1.02354,1.28861 0.11599,0.13126 0.1283,0.14603 0.11345,0.1354 -0.008,-0.008 -0.0625,-0.0464 -0.12443,-0.0917 -0.37895,-0.28009 -0.85867,-0.60846 -1.11986,-0.76649 -0.68166,-0.41237 -1.19322,-0.58129 -1.58152,-0.52194 -0.0422,0.008 -0.0951,0.0177 -0.11793,0.0245 l -0.0414,0.0127 -0.0253,0.0658 c -0.11513,0.29875 -0.0827,0.6988 0.0979,1.21854 0.14983,0.43027 0.39033,0.92773 0.80152,1.65776 0.0473,0.0836 0.0905,0.16157 0.0961,0.17254 0.0127,0.0253 0.0152,0.0279 -0.11245,-0.11641 -1.07638,-1.21659 -1.77501,-1.755 -2.3368,-1.80075 -0.0498,0 -0.11572,-0.008 -0.14544,0 l -0.054,0 -0.0279,0.0422 c -0.11464,0.17271 -0.1766,0.37767 -0.19576,0.6473 -0.008,0.0591 -0.008,0.17322 -1.7e-4,0.273 0.0203,0.49788 0.16343,1.14104 0.46843,2.10532 0.0338,0.10552 0.0599,0.19281 0.0583,0.19407 0,0 -0.0346,-0.0549 -0.0734,-0.12367 -0.86568,-1.52226 -1.45085,-2.1845 -2.02699,-2.29399 l -0.076,-0.0144 -0.0583,0.0616 c -0.21998,0.23324 -0.34035,0.59555 -0.38426,1.15726 -0.0135,0.17778 -0.016,0.64206 0,0.8791 0.0152,0.29031 0.0523,0.75155 0.0844,1.04287 0.008,0.0591 0.011,0.10873 0.009,0.11008 0,0 -0.0304,-0.085 -0.065,-0.19196 -0.31217,-0.96918 -0.60577,-1.64754 -0.8926,-2.06185 -0.20125,-0.29065 -0.42689,-0.48556 -0.65321,-0.56441 l -0.0642,-0.0228 -0.0785,0.0523 c -0.45035,0.29976 -0.71871,1.04194 -0.89606,2.4781 -0.0287,0.23096 -0.0608,0.52498 -0.0608,0.55377 0,0.0135 0,0.0245 -0.008,0.0245 -0.008,0 -0.008,-0.011 -0.008,-0.0245 z m -0.61825,-3.86615 c -1.40401,-0.0883 -2.74529,-0.5189 -4.0404,-1.29721 -0.90856,-0.54617 -1.73279,-1.26151 -2.4028,-2.08574 -1.44612,-1.77881 -2.14779,-4.06284 -1.96562,-6.3982 0.13313,-1.70697 0.74733,-3.3681 1.73609,-4.69519 1.49779,-2.01045 3.80377,-3.32184 6.33961,-3.60522 1.40393,-0.15693 2.81957,0.016 4.13434,0.50548 1.05773,0.39371 2.06482,1.00513 2.92247,1.7745 0.25629,0.22986 0.59851,0.58331 0.83132,0.8585 0.88216,1.04287 1.51696,2.29332 1.85277,3.64937 0.27131,1.09563 0.33925,2.26183 0.19711,3.38304 -0.14099,1.11218 -0.4859,2.1894 -1.01131,3.159 -0.14004,0.25831 -0.27612,0.481 -0.4761,0.77874 -0.1631,0.24294 -0.24505,0.35437 -0.3423,0.46555 -0.1068,0.12198 -0.40781,0.43811 -0.41499,0.43567 -0.0152,-0.008 -11.91155,-7.95026 -11.91181,-7.95533 -8e-5,0 0.0329,-0.0916 0.0726,-0.19669 0.1192,-0.31166 0.1674,-0.40443 0.37877,-0.72893 0.45509,-0.69862 0.88637,-1.17785 1.44368,-1.60398 1.28649,-0.98352 2.95877,-1.32211 4.56292,-0.92376 1.82075,0.45205 3.28022,1.74606 3.89805,3.45623 0.15458,0.42799 0.24321,0.82981 0.29353,1.33132 0.0202,0.19812 0.0202,0.70647 7e-5,0.91118 -0.0507,0.52118 -0.14552,0.95137 -0.31604,1.43161 -0.0287,0.0819 -0.049,0.14992 -0.0456,0.15355 0.0194,0.0177 1.13844,0.7827 1.14241,0.78093 0.0118,-0.008 0.13033,-0.29588 0.18217,-0.44707 0.18114,-0.52878 0.28465,-1.05249 0.33724,-1.70629 0.0194,-0.24126 0.0194,-0.79351 2.5e-4,-1.03966 -0.0901,-1.14974 -0.39734,-2.14517 -0.94284,-3.0545 -0.54439,-0.90763 -1.34609,-1.70342 -2.28437,-2.26748 -0.93423,-0.56162 -1.96503,-0.9019 -3.02782,-0.99948 -0.31867,-0.0296 -0.77409,-0.0346 -1.07984,-0.0127 -1.5205,0.10941 -2.90027,0.68132 -4.03001,1.67042 -0.13988,0.12249 -0.45989,0.44259 -0.58137,0.58154 -0.51375,0.58761 -0.92865,1.25197 -1.21837,1.95084 -0.44478,1.07284 -0.61058,2.25727 -0.4799,3.42795 0.13219,1.18393 0.5698,2.314 1.26817,3.27532 0.42917,0.59066 0.9902,1.1451 1.5936,1.57469 0.79503,0.56609 1.55671,0.90266 2.44848,1.0817 0.62806,0.12612 1.31216,0.16082 1.97887,0.10046 1.01915,-0.0924 2.05181,-0.39245 3.02343,-0.87843 0.12915,-0.065 0.18985,-0.0912 0.19466,-0.085 0.0253,0.0321 1.10837,1.90189 1.105,1.90737 -0.011,0.0177 -0.53916,0.28871 -0.77839,0.39912 -1.22809,0.56694 -2.42982,0.87598 -3.66111,0.94149 -0.20817,0.011 -0.71711,0.008 -0.92731,-0.008 z m -7.4144,-14.94713 c 0,-0.008 0.0127,-0.0456 0.0211,-0.0819 0.10079,-0.42292 -0.081,-0.92629 -0.59378,-1.64459 -0.21602,-0.30263 -0.54465,-0.7036 -0.97322,-1.18772 -0.0439,-0.049 -0.0439,-0.0498 0.13734,0.0844 0.97838,0.72167 1.61234,1.08643 2.11942,1.21922 0.15904,0.0414 0.23282,0.0515 0.38131,0.0523 0.13337,3.4e-4 0.17356,-0.008 0.27865,-0.0329 l 0.0456,-0.0127 0.0236,-0.0608 c 0.13135,-0.34475 0.0751,-0.80752 -0.17507,-1.43397 -0.15558,-0.39008 -0.4193,-0.91591 -0.74666,-1.48917 -0.0338,-0.0599 -0.0667,-0.11743 -0.0718,-0.12848 l -0.0101,-0.0203 0.0194,0.0203 c 0.011,0.011 0.0642,0.0709 0.11911,0.13244 0.60704,0.68546 1.1148,1.17102 1.50876,1.44275 0.24287,0.16757 0.48565,0.2817 0.69035,0.32458 0.0481,0.0101 0.10527,0.0143 0.1923,0.0143 l 0.12401,2.5e-4 0.0304,-0.0405 c 0.0169,-0.0219 0.0481,-0.076 0.0701,-0.12046 0.10468,-0.2134 0.1425,-0.44715 0.12874,-0.79595 -0.0203,-0.51181 -0.16613,-1.16131 -0.4886,-2.1737 -0.0228,-0.0701 -0.0397,-0.12882 -0.038,-0.13026 0,0 0.0329,0.0506 0.0692,0.11574 0.40967,0.72099 0.74919,1.23685 1.0552,1.60339 0.10037,0.12012 0.29731,0.31883 0.3981,0.40156 0.19331,0.1587 0.3965,0.26237 0.58281,0.29723 l 0.0692,0.0127 0.0354,-0.0346 c 0.12663,-0.12358 0.23915,-0.32854 0.30339,-0.55284 0.0827,-0.28954 0.11616,-0.59209 0.11633,-1.06338 1.7e-4,-0.44867 -0.0338,-0.97998 -0.10012,-1.56954 0,-0.0203 0.0481,0.11742 0.11126,0.30508 0.17972,0.53182 0.26996,0.7751 0.39886,1.07571 0.23915,0.55765 0.45458,0.9089 0.70504,1.14965 0.13051,0.12544 0.26422,0.21239 0.39996,0.26017 l 0.0414,0.0143 0.0709,-0.0481 c 0.0886,-0.0599 0.21526,-0.18631 0.28346,-0.28313 0.31107,-0.44175 0.50126,-1.18841 0.6505,-2.5545 0.0135,-0.12578 0.0262,-0.22978 0.027,-0.23105 0,0 0.008,0.0236 0.008,0.0557 0.0219,0.22869 0.0709,0.63329 0.10981,0.90139 0.13152,0.90545 0.31589,1.49889 0.57395,1.84786 0.0872,0.11785 0.21087,0.23358 0.31099,0.29081 l 0.0447,0.0253 0.0506,-0.0169 c 0.18048,-0.0608 0.37074,-0.20268 0.53207,-0.39692 0.33623,-0.40502 0.61479,-1.0048 0.98842,-2.12744 0.054,-0.16334 0.099,-0.29157 0.0992,-0.28499 2.5e-4,0.008 -0.008,0.0988 -0.0194,0.20471 -0.11532,1.12889 -0.11126,1.88188 0.0127,2.36398 0.0464,0.18208 0.11304,0.34551 0.18606,0.45905 0.0346,0.054 0.11446,0.15389 0.14899,0.18672 l 0.0245,0.0236 0.0582,-0.009 c 0.13059,-0.0211 0.31141,-0.0979 0.4463,-0.18867 0.44343,-0.29833 0.90924,-0.90815 1.55975,-2.04227 0.0574,-0.0999 0.10645,-0.1836 0.10915,-0.18605 0.008,-0.008 0.008,0 -0.0734,0.24852 -0.23493,0.7437 -0.38097,1.35132 -0.43398,1.80632 -0.0177,0.14942 -0.0236,0.43002 -0.0127,0.55689 0.0211,0.24202 0.0948,0.46927 0.19695,0.60796 0.027,0.0363 0.0279,0.0372 0.081,0.0414 0.0295,0 0.091,0 0.13683,0 0.30636,-0.0245 0.6517,-0.195 1.05942,-0.52287 0.33573,-0.26996 0.77655,-0.70893 1.27307,-1.26733 0.1057,-0.11895 0.13828,-0.15271 0.12537,-0.13 0,0 -0.0321,0.0566 -0.0675,0.11835 -0.52634,0.92241 -0.83537,1.60828 -0.94486,2.09688 -0.0768,0.34391 -0.0675,0.67144 0.0262,0.86138 l 0.022,0.0439 0.076,0.0194 c 0.0667,0.0169 0.0961,0.0194 0.23282,0.0203 0.11903,5e-4 0.17482,0 0.23289,-0.0135 0.52736,-0.0994 1.14654,-0.43508 2.15548,-1.16823 0.10593,-0.0768 0.21408,-0.15642 0.24025,-0.17651 0.0608,-0.0464 0.054,-0.0363 -0.0549,0.0871 -0.63616,0.7177 -1.04718,1.26488 -1.27848,1.70198 -0.0976,0.18445 -0.18622,0.41668 -0.21898,0.57403 -0.0329,0.15963 -0.0296,0.36316 0.008,0.50101 0.008,0.0287 0.0135,0.0532 0.0127,0.0549 0,0 -0.0557,-0.0692 -0.12189,-0.15617 -0.26743,-0.35404 -0.36004,-0.46555 -0.62805,-0.75603 -0.22953,-0.24869 -0.57825,-0.57419 -0.9783,-0.91337 -0.22024,-0.18665 -0.50185,-0.39718 -0.77324,-0.57808 -0.26178,-0.1744 -0.95593,-0.56922 -1.23627,-0.7031 -0.15001,-0.0718 -0.44429,-0.20015 -0.59808,-0.26118 -0.2909,-0.1154 -1.04794,-0.35683 -1.3407,-0.42748 -0.4593,-0.11084 -0.77678,-0.16225 -1.3607,-0.22041 -0.53552,-0.0532 -0.57393,-0.0557 -0.99947,-0.0557 -0.45002,9e-5 -0.52212,0.008 -1.14806,0.0718 -0.46361,0.049 -0.81993,0.11143 -1.22419,0.21298 -0.31622,0.0794 -1.02852,0.30879 -1.32896,0.4279 -0.12763,0.0506 -0.42495,0.18107 -0.57369,0.25173 -0.18917,0.0899 -0.73635,0.39456 -1.03561,0.57656 -0.30524,0.18571 -0.67431,0.45263 -0.95778,0.6928 -0.41701,0.35336 -0.75594,0.66865 -0.98107,0.91278 -0.27891,0.30246 -0.36105,0.40098 -0.62915,0.75459 -0.0768,0.10155 -0.13735,0.17744 -0.13405,0.16858 z"
       style="fill:#000000;fill-opacity:0.49803922;stroke-width:0.00802791" />
  </g>
</svg>
