<?xml version="1.0" encoding="UTF-8" standalone="no"?>
<!-- Created with Inkscape (http://www.inkscape.org/) -->

<svg
   xmlns:dc="http://purl.org/dc/elements/1.1/"
   xmlns:cc="http://creativecommons.org/ns#"
   xmlns:rdf="http://www.w3.org/1999/02/22-rdf-syntax-ns#"
   xmlns:svg="http://www.w3.org/2000/svg"
   xmlns="http://www.w3.org/2000/svg"
   xmlns:xlink="http://www.w3.org/1999/xlink"
   xmlns:sodipodi="http://sodipodi.sourceforge.net/DTD/sodipodi-0.dtd"
   xmlns:inkscape="http://www.inkscape.org/namespaces/inkscape"
   width="48"
   height="48"
   id="svg4230"
   version="1.1"
   inkscape:version="0.91+devel r"
   sodipodi:docname="narcissu.svg"
   viewBox="0 0 48 48">
  <defs
     id="defs4232">
    <linearGradient
       inkscape:collect="always"
       id="linearGradient7161">
      <stop
         style="stop-color:#dedede;stop-opacity:1"
         offset="0"
         id="stop7163" />
      <stop
         style="stop-color:#f0f0f0;stop-opacity:1"
         offset="1"
         id="stop7165" />
    </linearGradient>
    <linearGradient
       inkscape:collect="always"
       xlink:href="#linearGradient7161"
       id="linearGradient7167"
       x1="29.135878"
       y1="1049.4602"
       x2="29.135878"
       y2="1007.4396"
       gradientUnits="userSpaceOnUse" />
  </defs>
  <sodipodi:namedview
     id="base"
     pagecolor="#ffffff"
     bordercolor="#666666"
     borderopacity="1.0"
     inkscape:pageopacity="0.0"
     inkscape:pageshadow="2"
     inkscape:zoom="12.183179"
     inkscape:cx="10.44842"
     inkscape:cy="24.845285"
     inkscape:document-units="px"
     inkscape:current-layer="layer1"
     showgrid="false"
     inkscape:showpageshadow="false"
     borderlayer="true"
     inkscape:window-width="2560"
     inkscape:window-height="957"
     inkscape:window-x="-4"
     inkscape:window-y="29"
     inkscape:window-maximized="1" />
  <metadata
     id="metadata4235">
    <rdf:RDF>
      <cc:Work
         rdf:about="">
        <dc:format>image/svg+xml</dc:format>
        <dc:type
           rdf:resource="http://purl.org/dc/dcmitype/StillImage" />
        <dc:title />
      </cc:Work>
    </rdf:RDF>
  </metadata>
  <g
     inkscape:label="Capa 1"
     inkscape:groupmode="layer"
     id="layer1"
     transform="translate(0,-1004.3622)">
    <rect
       style="fill:#000000;fill-opacity:0.01960784;stroke:none"
       id="rect5263"
       width="44.399963"
       height="44.399963"
       x="1.8000183"
       y="1006.1622"
       ry="6.2786646" />
    <rect
       ry="6.1938181"
       y="1006.4623"
       x="2.1000061"
       height="43.799973"
       width="43.799973"
       id="rect5261"
       style="fill:#000000;fill-opacity:0.03921569;stroke:none" />
    <rect
       style="fill:#000000;fill-opacity:0.07843137;stroke:none"
       id="rect5259"
       width="43.199982"
       height="43.199982"
       x="2.3999939"
       y="1006.7623"
       ry="6.1089716" />
    <rect
       ry="6.0241251"
       y="1007.0623"
       x="2.7000122"
       height="42.599991"
       width="42.599991"
       id="rect5257"
       style="fill:#000000;fill-opacity:0.15686275;stroke:none" />
    <rect
       style="fill:url(#linearGradient7167);fill-opacity:1;stroke:none"
       id="rect5237"
       width="42"
       height="42"
       x="3"
       y="1007.3622"
       ry="5.9392786" />
    <path
       inkscape:connector-curvature="0"
       style="fill:#000000;fill-opacity:0.11764706;stroke:none"
       d="m 2.9999991,1040.9247 0,2.5 c 0,3.2904 2.64714,5.9375 5.9375,5.9375 l 30.1249999,0 c 3.29036,0 5.9375,-2.6471 5.9375,-5.9375 l 0,-2.5 c 0,3.2904 -2.64714,5.9375 -5.9375,5.9375 l -30.1249999,0 c -3.29036,0 -5.9375,-2.6471 -5.9375,-5.9375 z"
       id="rect5265" />
    <path
       inkscape:connector-curvature="0"
       style="fill:#000000;fill-opacity:0.09803922;stroke:none"
       d="m 2.9999991,1042.9247 0,0.5 c 0,3.2904 2.64714,5.9375 5.9375,5.9375 l 30.1249999,0 c 3.29036,0 5.9375,-2.6471 5.9375,-5.9375 l 0,-0.5 c 0,3.2904 -2.64714,5.9375 -5.9375,5.9375 l -30.1249999,0 c -3.29036,0 -5.9375,-2.6471 -5.9375,-5.9375 z"
       id="path5252" />
    <path
       inkscape:connector-curvature="0"
       id="path4174-2"
       d="m 11,1021.2413 0,7.0834 0,7.0834 9.714582,0.041 2.04e-4,0 c 12.855665,0.054 16.060541,0.046 16.14576,-0.04 0.126299,-0.1268 0.161825,-2.4739 0.126587,-8.3808 l -0.03452,-5.7868 -12.976403,0 -12.976203,0 z m 16.216243,1.2991 c 3.10976,-0.015 5.6241,0.7613 7.083216,2.2204 0.993599,0.9936 1.023093,1.1409 1.07967,5.4237 l 0.05035,3.8228 -4.081955,0 -4.081957,0 0.01255,-3.4484 c 0.01077,-2.9735 -0.01944,-3.4967 -0.217813,-3.7994 -0.762908,-1.1643 -3.648643,-1.017 -5.897713,0.301 l -0.645665,0.3783 0.04624,3.2843 0.04624,3.2844 -3.927835,-2e-4 -3.928041,0 0,-5.5412 0,-5.5414 3.962975,0 3.96318,0 0,0.3658 c 0,0.2923 0.04917,0.3459 0.24536,0.2673 0.801834,-0.3211 3.101143,-0.794 4.505278,-0.9266 0.613795,-0.058 1.210077,-0.088 1.78596,-0.091 z"
       style="fill:#000000;fill-opacity:0.49803922;stroke-width:0.14028475" />
  </g>
</svg>
