<?xml version="1.0" encoding="UTF-8" standalone="no"?>
<!-- Created with Inkscape (http://www.inkscape.org/) -->

<svg
   xmlns:dc="http://purl.org/dc/elements/1.1/"
   xmlns:cc="http://creativecommons.org/ns#"
   xmlns:rdf="http://www.w3.org/1999/02/22-rdf-syntax-ns#"
   xmlns:svg="http://www.w3.org/2000/svg"
   xmlns="http://www.w3.org/2000/svg"
   xmlns:xlink="http://www.w3.org/1999/xlink"
   xmlns:sodipodi="http://sodipodi.sourceforge.net/DTD/sodipodi-0.dtd"
   xmlns:inkscape="http://www.inkscape.org/namespaces/inkscape"
   width="48"
   height="48"
   id="svg2"
   version="1.1"
   inkscape:version="0.91+devel r"
   sodipodi:docname="preferences-desktop-sound.svg"
   viewBox="0 0 48 48">
  <defs
     id="defs4">
    <linearGradient
       id="linearGradient4708"
       inkscape:collect="always">
      <stop
         id="stop4710"
         offset="0"
         style="stop-color:#47b73d;stop-opacity:1" />
      <stop
         id="stop4712"
         offset="1"
         style="stop-color:#ade355;stop-opacity:1" />
    </linearGradient>
    <linearGradient
       gradientTransform="translate(-1.262207e-7,3.7778125e-5)"
       inkscape:collect="always"
       xlink:href="#linearGradient4708"
       id="linearGradient4101"
       x1="29.109528"
       y1="1049.3851"
       x2="29.109528"
       y2="1007.3748"
       gradientUnits="userSpaceOnUse" />
  </defs>
  <sodipodi:namedview
     id="base"
     pagecolor="#ffffff"
     bordercolor="#666666"
     borderopacity="1.0"
     inkscape:pageopacity="0.0"
     inkscape:pageshadow="2"
     inkscape:zoom="7.698315"
     inkscape:cx="40.47027"
     inkscape:cy="20.1018"
     inkscape:document-units="px"
     inkscape:current-layer="layer1"
     showgrid="false"
     inkscape:window-width="2560"
     inkscape:window-height="957"
     inkscape:window-x="-4"
     inkscape:window-y="29"
     inkscape:window-maximized="1"
     showguides="false"
     borderlayer="true"
     inkscape:showpageshadow="false" />
  <metadata
     id="metadata7">
    <rdf:RDF>
      <cc:Work
         rdf:about="">
        <dc:format>image/svg+xml</dc:format>
        <dc:type
           rdf:resource="http://purl.org/dc/dcmitype/StillImage" />
        <dc:title></dc:title>
      </cc:Work>
    </rdf:RDF>
  </metadata>
  <g
     inkscape:label="Capa 1"
     inkscape:groupmode="layer"
     id="layer1"
     transform="translate(0,-1004.3622)">
    <rect
       style="fill:#000000;fill-opacity:0.01960784;stroke:none"
       id="rect5263"
       width="44.399963"
       height="44.399963"
       x="1.8000183"
       y="1006.1622"
       ry="6.2786646" />
    <rect
       ry="6.1938181"
       y="1006.4622"
       x="2.1000137"
       height="43.799973"
       width="43.799973"
       id="rect5261"
       style="fill:#000000;fill-opacity:0.03921569;stroke:none" />
    <rect
       style="fill:#000000;fill-opacity:0.07843137;stroke:none"
       id="rect5259"
       width="43.199982"
       height="43.199982"
       x="2.4000092"
       y="1006.7622"
       ry="6.1089716" />
    <rect
       ry="6.0241251"
       y="1007.0622"
       x="2.7000046"
       height="42.599991"
       width="42.599991"
       id="rect5257"
       style="fill:#000000;fill-opacity:0.15686275;stroke:none" />
    <rect
       style="fill:url(#linearGradient4101);fill-opacity:1;stroke:none"
       id="rect5237-3"
       width="42"
       height="42"
       x="3"
       y="1007.3622"
       ry="5.9392786" />
    <path
       style="fill:#000000;fill-opacity:0.11764706;stroke:none"
       d="m 3,36.5625 0,2.5 C 3,42.35286 5.6471397,45 8.9375,45 l 30.125,0 C 42.35286,45 45,42.35286 45,39.0625 l 0,-2.5 C 45,39.85286 42.35286,42.5 39.0625,42.5 l -30.125,0 C 5.6471397,42.5 3,39.85286 3,36.5625 Z"
       id="rect5265"
       transform="translate(0,1004.3622)"
       inkscape:connector-curvature="0" />
    <path
       style="fill:#000000;fill-opacity:0.09803922;stroke:none"
       d="m 3,38.5625 0,0.5 C 3,42.35286 5.6471397,45 8.9375,45 l 30.125,0 C 42.35286,45 45,42.35286 45,39.0625 l 0,-0.5 C 45,41.8529 42.35286,44.5 39.0625,44.5 l -30.125,0 C 5.6471397,44.5 3,41.8529 3,38.5625 Z"
       transform="translate(0,1004.3622)"
       id="path5252"
       inkscape:connector-curvature="0" />
    <path
       style="fill:#000000"
       d=""
       id="path906"
       inkscape:connector-curvature="0" />
    <rect
       style="fill:none;stroke:none;stroke-width:0.86666673"
       id="rect3263"
       width="26.000002"
       height="26.000002"
       x="10.999999"
       y="1015.3622" />
    <ellipse
       ry="0.86669338"
       rx="0.86726719"
       cy="1028.3622"
       cx="22.266066"
       style="fill:none;stroke:none;stroke-width:0.86666673"
       id="path4242" />
    <path
       style="opacity:1;fill:#000000;fill-opacity:0.49803922;stroke:none;stroke-width:0.16250001;stroke-linecap:round;stroke-linejoin:miter;stroke-miterlimit:4;stroke-dasharray:none;stroke-opacity:0.29943501"
       d="m 25.786864,1015.3622 c -1.215736,0 -5.358156,3.0079 -7.886961,6.465 l -2.024903,1.66 0,3.25 0,3.25 0,3.25 2.024903,1.6599 c 2.528805,3.4572 6.671225,6.4651 7.886961,6.4651 l 0,-26 z m 7.401367,3.8117 -1.148926,1.149 a 11.375,11.375 0 0 1 3.335695,8.0393 11.375,11.375 0 0 1 -3.335695,8.0392 l 1.148926,1.149 A 13,13 0 0 0 37,1028.3622 a 13,13 0 0 0 -3.811769,-9.1883 z m -2.297852,2.298 -1.148926,1.1486 a 8.125,8.125 0 0 1 2.383547,5.7417 8.125,8.125 0 0 1 -2.383547,5.7412 l 1.148926,1.149 a 9.75,9.75 0 0 0 2.859621,-6.8902 9.75,9.75 0 0 0 -2.859621,-6.8903 z M 14.25,1023.4872 c -1.625,0 -3.25,1.625 -3.25,1.625 l 0,6.5 c 0,0 1.625,1.625 3.25,1.625 l 0,-9.75 z m 14.342527,0.2823 -1.148922,1.149 a 4.875,4.875 0 0 1 1.431395,3.4437 4.875,4.875 0 0 1 -1.431395,3.4436 l 1.148922,1.149 a 6.5,6.5 0 0 0 1.907473,-4.5926 6.5,6.5 0 0 0 -1.907473,-4.5927 z"
       id="path4152"
       inkscape:connector-curvature="0" />
  </g>
</svg>
