<?xml version="1.0" encoding="UTF-8" standalone="no"?>
<!-- Created with Inkscape (http://www.inkscape.org/) -->

<svg
   xmlns:dc="http://purl.org/dc/elements/1.1/"
   xmlns:cc="http://creativecommons.org/ns#"
   xmlns:rdf="http://www.w3.org/1999/02/22-rdf-syntax-ns#"
   xmlns:svg="http://www.w3.org/2000/svg"
   xmlns="http://www.w3.org/2000/svg"
   xmlns:xlink="http://www.w3.org/1999/xlink"
   xmlns:sodipodi="http://sodipodi.sourceforge.net/DTD/sodipodi-0.dtd"
   xmlns:inkscape="http://www.inkscape.org/namespaces/inkscape"
   width="48"
   height="48"
   id="svg2"
   version="1.1"
   inkscape:version="0.91+devel r"
   sodipodi:docname="vivaldi.svg"
   viewBox="0 0 48 48">
  <defs
     id="defs4">
    <linearGradient
       id="linearGradient6125"
       inkscape:collect="always">
      <stop
         id="stop6127"
         offset="0"
         style="stop-color:#f81654;stop-opacity:1" />
      <stop
         id="stop6129"
         offset="1"
         style="stop-color:#fd668f;stop-opacity:1" />
    </linearGradient>
    <linearGradient
       gradientUnits="userSpaceOnUse"
       y2="1007.3821"
       x2="28.399813"
       y1="1049.3252"
       x1="28.399813"
       id="linearGradient6131"
       xlink:href="#linearGradient6125"
       inkscape:collect="always"
       gradientTransform="translate(0,4.7900391e-5)" />
  </defs>
  <sodipodi:namedview
     id="base"
     pagecolor="#ffffff"
     bordercolor="#666666"
     borderopacity="1.0"
     inkscape:pageopacity="0.0"
     inkscape:pageshadow="2"
     inkscape:zoom="5.6989126"
     inkscape:cx="-17.551065"
     inkscape:cy="25.303416"
     inkscape:document-units="px"
     inkscape:current-layer="layer1"
     showgrid="false"
     inkscape:window-width="2560"
     inkscape:window-height="957"
     inkscape:window-x="-4"
     inkscape:window-y="29"
     inkscape:window-maximized="1" />
  <metadata
     id="metadata7">
    <rdf:RDF>
      <cc:Work
         rdf:about="">
        <dc:format>image/svg+xml</dc:format>
        <dc:type
           rdf:resource="http://purl.org/dc/dcmitype/StillImage" />
        <dc:title />
      </cc:Work>
    </rdf:RDF>
  </metadata>
  <g
     inkscape:label="Capa 1"
     inkscape:groupmode="layer"
     id="layer1"
     transform="translate(0,-1004.3622)">
    <rect
       style="fill:#000000;fill-opacity:0.01960784;stroke:none"
       id="rect5263"
       width="44.399963"
       height="44.399963"
       x="1.8000183"
       y="1006.1622"
       ry="6.2786646" />
    <rect
       ry="6.1938181"
       y="1006.4623"
       x="2.1000061"
       height="43.799973"
       width="43.799973"
       id="rect5261"
       style="fill:#000000;fill-opacity:0.03921569;stroke:none" />
    <rect
       style="fill:#000000;fill-opacity:0.07843137;stroke:none"
       id="rect5259"
       width="43.199982"
       height="43.199982"
       x="2.3999939"
       y="1006.7624"
       ry="6.1089716" />
    <rect
       ry="6.0241251"
       y="1007.0624"
       x="2.7000122"
       height="42.599991"
       width="42.599991"
       id="rect5257"
       style="fill:#000000;fill-opacity:0.15686275;stroke:none" />
    <rect
       style="fill:url(#linearGradient6131);fill-opacity:1;stroke:none"
       id="rect5237"
       width="42"
       height="42"
       x="3"
       y="1007.3622"
       ry="5.9392786" />
    <path
       inkscape:connector-curvature="0"
       style="fill:#000000;fill-opacity:0.11764706;stroke:none"
       d="m 2.9999991,1040.9247 0,2.5 c 0,3.2904 2.64714,5.9375 5.9375,5.9375 l 30.1249999,0 c 3.29036,0 5.9375,-2.6471 5.9375,-5.9375 l 0,-2.5 c 0,3.2904 -2.64714,5.9375 -5.9375,5.9375 l -30.1249999,0 c -3.29036,0 -5.9375,-2.6471 -5.9375,-5.9375 z"
       id="rect5265" />
    <path
       inkscape:connector-curvature="0"
       style="fill:#000000;fill-opacity:0.09803922;stroke:none"
       d="m 2.9999991,1042.9247 0,0.5 c 0,3.2904 2.64714,5.9375 5.9375,5.9375 l 30.1249999,0 c 3.29036,0 5.9375,-2.6471 5.9375,-5.9375 l 0,-0.5 c 0,3.2904 -2.64714,5.9375 -5.9375,5.9375 l -30.1249999,0 c -3.29036,0 -5.9375,-2.6471 -5.9375,-5.9375 z"
       id="path5252" />
    <path
       sodipodi:nodetypes="ccsscsssccsssssssscsssscc"
       inkscape:connector-curvature="0"
       id="path4173"
       d="m 24.79487,1041.2828 c 0.857017,-0.1816 1.684908,-0.7568 2.210025,-1.5356 0.123517,-0.1831 0.910616,-1.5251 1.749113,-2.9821 0.838493,-1.4571 3.244459,-5.6295 5.346587,-9.272 2.102122,-3.6425 3.89883,-6.7841 3.992669,-6.9814 0.52775,-1.1093 0.452611,-2.4663 -0.191773,-3.4632 -0.645317,-0.9985 -1.685359,-1.6073 -2.856029,-1.672 -1.676755,-0.093 -3.292184,1.0957 -3.670407,2.7002 -0.117391,0.4981 -0.117361,1.2958 4.4e-5,1.7489 0.05093,0.1965 0.201064,0.6037 0.333599,0.905 0.609565,1.3852 0.716486,2.6174 0.351339,4.0491 -0.505152,1.9807 -2.099032,3.5439 -4.179281,4.0989 -0.570269,0.1521 -1.820375,0.1844 -2.460827,0.064 -1.122611,-0.2121 -2.038423,-0.6648 -2.791962,-1.3803 -0.795798,-0.7557 -0.804162,-0.7686 -3.297068,-5.096 -3.473853,-6.0302 -3.296565,-5.7426 -3.856568,-6.2545 -1.129561,-1.0323 -2.968213,-1.136 -4.336568,-0.2445 -0.956927,0.6236 -1.5070184,1.6016 -1.5724534,2.7962 -0.03613,0.6598 0.04855,1.1239 0.309052,1.6931 0.07761,0.1697 0.8805844,1.5921 1.7844194,3.1609 4.581312,7.9524 6.015022,10.4378 7.542656,13.0752 2.02022,3.4877 1.907464,3.3077 2.329982,3.722 0.484593,0.4752 1.125784,0.8118 1.74346,0.9152 0.346224,0.058 1.141769,0.035 1.519981,-0.046 z"
       style="fill:#000000;fill-opacity:0.49803922;stroke-width:0.06020755" />
  </g>
</svg>
