<?xml version="1.0" encoding="UTF-8" standalone="no"?>
<!-- Created with Inkscape (http://www.inkscape.org/) -->

<svg
   xmlns:dc="http://purl.org/dc/elements/1.1/"
   xmlns:cc="http://creativecommons.org/ns#"
   xmlns:rdf="http://www.w3.org/1999/02/22-rdf-syntax-ns#"
   xmlns:svg="http://www.w3.org/2000/svg"
   xmlns="http://www.w3.org/2000/svg"
   xmlns:xlink="http://www.w3.org/1999/xlink"
   xmlns:sodipodi="http://sodipodi.sourceforge.net/DTD/sodipodi-0.dtd"
   xmlns:inkscape="http://www.inkscape.org/namespaces/inkscape"
   width="48"
   height="48"
   id="svg5453"
   version="1.1"
   inkscape:version="0.91+devel r"
   sodipodi:docname="xnview.svg">
  <defs
     id="defs5455">
    <linearGradient
       inkscape:collect="always"
       id="linearGradient6075">
      <stop
         style="stop-color:#ec7928;stop-opacity:1"
         offset="0"
         id="stop6077" />
      <stop
         style="stop-color:#f29e34;stop-opacity:1"
         offset="1"
         id="stop6079" />
    </linearGradient>
    <linearGradient
       gradientTransform="translate(384.57144,-504.56411)"
       inkscape:collect="always"
       xlink:href="#linearGradient6075"
       id="linearGradient6081"
       x1="37.957897"
       y1="1049.3441"
       x2="37.957897"
       y2="1007.4396"
       gradientUnits="userSpaceOnUse" />
  </defs>
  <sodipodi:namedview
     id="base"
     pagecolor="#ffffff"
     bordercolor="#666666"
     borderopacity="1.0"
     inkscape:pageopacity="0"
     inkscape:pageshadow="2"
     inkscape:zoom="5.9663713"
     inkscape:cx="13.177558"
     inkscape:cy="37.340983"
     inkscape:document-units="px"
     inkscape:current-layer="layer1"
     showgrid="false"
     fit-margin-top="0"
     fit-margin-left="0"
     fit-margin-right="0"
     fit-margin-bottom="0"
     inkscape:window-width="1366"
     inkscape:window-height="670"
     inkscape:window-x="-4"
     inkscape:window-y="29"
     inkscape:window-maximized="1"
     showguides="true"
     inkscape:guide-bbox="true" />
  <metadata
     id="metadata5458">
    <rdf:RDF>
      <cc:Work
         rdf:about="">
        <dc:format>image/svg+xml</dc:format>
        <dc:type
           rdf:resource="http://purl.org/dc/dcmitype/StillImage" />
        <dc:title />
      </cc:Work>
    </rdf:RDF>
  </metadata>
  <g
     inkscape:label="Capa 1"
     inkscape:groupmode="layer"
     id="layer1"
     transform="translate(-384.57143,-499.798)">
    <rect
       style="fill:#000000;fill-opacity:0.01960784;stroke:none"
       id="rect5263"
       width="44.399963"
       height="44.399963"
       x="386.37146"
       y="501.59802"
       ry="6.2786646" />
    <rect
       ry="6.1938181"
       y="501.89813"
       x="386.67145"
       height="43.799973"
       width="43.799973"
       id="rect5261"
       style="fill:#000000;fill-opacity:0.03921569;stroke:none" />
    <rect
       style="fill:#000000;fill-opacity:0.07843137;stroke:none"
       id="rect5259"
       width="43.199982"
       height="43.199982"
       x="386.97144"
       y="502.19824"
       ry="6.1089716" />
    <rect
       ry="6.0241251"
       y="502.49823"
       x="387.27145"
       height="42.599991"
       width="42.599991"
       id="rect5257"
       style="fill:#000000;fill-opacity:0.15686275;stroke:none" />
    <rect
       style="fill:url(#linearGradient6081);fill-opacity:1;stroke:none"
       id="rect5237"
       width="42"
       height="42"
       x="387.57144"
       y="502.79803"
       ry="5.9392786" />
    <path
       inkscape:connector-curvature="0"
       style="fill:#000000;fill-opacity:0.11764706;stroke:none"
       d="m 387.57144,536.36054 0,2.5 c 0,3.2904 2.64714,5.9375 5.9375,5.9375 l 30.125,0 c 3.29036,0 5.9375,-2.6471 5.9375,-5.9375 l 0,-2.5 c 0,3.2904 -2.64714,5.9375 -5.9375,5.9375 l -30.125,0 c -3.29036,0 -5.9375,-2.6471 -5.9375,-5.9375 z"
       id="rect5265" />
    <path
       inkscape:connector-curvature="0"
       style="fill:#000000;fill-opacity:0.09803922;stroke:none"
       d="m 387.57144,538.36054 0,0.5 c 0,3.2904 2.64714,5.9375 5.9375,5.9375 l 30.125,0 c 3.29036,0 5.9375,-2.6471 5.9375,-5.9375 l 0,-0.5 c 0,3.2904 -2.64714,5.9375 -5.9375,5.9375 l -30.125,0 c -3.29036,0 -5.9375,-2.6471 -5.9375,-5.9375 z"
       id="path5252" />
    <path
       style="fill:#000000;fill-opacity:0.49803922"
       d="m 412.97488,514.03881 c -0.1835,-0.01 -0.43153,0.10968 -0.77608,0.36761 -0.20122,0.15064 -0.47872,0.33854 -0.6164,0.41713 -0.45602,0.26046 -0.58821,0.42044 -0.94812,1.14493 -0.1885,0.37935 -0.36266,0.79977 -0.38742,0.9345 -0.0249,0.13537 -0.10706,0.31803 -0.18319,0.40847 -0.15853,0.1884 -0.13388,0.28795 0.11882,0.46787 l 0.15349,0.10892 0.14729,-0.2624 c 0.081,-0.14424 0.16534,-0.26241 0.1869,-0.26241 0.0521,-6e-5 0.051,0.006 -0.0396,0.26117 -0.10901,0.30901 -0.0999,0.35905 0.0805,0.46045 0.087,0.0488 0.17131,0.14149 0.18814,0.2067 0.0588,0.22808 0.79781,0.72466 1.22662,0.82435 0.12077,0.0279 0.13569,0.0159 0.13986,-0.11511 0.003,-0.0811 0.0443,-0.24152 0.0928,-0.35648 0.0485,-0.11502 0.12055,-0.31494 0.15967,-0.44435 0.0745,-0.24621 0.30054,-0.57274 0.35771,-0.51615 0.0183,0.0184 -0.0537,0.1908 -0.15967,0.38371 -0.15364,0.27947 -0.19727,0.42295 -0.21785,0.71047 -0.0176,0.24646 -0.005,0.38535 0.0396,0.43941 0.0361,0.0437 0.13007,0.0792 0.20794,0.0792 0.12595,0 0.14778,-0.0265 0.19928,-0.24755 0.0535,-0.22922 0.0494,-0.25543 -0.0557,-0.33667 l -0.11387,-0.0879 0.11387,-0.1213 c 0.0629,-0.0669 0.17248,-0.25324 0.24384,-0.41465 0.13563,-0.30673 0.34265,-0.51615 0.5112,-0.51615 0.18692,0 0.1624,0.14495 -0.0594,0.34534 -0.11915,0.10773 -0.25394,0.26807 -0.29954,0.35647 -0.0684,0.13252 -0.0244,0.10514 0.25498,-0.15596 0.18636,-0.17415 0.49045,-0.42234 0.67458,-0.5508 0.28661,-0.19994 0.34035,-0.26288 0.37627,-0.44064 0.0647,-0.3201 0.0593,-0.34279 -0.1609,-0.73152 -0.14036,-0.24785 -0.24212,-0.36982 -0.31811,-0.38123 -0.13529,-0.0203 -0.24025,-0.21562 -0.28716,-0.53223 -0.0883,-0.59609 -0.38247,-1.19175 -0.68696,-1.39125 -0.0479,-0.0311 -0.10221,-0.0488 -0.16338,-0.052 z m -7.16044,0.55204 -0.41094,0.0607 c -0.32377,0.0482 -0.43583,0.0891 -0.531,0.19185 -0.13362,0.14418 -0.25593,0.1578 -0.69067,0.0767 -0.56971,-0.10627 -1.41434,0.0846 -1.59176,0.36019 -0.0647,0.10045 -0.068,0.17248 -0.0223,0.3998 0.0406,0.20184 0.0396,0.33135 -0.004,0.47654 -0.091,0.30374 -0.0724,0.55816 0.0631,0.85653 0.0677,0.14905 0.13999,0.36529 0.16091,0.48025 0.0209,0.11496 0.0966,0.32693 0.16833,0.47034 0.0898,0.1796 0.1212,0.30755 0.10026,0.41218 -0.0409,0.20476 0.0466,0.29335 0.28963,0.29335 0.19585,0 0.203,-0.006 0.203,-0.17824 0,-0.34203 0.0647,-0.38706 0.15348,-0.10645 0.0817,0.25831 0.0814,0.25888 0.32924,0.27479 0.13655,0.009 0.24879,0.0385 0.24879,0.0668 0,0.0279 0.0529,0.0748 0.11759,0.10273 0.12763,0.0551 1.26282,0.033 1.40981,-0.0272 0.0798,-0.033 0.0814,-0.0533 0.0186,-0.17576 -0.039,-0.0762 -0.0994,-0.28052 -0.13492,-0.45302 -0.0355,-0.17244 -0.0953,-0.3841 -0.13244,-0.47035 -0.0739,-0.17162 -0.0921,-0.28544 -0.0829,-0.51986 0.0111,-0.28429 0.11435,-0.0624 0.18319,0.39484 0.0934,0.62043 0.34531,1.09171 0.58298,1.09171 0.20075,0 0.2507,-0.11696 0.17081,-0.3998 -0.0548,-0.19411 -0.0996,-0.25603 -0.20051,-0.27973 -0.11648,-0.0272 -0.1328,-0.064 -0.16339,-0.36762 -0.0187,-0.18562 -0.06,-0.41947 -0.0916,-0.51986 -0.11871,-0.37719 -0.0376,-0.86142 0.13863,-0.82682 0.0695,0.0133 0.0932,0.0743 0.0978,0.2525 0.0179,0.70085 0.0358,0.74072 0.0829,0.18195 0.0267,-0.31617 0.0326,-0.81049 0.0136,-1.09789 -0.0345,-0.52175 -0.0345,-0.52226 -0.25498,-0.77112 l -0.22032,-0.25003 -10e-4,0 z m -7.60851,2.5436 c -0.14334,-0.0133 -0.78718,0.48669 -0.82435,0.64734 -0.0318,0.13759 -0.19786,0.23987 -0.64116,0.39361 -0.35462,0.12301 -0.85904,0.47437 -1.04096,0.72533 -0.19038,0.26268 -0.1705,0.44429 0.0755,0.6981 0.0926,0.0956 0.25067,0.34376 0.35152,0.5508 0.16258,0.33391 0.21322,0.39145 0.44683,0.50996 0.1449,0.0736 0.37477,0.21063 0.5112,0.30449 0.13642,0.0939 0.35144,0.20575 0.47777,0.24879 0.12633,0.0431 0.2674,0.13563 0.31316,0.20546 0.10706,0.16338 0.17587,0.1598 0.39113,-0.0198 l 0.17576,-0.14729 -0.17576,-0.16463 c -0.22428,-0.20957 -0.17151,-0.26485 0.10149,-0.10768 l 0.21042,0.1213 0.17453,-0.16957 c 0.0962,-0.0933 0.21784,-0.16958 0.26983,-0.16958 0.052,0 0.18684,-0.0729 0.29954,-0.16214 0.21331,-0.16896 0.77731,-0.80676 0.77731,-0.87881 0,-0.0228 -0.0932,-0.0825 -0.20671,-0.13368 -0.11356,-0.0513 -0.25423,-0.13821 -0.31315,-0.19309 -0.0589,-0.0551 -0.10768,-0.0866 -0.10768,-0.0705 0,0.0702 -0.42452,-0.19662 -0.50253,-0.31563 -0.13384,-0.20432 -0.0557,-0.20139 0.19185,0.007 0.4488,0.37492 0.98554,0.54309 1.16349,0.36514 0.14593,-0.14595 0.10885,-0.27921 -0.10273,-0.36761 -0.17125,-0.0716 -0.20403,-0.0715 -0.31316,0 -0.11263,0.0738 -0.1269,0.0711 -0.18813,-0.0297 -0.0364,-0.0602 -0.19927,-0.19189 -0.36267,-0.29335 -0.36248,-0.2251 -0.52689,-0.49733 -0.38494,-0.63744 0.0803,-0.0793 0.0915,-0.0778 0.14482,0.0161 0.0847,0.14956 0.46459,0.55204 0.52109,0.55204 0.0267,0 -0.055,-0.1355 -0.18071,-0.30078 -0.12571,-0.16528 -0.35187,-0.48066 -0.50253,-0.70057 -0.24551,-0.35838 -0.29359,-0.40154 -0.46664,-0.42208 -0.10618,-0.0127 -0.22795,-0.0386 -0.27107,-0.0569 l -0.0124,0 0,-0.005 z m 21.66204,1.13007 c -0.0541,0 -0.1135,0.0339 -0.17082,0.1015 -0.0738,0.0868 -0.0953,0.16769 -0.0755,0.28468 0.0243,0.14424 0.0107,0.16829 -0.11263,0.19928 -0.0771,0.0196 -0.27006,0.12812 -0.42827,0.24136 -0.32126,0.23011 -0.46239,0.253 -0.64363,0.10521 -0.13829,-0.1128 -0.15426,-0.10177 0.32676,-0.23517 0.16153,-0.045 0.32324,-0.11664 0.35895,-0.15967 0.0564,-0.0679 0.0457,-0.0715 -0.0842,-0.0272 -0.25069,0.0855 -0.97238,0.20918 -1.22167,0.20918 -0.20657,6e-5 -0.25861,0.0249 -0.43074,0.20794 -0.19425,0.20647 -0.19557,0.21308 -0.19557,0.64611 0,0.36193 0.0174,0.45712 0.10397,0.557 0.12906,0.1488 0.13004,0.19486 0.006,0.50995 -0.15332,0.38899 -0.22694,0.98084 -0.16338,1.3145 0.0579,0.30413 0.11935,0.40893 0.28592,0.48149 0.0585,0.0254 0.2716,0.0326 0.47282,0.0161 0.20123,-0.0165 0.64773,-0.0459 0.99269,-0.0668 0.5987,-0.0361 0.8992,-0.11687 0.99144,-0.26611 0.017,-0.0272 0.22831,-0.16895 0.46911,-0.31439 0.2408,-0.14545 0.51343,-0.35297 0.60651,-0.46045 0.0931,-0.10755 0.26564,-0.24187 0.3837,-0.29954 0.17317,-0.0847 0.21756,-0.13665 0.23023,-0.26612 0.009,-0.0969 -0.0208,-0.20666 -0.078,-0.27726 l -0.0953,-0.11635 -0.21661,0.15596 c -0.28473,0.20622 -0.33222,0.14514 -0.0842,-0.10892 l 0.19681,-0.20176 -0.1114,-0.19556 c -0.066,-0.11464 -0.1034,-0.2485 -0.0891,-0.3243 0.0148,-0.0786 -0.0295,-0.23047 -0.11387,-0.38865 -0.1547,-0.29006 -0.63699,-0.91594 -0.70553,-0.91594 -0.0243,0 -0.0575,0.0422 -0.0743,0.0953 -0.0168,0.0532 -0.2077,0.25297 -0.42455,0.44436 -0.28457,0.25115 -0.43328,0.34755 -0.53472,0.34533 -0.1284,0 -0.13306,-0.009 -0.0446,-0.0656 0.48971,-0.31458 0.64836,-0.4535 0.76494,-0.67334 0.10547,-0.19886 0.11903,-0.26967 0.0767,-0.38989 -0.0375,-0.10666 -0.0988,-0.16215 -0.16833,-0.16215 z m -6.7656,1.90368 c -0.0675,0 -0.14913,0.006 -0.26488,0.0173 -0.19524,0.0215 -0.3689,0.0535 -0.38494,0.0693 -0.0778,0.0777 0.0696,0.14013 0.3379,0.14482 0.1636,0 0.35517,0.0242 0.42703,0.047 0.0719,0.0228 0.19829,0.0445 0.27973,0.047 0.20182,0.007 0.15731,-0.0969 -0.10025,-0.23642 -0.11153,-0.0602 -0.18213,-0.0862 -0.29459,-0.0891 z m -3.58827,0.14729 c -0.30006,3.2e-4 -0.65461,-1.5e-4 -1.07809,0.006 -2.34985,0.0222 -2.8915,0.0592 -3.7108,0.25374 -0.28746,0.0682 -0.72235,0.15153 -0.96669,0.18442 -1.13007,0.1521 -2.67921,0.59017 -3.35309,0.94937 -0.3772,0.20102 -0.97163,0.74842 -1.38877,1.2786 -0.1785,0.22688 -0.37085,0.44111 -0.42826,0.47654 -0.0574,0.0355 -0.12789,0.15286 -0.15596,0.26117 -0.17548,0.6774 -0.16487,0.65346 -0.27355,0.62507 -0.17528,-0.0456 -0.21606,0.17338 -0.1869,1.00877 0.0392,1.12424 0.26236,1.85323 0.68448,2.23663 0.10365,0.0941 0.18813,0.19994 0.18814,0.23518 1e-5,0.0355 0.12853,0.20218 0.28469,0.37133 0.21957,0.23777 0.30529,0.29876 0.37875,0.26859 0.22699,-0.0932 0.2699,-0.0792 0.55699,0.18319 0.3035,0.27738 0.3522,0.37973 0.21909,0.45426 -0.10061,0.0564 -0.0599,0.10528 0.31191,0.38742 0.78121,0.59298 1.65991,1.1523 3.0944,1.97051 0.46559,0.2656 0.85932,0.52464 0.8751,0.57432 0.0674,0.21243 0.84703,0.57495 1.70068,0.79093 0.24434,0.0621 0.66264,0.17166 0.92956,0.24384 0.94097,0.2545 1.72192,0.26564 3.28625,0.0458 0.62545,-0.0878 1.06324,-0.10186 1.06324,-0.0334 0,0.0826 -0.45798,0.17555 -1.15731,0.23518 -0.43352,0.0368 -0.6964,0.0815 -0.70923,0.12006 -0.0112,0.0336 0.0339,0.0727 0.10025,0.0854 0.23895,0.0456 1.5486,0.0358 1.80837,-0.0136 0.14608,-0.0279 0.35603,-0.0892 0.4654,-0.13615 l 0.19804,-0.0854 -0.27602,-0.10644 c -0.15191,-0.0589 -0.26778,-0.13246 -0.25745,-0.16339 0.0408,-0.12237 0.54427,-0.35593 1.14245,-0.52976 0.34608,-0.10057 0.67417,-0.18319 0.72904,-0.18319 0.26246,0 -0.0399,0.22027 -0.50129,0.36514 -0.24972,0.0785 -0.35224,0.1572 -0.20423,0.1572 0.13421,0 0.66279,-0.13296 0.95183,-0.24013 0.21372,-0.0792 0.22084,-0.0886 0.13863,-0.17947 -0.0733,-0.081 -0.0765,-0.12438 -0.0247,-0.28098 0.089,-0.26984 0.0394,-0.31017 -0.33296,-0.27354 -0.30929,0.0304 -0.31608,0.0286 -0.20547,-0.0582 0.0628,-0.0494 0.20994,-0.14867 0.32677,-0.21908 0.11683,-0.0705 0.21289,-0.14657 0.21289,-0.16957 0,-0.0732 -0.37344,-0.0462 -1.03229,0.073 -0.49771,0.0902 -0.65431,0.10202 -0.70304,0.0532 -0.0487,-0.0488 -0.026,-0.10114 0.10397,-0.23518 0.0919,-0.0949 0.16709,-0.2172 0.16709,-0.27106 0,-0.0539 0.0391,-0.14056 0.0866,-0.1931 0.0822,-0.0908 0.0775,-0.0964 -0.0916,-0.0953 -0.0979,0 -0.27579,0.0467 -0.39608,0.10149 -0.30048,0.13645 -1.98117,0.17925 -2.13266,0.0545 -0.0719,-0.0589 -0.23788,-0.0776 -0.67582,-0.078 -0.53506,-4.5e-4 -0.61368,-0.0148 -1.02362,-0.177 -0.34829,-0.13793 -0.55627,-0.24926 -0.56442,-0.29583 -6e-5,-0.0133 0.0158,-0.021 0.0545,-0.021 0.0482,0 0.29445,0.0479 0.54709,0.10768 0.27277,0.0645 0.55991,0.10008 0.708,0.0867 0.22411,-0.0203 0.24674,-0.0129 0.21908,0.0743 -0.0246,0.0774 -0.003,0.0965 0.10521,0.0965 0.20354,0 0.43725,-0.11565 0.78598,-0.38866 0.22701,-0.1777 0.31754,-0.22356 0.32924,-0.1671 0.0226,0.10894 0.37447,0.054 0.48892,-0.0767 0.10615,-0.12104 0.18201,-0.12518 0.29211,-0.0148 0.0774,0.0774 0.0919,0.0732 0.18319,-0.052 0.0743,-0.10215 0.13028,-0.12907 0.22032,-0.10644 0.12675,0.0317 0.4828,-0.12088 0.59412,-0.25498 0.0347,-0.0418 0.22649,-0.17895 0.42579,-0.30449 0.28821,-0.18156 0.35723,-0.24975 0.33791,-0.33296 -0.0456,-0.19614 0.32006,-0.69243 0.4295,-0.58298 0.0221,0.0222 0.007,0.0608 -0.0346,0.0866 -0.0414,0.026 -0.0584,0.0642 -0.0371,0.0854 0.003,0.003 0.008,0.001 0.0111,0.004 0.002,0.001 0.004,2.3e-4 0.006,0.001 0.0222,0.0101 0.0469,0.003 0.0681,-0.0186 0.034,-0.0349 0.0591,-0.0962 0.047,-0.15719 -0.0148,-0.075 -0.067,-0.0978 -0.22774,-0.0978 -0.13423,0 -0.20514,-0.0231 -0.20176,-0.0656 0.003,-0.0361 0.008,-0.15852 0.0124,-0.27354 0.009,-0.24862 0.0792,-0.26784 0.19061,-0.052 0.0446,0.0862 0.11548,0.15596 0.1572,0.15596 0.17792,0 0.32719,-0.51394 0.23889,-0.82187 -0.0402,-0.14044 -0.0271,-0.17882 0.10149,-0.30202 0.10968,-0.10507 0.17041,-0.24172 0.23394,-0.52728 0.0471,-0.21173 0.10931,-0.39853 0.13739,-0.41589 0.0281,-0.0171 0.0361,-0.0774 0.0186,-0.13244 -0.0178,-0.0558 -0.008,-0.099 0.0235,-0.099 0.0307,0 0.0569,-0.0692 0.0569,-0.15348 0,-0.11072 -0.0447,-0.18513 -0.15843,-0.26612 -0.15567,-0.11084 -0.17182,-0.2315 -0.0235,-0.17453 0.16278,0.0627 0.0195,-0.32832 -0.25993,-0.70923 0,0 0,-0.001 0,-0.001 -0.21541,-0.29348 -0.30077,-0.49391 -0.23641,-0.55823 0.0269,-0.0266 0.0244,-0.0785 -0.005,-0.12378 -0.0442,-0.0674 -0.0615,-0.0651 -0.12625,0.0198 -0.0434,0.057 -0.10879,0.085 -0.15596,0.0668 -0.0956,-0.0368 -0.14248,-0.1523 -0.24755,-0.59908 -0.0637,-0.27073 -0.0653,-0.32419 -0.007,-0.30201 0.0321,0.0123 0.0496,0.005 0.0594,-0.01 0,0 0.001,-10e-4 0.001,-10e-4 0.007,-0.0122 0.01,-0.0283 0.005,-0.0483 -0.0576,-0.0494 -0.10909,-0.0945 -0.15596,-0.13615 -0.048,-0.0101 -0.1035,-0.0108 -0.14481,0 -0.0623,0.0165 -0.15001,-3.2e-4 -0.19557,-0.0396 -0.0752,-0.0621 -0.0746,-0.0744 0.01,-0.13615 0.0293,-0.0213 0.0678,-0.0369 0.11264,-0.047 9e-5,-10e-4 -7e-5,-10e-4 0,-0.002 0,0 0.001,0 0.001,0 0.5392,-0.12162 2.09029,0.52211 2.23415,0.97535 0.0178,0.0558 0.21614,0.24278 0.44188,0.41465 0.22575,0.17181 0.57872,0.47708 0.78351,0.6783 0.37397,0.36731 0.78202,0.68076 0.88623,0.68076 0.22393,0 -0.23416,-0.79637 -0.80702,-1.40362 -0.52674,-0.55832 -0.35963,-0.59171 0.29459,-0.0582 0.21028,0.17136 0.41079,0.31191 0.44559,0.31191 0.0801,0 0.13834,-0.17935 0.099,-0.30325 -0.0165,-0.052 -0.14101,-0.16406 -0.27725,-0.24879 -0.51141,-0.31788 -0.90449,-0.78124 -0.57433,-0.67705 0.38552,0.12167 0.46942,0.0889 0.35029,-0.13368 -0.0525,-0.0981 -0.41681,-0.30858 -0.67086,-0.38742 -0.11417,-0.0355 -0.12171,-0.0273 -0.0904,0.0978 0.0523,0.20863 -0.0473,0.1696 -0.38866,-0.15595 -0.2303,-0.21972 -0.32836,-0.36074 -0.39361,-0.56195 -0.14964,-0.46154 -0.43874,-0.66096 -0.95802,-0.66096 -0.22206,0 -0.23142,0.009 -0.28964,0.27478 -0.0387,0.17681 -0.12002,0.18492 -0.18319,0.0186 -0.1319,-0.34691 -1.36885,-0.86248 -2.51141,-1.04715 -0.25712,-0.0418 -0.66062,-0.0588 -1.56082,-0.0582 z m -1.23776,1.66231 c 0.25324,0.006 0.56532,0.0381 0.93699,0.0965 0.24851,0.0393 0.35832,0.0767 0.48767,0.17823 -1.6e-4,-10e-4 1.6e-4,-10e-4 0,-0.002 0.0245,0.019 0.0499,0.0402 0.0768,0.0644 0.19721,0.17814 0.20682,0.18016 0.23517,0.0718 6.3e-4,-0.006 10e-4,-0.006 0.002,-0.009 -0.009,-0.031 0.0145,-0.0426 0.0186,-0.0904 -1.5e-4,0.004 10e-4,-7.2e-4 10e-4,0.004 -0.003,0.0532 -0.0289,0.0618 -0.0198,0.0941 0.0257,-0.0901 0.0624,-0.10016 0.26364,-0.0804 0.182,0.0177 0.28955,0.0576 0.31191,0.10892 0.005,0.0135 0.005,0.0284 -0.002,0.0433 -0.009,0.0167 -0.0252,0.034 -0.0495,0.052 -0.12162,0.0899 -0.11553,0.13492 0.0186,0.13492 0.0764,0 0.10132,0.0237 0.0804,0.078 -0.0205,0.0532 0.0243,0.10221 0.1411,0.15101 0.20034,0.0837 0.64974,0.57434 0.69934,0.7637 0.0183,0.0719 0.14586,0.23287 0.28468,0.35771 0.19362,0.17409 0.25251,0.2639 0.25251,0.38247 0,0.085 0.0398,0.22862 0.0879,0.32058 0.0499,0.0954 0.0861,0.28045 0.0842,0.4295 -10e-6,0.002 4e-5,0.005 0,0.007 -3.8e-4,0.0702 0.007,0.14886 0.0198,0.22032 1.4e-4,7.8e-4 -1.4e-4,0.002 0,0.002 0.013,0.0727 0.0315,0.13733 0.052,0.177 0.0743,0.14404 0.0737,0.14641 -0.0706,0.1312 -0.15649,-0.0165 -0.16066,-4.8e-4 -0.0606,0.25498 0.0583,0.14975 0.0508,0.19267 -0.0767,0.42702 -0.0971,0.17846 -0.15914,0.39733 -0.19556,0.69563 0,0 0,10e-4 0,10e-4 -0.0292,0.23924 -0.0778,0.5172 -0.10893,0.61764 -0.0736,0.23727 -0.27836,0.45251 -0.49758,0.52481 -0.0959,0.0317 -0.1744,0.0735 -0.17452,0.0928 -1.2e-4,0.0196 -0.0468,0.11167 -0.10397,0.20547 -0.0898,0.14734 -0.11696,0.16307 -0.20176,0.11016 -0.0802,-0.0501 -0.12795,-0.0412 -0.25745,0.0507 -0.18776,0.13366 -0.22032,0.13935 -0.22032,0.0347 0,-0.10501 -0.10215,-0.0988 -0.43074,0.026 -0.15123,0.0577 -0.33932,0.10391 -0.41837,0.10398 -0.079,0 -0.14358,0.0235 -0.14358,0.052 0,0.0719 -0.54121,0.0663 -0.61393,-0.006 -0.0435,-0.0437 -0.10172,-0.0437 -0.22651,0 -0.18448,0.0643 -0.51862,0.0791 -0.51862,0.0235 0,-0.0197 0.0385,-0.078 0.0866,-0.1312 0.11892,-0.13137 0.0156,-0.25489 -0.13492,-0.16091 -0.10808,0.0675 -0.37388,0.0145 -0.65725,-0.12997 -0.19345,-0.0986 -0.23416,-0.15593 -0.23518,-0.33914 -6.3e-4,-0.14373 0.11501,-0.20069 0.18319,-0.0904 0.0181,0.0291 0.0565,0.0382 0.0854,0.0198 0.0309,-0.019 0.005,-0.0833 -0.0631,-0.15596 -0.0638,-0.068 -0.1347,-0.11166 -0.15719,-0.0978 -0.0225,0.0139 -0.0548,-0.0194 -0.0718,-0.073 -0.017,-0.0532 -0.0873,-0.12224 -0.15596,-0.15348 -0.0717,-0.033 -0.13847,-0.12024 -0.1572,-0.20547 -0.0179,-0.0816 -0.11765,-0.21659 -0.22155,-0.29954 -0.1654,-0.13194 -0.17836,-0.15817 -0.10521,-0.21166 0.0749,-0.0551 0.075,-0.0861 0.007,-0.31068 -0.0414,-0.13764 -0.0602,-0.27521 -0.0421,-0.30448 0.0181,-0.0292 0.0373,-0.13292 0.0433,-0.23147 0.006,-0.0985 0.062,-0.24202 0.12378,-0.31934 0.0617,-0.0774 0.16872,-0.24668 0.23765,-0.37628 0.17524,-0.32966 0.31674,-0.49373 0.38865,-0.4493 0.0334,0.0209 0.0607,0.0712 0.0607,0.11263 0,0.12238 0.0685,0.0837 0.23518,-0.13368 0.19609,-0.25571 0.44913,-0.36584 0.58422,-0.25374 0.0676,0.0564 0.58653,0.035 0.78103,-0.0309 0.0855,-0.0292 0.11661,-0.0126 0.13863,0.0718 0.0162,0.0621 0.071,0.10892 0.12748,0.10892 0.2726,0 1.04582,0.71557 0.91471,0.84663 -0.043,0.0431 -0.0862,0.0248 -0.16339,-0.0681 l -0.1052,-0.12501 -0.002,0.11759 c -10e-4,0.0678 0.0301,0.11758 0.073,0.11758 0.041,0 0.0844,0.0402 0.0953,0.0904 0.02,0.0924 -0.21086,0.84259 -0.32429,1.05457 -0.0806,0.15058 -0.35894,0.31773 -0.52976,0.31811 -0.0746,0 -0.17819,0.0467 -0.23022,0.10397 -0.0965,0.10659 -0.33795,0.13163 -0.59041,0.0607 -0.14764,-0.0418 -0.14978,-0.14352 -0.002,-0.12502 0.0667,0.008 0.11519,-0.0229 0.1312,-0.0842 0.005,-0.0195 0.0138,-0.0358 0.0248,-0.0483 0,0 0,-10e-4 0,-10e-4 0.036,-0.0384 0.11426,-0.0456 0.3082,-0.0421 0.23302,0.006 0.33009,-0.017 0.40103,-0.0891 0.0903,-0.0916 0.0785,-0.0946 -0.35028,-0.0767 -0.24434,0.0101 -0.48565,0.0384 -0.53595,0.0619 -0.0669,0.031 -0.0916,0.0194 -0.0916,-0.0421 0,-0.0463 -0.0376,-0.0829 -0.0842,-0.0829 -0.0715,0 -0.0816,-0.0507 -0.0619,-0.32306 0.0213,-0.2943 0.0404,-0.33888 0.21537,-0.49015 0.10559,-0.0913 0.19185,-0.18968 0.19185,-0.21908 0,-0.0745 0.29475,-0.18926 0.39113,-0.15225 0.0436,0.0165 0.0802,0.0726 0.0805,0.12378 2.7e-4,0.0551 0.0879,0.14175 0.21661,0.21165 0.11938,0.0648 0.21994,0.11133 0.22279,0.10398 0.003,-0.008 0.0484,-0.0644 0.1015,-0.12749 0.0943,-0.11217 0.0937,-0.11934 -0.0223,-0.28221 -0.10381,-0.14582 -0.12634,-0.15562 -0.17948,-0.0829 -0.0542,0.0742 -0.0814,0.0687 -0.25126,-0.052 -0.16461,-0.11711 -0.18178,-0.15039 -0.13244,-0.2426 0.0458,-0.0856 0.0379,-0.11993 -0.0384,-0.17576 -0.11421,-0.0835 -0.20429,-0.0872 -0.33915,-0.0149 -0.0103,0.006 -0.0233,0.0235 -0.0347,0.0334 -0.004,0.003 -0.007,0.006 -0.0111,0.01 -0.1145,0.10884 -0.26488,0.38877 -0.26488,0.51738 0,0.1296 -0.10518,0.25565 -0.24879,0.2983 -0.0961,0.0285 -0.11758,0.0144 -0.11758,-0.0767 0,-0.14576 0.0895,-0.31124 0.25002,-0.46168 0.0913,-0.0856 0.11339,-0.13784 0.0743,-0.177 -0.0894,-0.0894 -0.20885,-0.009 -0.3738,0.25126 -0.2483,0.39152 -0.30168,0.79139 -0.17577,1.31574 0.0222,0.0928 0.0101,0.11069 -0.0557,0.0854 -0.0517,-0.0196 -0.0957,5.6e-4 -0.11635,0.0557 -0.0396,0.10305 0.0197,0.17574 0.16338,0.19805 0.17281,0.0266 0.24142,0.0936 0.20671,0.20299 -0.044,0.13866 0.0788,0.31341 0.3082,0.43693 0.24008,0.12928 0.24395,0.20544 0.007,0.1671 -0.1317,-0.0216 -0.18319,-0.01 -0.18319,0.0396 0,0.16332 0.59395,0.17772 1.17711,0.0285 0.24756,-0.0634 0.42203,-0.0856 0.44064,-0.0557 0.0475,0.0768 0.12243,0.007 0.36142,-0.34905 0.316,-0.46883 0.47629,-0.42383 0.29707,0.0842 -0.0724,0.20508 -0.0712,0.21537 0.026,0.21537 0.0603,0 0.1015,0.0356 0.1015,0.0866 0,0.0764 0.0132,0.0752 0.11016,-0.0124 0.0548,-0.0496 0.0842,-0.12764 0.0879,-0.23146 0.004,-0.10367 -0.0183,-0.2341 -0.0656,-0.39113 -0.0248,-0.0824 0.01,-0.12686 0.16586,-0.20919 0.11361,-0.0602 0.23227,-0.17547 0.27726,-0.2723 0.0866,-0.18638 0.15456,-0.22134 0.15967,-0.0805 0.003,0.0644 0.0193,0.0541 0.0557,-0.0371 0.0378,-0.0949 0.0325,-0.14402 -0.0173,-0.18319 -0.0374,-0.0291 -0.0753,-0.13577 -0.0842,-0.23641 -0.009,-0.10064 -0.0755,-0.30339 -0.14853,-0.45055 -0.13102,-0.26407 -0.14699,-0.43835 -0.0433,-0.47282 0.11065,-0.0368 0.44052,0.30025 0.49634,0.50748 0.0305,0.11344 0.076,0.20671 0.10026,0.20671 0.0873,0 0.0971,-0.21616 0.0247,-0.52605 -0.12286,-0.5267 -0.3033,-0.77994 -0.37133,-0.51986 -0.0359,0.13733 -0.0903,0.13328 -0.15719,-0.0136 -0.0968,-0.21255 -0.33302,-0.45398 -0.74018,-0.75627 -0.36142,-0.26835 -0.59727,-0.46221 -0.69686,-0.5706 -10e-4,-0.001 -10e-4,-0.001 -0.002,-0.002 -0.0407,-0.0446 -0.0632,-0.0792 -0.052,-0.0904 0.0167,-0.0165 0.11484,-0.0303 0.21784,-0.0309 0.17601,0 0.18075,-0.007 0.0854,-0.0792 -0.0558,-0.0418 -0.14245,-0.0767 -0.19309,-0.0767 -0.12107,0 -0.35895,-0.10879 -0.35895,-0.16462 0,-0.0241 0.0593,-0.0433 0.1312,-0.0433 0.0102,0 0.0165,-0.003 0.026,-0.004 0.017,-10e-4 0.0319,-10e-4 0.0458,-0.007 0.0333,-0.009 0.0582,-0.023 0.0582,-0.0396 0,-0.0292 -0.15165,-0.0417 -0.36142,-0.0309 -0.30464,0.0158 -0.37758,3e-5 -0.45302,-0.0805 -0.0494,-0.0545 -0.13332,-0.10026 -0.1869,-0.10026 -0.0774,0 -0.0912,0.027 -0.0656,0.12873 0.0267,0.10621 0.01,0.13359 -0.099,0.16091 -0.0724,0.0184 -0.17259,0.0262 -0.22279,0.0161 -0.14619,-0.0285 -0.14623,-0.14148 0,-0.17824 0.12976,-0.0323 0.19067,-0.12749 0.0817,-0.12749 -0.0294,0 -0.24609,0.097 -0.48149,0.21537 -0.26184,0.13163 -0.43616,0.19288 -0.44807,0.1572 -0.0369,-0.11065 -0.15945,-0.0582 -0.33295,0.14234 -0.18457,0.21357 -0.38323,0.34422 -0.4555,0.29954 -0.046,-0.0285 -0.37133,0.34819 -0.37133,0.4295 0,0.026 -0.0434,0.0854 -0.0953,0.13244 -0.0842,0.0762 -0.1063,0.0769 -0.20546,0.007 -0.0888,-0.0621 -0.13777,-0.0659 -0.24384,-0.0173 -0.18126,0.0826 -0.25582,0.34307 -0.24508,0.85158 0.007,0.33125 0.032,0.45362 0.11511,0.56813 l 0.10521,0.14606 -0.12006,0.10026 c -0.0664,0.0551 -0.15032,0.10178 -0.18566,0.10273 -0.0948,0 -0.27236,0.38316 -0.25993,0.55699 0.008,0.11439 -0.0112,0.14779 -0.0805,0.14234 -0.0718,-0.006 -0.084,0.0208 -0.0582,0.12378 0.0106,0.0422 0.0129,0.0793 0.006,0.10892 -0.007,0.0291 -0.0227,0.0513 -0.0458,0.0656 -0.06,0.0368 -0.057,0.0605 0.0186,0.13616 0.0693,0.0693 0.10597,0.0771 0.15225,0.0309 0.0463,-0.0463 0.0968,-0.0305 0.21289,0.0668 0.0839,0.0706 0.19425,0.12873 0.24508,0.12873 0.0702,0 0.13176,0.037 0.19433,0.12501 0.0628,0.0887 0.12814,0.22954 0.20547,0.43817 0.12771,0.34456 0.27399,0.53754 0.45673,0.60155 0.0199,0.007 0.026,0.0227 0.0223,0.0421 -0.005,0.0225 -0.0231,0.0521 -0.0594,0.0928 l -0.10026,0.11263 -0.1114,-0.10397 c -0.0612,-0.0577 -0.18822,-0.11981 -0.28221,-0.13863 -0.094,-0.019 -0.20733,-0.0889 -0.25126,-0.15596 -0.0364,-0.0555 -0.0544,-0.0901 -0.0508,-0.12501 0.004,-0.0353 0.0301,-0.0721 0.0805,-0.13615 0.13615,-0.17308 0.13954,-0.2924 0.01,-0.4097 -0.0957,-0.0866 -0.10348,-0.0856 -0.15843,0.0173 -0.0429,0.0802 -0.0419,0.13472 0.006,0.21165 0.0911,0.14595 0.0239,0.18493 -0.13739,0.0792 -0.14558,-0.0954 -0.23635,-0.0712 -0.14729,0.0396 0.0294,0.0367 0.0942,0.20787 0.14357,0.37999 0.13399,0.467 0.20305,0.57022 0.54091,0.80083 0.32027,0.21864 0.74665,0.3357 0.81568,0.22404 0.0595,-0.0963 0.13351,-0.0642 0.19928,0.0866 0.0345,0.079 0.12201,0.20025 0.19433,0.26983 0.0675,0.065 0.0916,0.10837 0.0792,0.1312 -0.0213,0.0323 -0.12676,0.0177 -0.30572,-0.0507 -0.28838,-0.11014 -0.47654,-0.09 -0.47654,0.052 0,0.0577 -0.0188,0.13488 -0.0421,0.17081 -0.0596,0.0921 -0.1805,0.0754 -0.48149,-0.0668 -0.23284,-0.11001 -0.75433,-0.27296 -1.43209,-0.44559 -0.24158,-0.0615 -0.55129,-0.31914 -0.51491,-0.42827 0.0117,-0.0349 -0.22466,-0.2613 -0.52605,-0.50376 -1.36869,-1.10099 -2.16671,-2.14804 -2.38269,-3.12659 -0.12044,-0.54583 -0.10683,-0.73548 0.0805,-1.11027 0.27743,-0.55515 0.66379,-0.78413 2.18836,-1.29346 0.4187,-0.13986 0.67608,-0.19049 1.08551,-0.2166 0.54262,-0.0349 0.67727,-0.0999 0.38247,-0.18567 -0.0884,-0.026 -0.16091,-0.0626 -0.16091,-0.0829 0,-0.0203 0.20521,-0.0634 0.45674,-0.0953 0.25347,-0.0323 0.55494,-0.10711 0.67581,-0.16833 0.1608,-0.0814 0.45485,-0.13703 1.11894,-0.21042 0.49535,-0.0545 1.01662,-0.13728 1.15854,-0.18443 0.13756,-0.0457 0.33222,-0.0657 0.58546,-0.0594 z m 3.43355,0.3899 c 0.0653,0 0.10302,0.0101 0.14234,0.0532 0,0 0,0.001 0,0.001 -0.0388,-0.0419 -0.0778,-0.0526 -0.14234,-0.0532 l 0,-10e-4 z m -0.23765,0.0247 c -2.2e-4,-3.3e-4 0.003,3.2e-4 0.002,0 0.004,0.006 0.008,0.012 0.01,0.021 -0.003,-0.008 -0.009,-0.0157 -0.0124,-0.021 z m 1.09789,0.0173 c 0.0332,-0.006 0.0539,-0.004 0.0594,0.0111 0.0113,0.0306 0.0256,0.0399 0.0371,0.0545 -0.0114,-0.0138 -0.0261,-0.0221 -0.0371,-0.052 -0.022,-0.0596 -0.28538,0.0911 -0.62507,0.0817 -0.17755,-0.005 -0.19319,-0.009 -0.177,-0.0211 -0.0115,0.0103 0.008,0.0139 0.17576,0.0186 0.25477,0.007 0.46738,-0.076 0.56689,-0.0928 z m 0.21537,0.36514 c -0.0106,0 -0.0203,-1.5e-4 -0.0297,0.006 0.009,0 0.0191,-0.006 0.0297,-0.006 z m 0.01,0 0.0248,0 c -0.009,6e-5 -0.0163,5.7e-4 -0.0248,0 z m 0.0322,0 c 0.024,2.5e-4 0.0487,-1.8e-4 0.0718,0.007 -0.0208,-0.006 -0.0425,-0.007 -0.0644,-0.007 -0.003,-1.3e-4 -0.005,0 -0.007,0 z m 0.073,0.006 c 0.0468,0.0418 0.0984,0.087 0.15596,0.13615 -0.01,-0.0399 -0.041,-0.088 -0.0916,-0.11511 -0.0178,-0.01 -0.04,-0.016 -0.0644,-0.021 z m -5.40282,0.12254 c -0.0127,0 -0.0367,0.0235 -0.0545,0.052 -0.0177,0.0285 -0.008,0.052 0.0223,0.052 0.0304,0 0.0557,-0.0235 0.0557,-0.052 0,0 0,-10e-4 0,-10e-4 -4e-4,-0.0278 -0.0111,-0.0507 -0.0235,-0.0507 z m 5.56126,0.0309 c 3.1e-4,0.006 4.7e-4,0.009 0,0.0136 4.7e-4,-0.006 2.9e-4,-0.009 0,-0.0136 z m 0,0.0149 c -5.4e-4,0.006 -0.001,0.008 -0.002,0.0111 10e-4,-0.006 0.002,-0.007 0.002,-0.0111 z m -5.23325,0.0136 c -0.0873,0.0387 -0.19917,0.0931 -0.31687,0.15224 0.1177,-0.0589 0.22961,-0.11327 0.31687,-0.15224 z m 5.19116,0.0198 c 0.003,2.6e-4 0.006,10e-4 0.009,10e-4 -0.003,1.9e-4 -0.006,-9.8e-4 -0.009,-10e-4 z m 0.0136,0 c 0.003,-5.7e-4 0.006,0 0.009,0 l -0.009,0 z m -5.59096,0.0149 c 0.003,0.006 0.007,0.007 0.0124,0.007 -0.005,0 -0.009,-0.007 -0.0124,-0.007 z m 0.0569,0 c -0.006,0.006 -0.0126,0.007 -0.0198,0.009 0.007,0 0.014,-0.007 0.0198,-0.009 z m 1.79104,0.13616 c -0.003,0 -0.008,0.006 -0.0124,0.009 0.004,0 0.009,-0.006 0.0124,-0.009 z m 0.67953,0.11016 0,0.001 c -0.0331,0.006 -0.0694,0.0273 -0.0829,0.0681 -0.0146,0.0437 0.01,0.0636 0.0644,0.052 0.048,-0.0101 0.0857,-0.042 0.0842,-0.0706 -0.002,-0.0387 -0.0325,-0.0545 -0.0656,-0.0507 z m 3.40508,0.026 c -0.0304,0 -0.0413,0.0235 -0.0235,0.052 0.0178,0.0285 0.043,0.052 0.0557,0.052 0.0127,0 0.0223,-0.0235 0.0223,-0.052 0,-0.0285 -0.024,-0.052 -0.0545,-0.052 z m -4.42747,0.11264 c 0.15744,0.006 0.20277,0.062 0.0619,0.11635 -0.0455,0.0171 -0.15384,0.0322 -0.24012,0.0322 -0.24226,0 -0.15166,-0.12841 0.10397,-0.14729 l 0.0743,0 0,-10e-4 z m 2.90131,0.35771 c 0.0647,-4.4e-4 0.11759,0.0235 0.11759,0.052 0,0.0655 -0.0559,0.0655 -0.1572,0 -0.0634,-0.0412 -0.0555,-0.0514 0.0396,-0.052 z m 1.6128,0.01 c -0.005,0 -0.0104,0.007 -0.0161,0.0124 0.006,-0.006 0.0112,-0.01 0.0161,-0.0124 z m -1.84178,0.0941 c 0.022,0.0254 0.0458,0.0503 0.0705,0.0755 -0.0247,-0.0254 -0.0485,-0.0503 -0.0705,-0.0755 z m -3.77888,0.20918 c 0.0304,0 0.04,0.0235 0.0223,0.052 -0.0177,0.0285 -0.0418,0.0532 -0.0545,0.0532 -0.0127,0 -0.0235,-0.0241 -0.0235,-0.0532 0,-0.0285 0.0253,-0.052 0.0557,-0.052 z m -0.52977,0.0272 c 0.003,3.1e-4 0.007,-1.5e-4 0.01,0.006 0.0255,0.0159 0.0458,0.0721 0.0458,0.12626 0,0.10855 -0.081,0.18437 -0.12377,0.11511 -0.0193,-0.0311 -0.0152,-0.0937 0,-0.1473 0,0 0,-10e-4 0,-10e-4 2.9e-4,-10e-4 9.4e-4,-0.002 0.001,-0.004 0.0158,-0.0515 0.0424,-0.0947 0.0668,-0.0928 l 0,-0.002 z m 3.30111,0.0879 c -0.0208,0 -0.0497,0.0136 -0.0829,0.0408 -0.0642,0.0532 -0.0673,0.0831 -0.0161,0.14482 0.0553,0.0665 0.0712,0.061 0.11387,-0.0347 0.0419,-0.0938 0.0294,-0.14965 -0.0148,-0.14977 0,0 0,-10e-4 0,-10e-4 z m -0.021,0.007 c -0.004,0 -0.008,10e-4 -0.0124,0.007 0.004,0 0.009,-0.007 0.0124,-0.007 z m 0.0384,0 c 0.003,0 0.005,-1.5e-4 0.007,0.006 -0.003,0 -0.004,-0.006 -0.007,-0.006 z m -0.0582,0.007 c -0.004,0 -0.009,0.006 -0.0136,0.007 0.004,0 0.009,-0.006 0.0136,-0.007 z m 0.0681,0 c 0.003,0 0.006,0.006 0.007,0.01 -0.002,-0.006 -0.004,-0.007 -0.007,-0.01 z m 0.0136,0.0309 c 4.3e-4,0.006 2.2e-4,0.009 0,0.0149 2.3e-4,-0.006 4.3e-4,-0.01 0,-0.0149 z m 0,0.021 c -5.7e-4,0.007 -0.002,0.0147 -0.004,0.0223 0.002,-0.008 0.003,-0.0153 0.004,-0.0223 z m -5.19241,0.007 c -0.0192,0 -0.0398,0.007 -0.0631,0.0161 0.0233,-0.009 0.0439,-0.0142 0.0631,-0.0161 z m 3.52019,0.0198 c 0.0288,0 0.0676,0.0235 0.0854,0.052 0.0177,0.0285 0.008,0.052 -0.021,0.052 -0.0288,0 -0.0664,-0.0235 -0.0842,-0.052 -0.0177,-0.0285 -0.009,-0.052 0.0198,-0.052 z m 1.66603,0.006 c -0.001,0.006 -0.002,0.009 -0.004,0.0149 0.001,-0.006 0.002,-0.01 0.004,-0.0149 z m 2.78743,0.0211 c 0.0582,-3.2e-4 0.20423,0.19678 0.20423,0.28468 0,0.0298 -0.0227,0.0532 -0.0507,0.0532 -0.0725,0 -0.21914,-0.30096 -0.16339,-0.33544 l 0.01,0 0,-0.002 z m -6.2643,0.17947 c 0.0215,-0.006 0.0413,0.009 0.0446,0.0396 0.002,0.0209 -0.0249,0.048 -0.0594,0.0594 -0.0345,0.0114 -0.0536,-0.008 -0.0421,-0.0421 0.0112,-0.0336 0.0354,-0.0531 0.0569,-0.0569 z m 0.44188,0.1671 c -0.0155,0.0101 -0.0303,0.022 -0.0458,0.0347 0.0155,-0.012 0.0303,-0.0239 0.0458,-0.0347 z m 1.31698,0.0594 c 0.01,0.0114 0.0221,0.0221 0.0346,0.0297 -0.0125,-0.008 -0.0246,-0.0183 -0.0346,-0.0297 z m 0.0545,0.0384 c 0.0134,0.006 0.0267,0.007 0.0408,0.007 -0.0141,0 -0.0275,8.1e-4 -0.0408,-0.007 z m 0.0681,0.01 c 0.0189,0 0.0398,0.008 0.0619,0.0161 -0.0221,-0.008 -0.0429,-0.0136 -0.0619,-0.0161 z m -2.46686,0.12007 c 0.0974,0 0.12749,0.1956 0.052,0.33667 -0.0689,0.12877 -0.15,0.13774 -0.19433,0.0223 -0.0456,-0.11902 0.0499,-0.35895 0.14234,-0.35895 z m 2.15618,0.19556 c 0.006,0.006 0.0102,0.0129 0.0136,0.0186 -0.003,-0.006 -0.008,-0.0122 -0.0136,-0.0186 z m 0.021,0.0359 c 0.003,0.0127 0.002,0.0269 -0.002,0.0421 0.004,-0.0158 0.005,-0.0294 0.002,-0.0421 z m 0.52976,0.21289 c -0.0347,0 -0.0313,0.0294 0.01,0.0792 0.0364,0.0437 0.0772,0.0688 0.0904,0.0557 0.0362,-0.0361 -0.0371,-0.13492 -0.10026,-0.13492 z m -0.0198,0.0384 c 0.005,0.0127 0.0155,0.0287 0.0309,0.047 -0.0155,-0.0184 -0.0261,-0.0344 -0.0309,-0.047 z m 8.67298,0.0607 0,0.001 c -0.0103,0 -0.0198,0.008 -0.0272,0.0198 -0.0624,0.0984 -0.0573,0.11598 0.073,0.2822 0.11271,0.14374 0.11806,0.14503 0.13368,0.0359 0.0192,-0.13416 -0.10735,-0.35055 -0.17948,-0.33915 z m -6.44873,0.005 c -0.0288,0 -0.052,0.0594 -0.052,0.13121 0,0.0719 0.0232,0.12996 0.052,0.12996 0.0288,0 0.052,-0.0584 0.052,-0.12996 0,-0.0719 -0.0232,-0.13121 -0.052,-0.13121 z m -4.84583,0.004 c -0.062,0.10596 -0.13317,0.21556 -0.17947,0.27354 0.0463,-0.0577 0.11743,-0.16758 0.17947,-0.27354 z m 2.67975,0.006 c 0.009,0.008 0.0178,0.0147 0.026,0.0198 -0.008,-0.006 -0.0169,-0.0116 -0.026,-0.0198 z m 0.0371,0.026 c 0.007,0 0.0138,0.007 0.0186,0.007 -0.005,0 -0.0113,-10e-4 -0.0186,-0.007 z m -0.14605,0.0272 c 0.012,0.0127 0.026,0.0286 0.0421,0.0495 -0.016,-0.0216 -0.03,-0.0375 -0.0421,-0.0495 z m -2.09677,0.0594 c -0.008,0 -0.0133,0.0177 -0.0148,0.0557 -0.003,0.0551 0.011,0.0867 0.0285,0.0693 0.0152,-0.015 0.0131,-0.0538 0.004,-0.0879 0,0 0,-10e-4 0,-10e-4 -0.001,-0.004 0.002,-0.007 0,-0.0111 -0.006,-0.0159 -0.0113,-0.0241 -0.0161,-0.0248 l -0.001,0 z m -0.006,0.0149 c -10e-4,0 -10e-4,0.007 -0.002,0.007 6.3e-4,0 0.001,-0.007 0.002,-0.007 z m -0.004,0.0124 c -5.7e-4,0 -6e-4,0.007 -10e-4,0.009 4.8e-4,0 6.1e-4,-0.007 10e-4,-0.009 z m -9.53818,0.0718 c -0.0551,0 -0.007,0.4482 0.0805,0.7439 0.0326,0.11039 0.0907,0.1968 0.13367,0.1968 0.0545,0 0.0669,-0.0336 0.0421,-0.11759 -0.0191,-0.0647 -0.0736,-0.2763 -0.1213,-0.47034 -0.0477,-0.19399 -0.10847,-0.35277 -0.13492,-0.35277 z m 12.23526,0.0396 c 0.007,0.01 0.014,0.0208 0.0186,0.0322 -0.004,-0.012 -0.0111,-0.0227 -0.0186,-0.0322 z m -1.51873,0.0582 c -0.01,0.0146 -0.0235,0.0336 -0.0408,0.0532 0.0174,-0.0196 0.0311,-0.0386 0.0408,-0.0532 z m 0.5211,0.01 c 0.007,0.009 0.0164,0.0184 0.026,0.0272 -0.01,-0.01 -0.0185,-0.0184 -0.026,-0.0272 z m -1.60414,0.0371 c -0.0288,0 -0.052,0.0235 -0.052,0.052 0,0 10e-4,10e-4 10e-4,10e-4 0,0 0,10e-4 0,10e-4 0.002,0.0271 0.023,0.0495 0.0507,0.0495 0.0288,0 0.0532,-0.0235 0.0532,-0.052 0,-0.0285 -0.0245,-0.052 -0.0532,-0.052 z m 0.0371,0.099 c -0.004,0.006 -0.01,0.01 -0.0161,0.0124 0.006,0 0.0113,-0.007 0.0161,-0.0124 z m 1.90368,0.0817 c 0.0302,0.014 0.0522,0.0241 0.0619,0.026 -0.01,0 -0.0317,-0.012 -0.0619,-0.026 z m 0.30572,0.0904 c -0.0311,0 -0.0507,0.0349 -0.0507,0.0941 0,0.0674 0.0267,0.10459 0.0656,0.0916 0.0359,-0.0121 0.0656,-0.0534 0.0656,-0.0916 0,-0.0387 -0.0296,-0.0796 -0.0656,-0.0916 l -0.0149,0 0,-0.002 z m 1.59671,0.0656 c -0.017,-0.006 -0.0256,0.0337 -0.026,0.12007 -4.4e-4,0.0935 0.008,0.16957 0.0186,0.16957 0.0475,0 0.0683,-0.2037 0.0272,-0.2686 -0.008,-0.012 -0.0142,-0.0185 -0.0198,-0.021 z m -0.01,0.0124 c 6e-4,-5.1e-4 0.002,0 0.002,0 -6.2e-4,3.8e-4 -0.002,0 -0.002,0 z m -0.005,0.007 0.001,0 -0.001,0 z m -0.006,0.0198 c -10e-4,0.008 -0.002,0.0171 -0.002,0.0272 0.001,-0.0101 0.001,-0.0203 0.002,-0.0272 z m 0.22651,0.0149 -0.0904,0.20176 c -0.0495,0.11084 -0.0745,0.22529 -0.0569,0.25374 0.0639,0.10343 0.18422,-0.0988 0.16586,-0.2785 l -0.0186,-0.177 z m -1.82569,0.0718 c 0.007,0.006 0.0146,0.009 0.0235,0.009 -0.009,0 -0.0167,-4.3e-4 -0.0235,-0.009 z m -4.10937,0.0607 c 0.043,-0.007 0.10366,0.0832 0.13368,0.21909 0.0208,0.094 0.0502,0.14133 0.0644,0.10521 0.0141,-0.0361 0.0465,-0.0523 0.0718,-0.0371 0.0126,0.008 0.0112,0.0391 0,0.0817 0,0 0,10e-4 0,10e-4 -0.0113,0.0425 -0.0324,0.0957 -0.0619,0.15225 -0.10941,0.20983 -0.24847,0.26795 -0.34286,0.14234 -0.0798,-0.10609 -0.21754,-0.50036 -0.18567,-0.53224 0.0162,-0.0165 0.0826,-0.0297 0.1473,-0.0297 0.0647,0 0.12734,-0.0271 0.13862,-0.0607 0.009,-0.026 0.0203,-0.0395 0.0347,-0.0421 z m 2.25644,0.0507 c 0.0304,0 0.04,0.0228 0.0223,0.052 -0.0177,0.0285 -0.043,0.052 -0.0557,0.052 -0.0127,0 -0.0223,-0.0235 -0.0223,-0.052 0,-0.0285 0.0253,-0.052 0.0557,-0.052 z m 2.6748,0.0223 c 0.0137,0 0.0341,0.0166 0.0656,0.0483 0.10221,0.10223 0.10152,0.10465 -0.0594,0.34782 -0.15904,0.24031 -0.22775,0.26359 -0.22775,0.0755 0,-0.0976 0.0244,-0.12881 0.0916,-0.11759 0.0692,0.0114 0.092,-0.0225 0.0965,-0.1411 0.003,-0.0897 0.008,-0.13982 0.0149,-0.17205 0,0 0,-10e-4 0,-10e-4 8.5e-4,-0.004 0.003,-0.004 0.004,-0.007 0,0 0,-0.001 0,-0.001 0.004,-0.0125 0.008,-0.03 0.0149,-0.0309 z m 0.01,0.0136 c 0.001,4.4e-4 0.001,0 0.002,0 -10e-4,-5.7e-4 -0.002,0 -0.002,0 z m 0.01,0.006 c 0.003,0 0.007,0.006 0.0111,0.009 -0.004,-0.006 -0.008,-0.006 -0.0111,-0.009 z m 3.70338,0.0433 c -0.0159,0.0714 -0.032,0.13364 -0.0483,0.18814 0.0163,-0.0545 0.0324,-0.11672 0.0483,-0.18814 z m -0.51862,0.0433 c 0.051,-0.006 0.0755,0.0657 0.0755,0.21908 10e-6,8.9e-4 0,0.002 0,0.002 -7.5e-4,0.21227 -0.0773,0.22269 -0.14853,0.0186 -0.0399,-0.11451 -0.0359,-0.16687 0.0136,-0.20794 0.023,-0.019 0.0424,-0.0303 0.0594,-0.0322 z m -8.10114,0.0272 c -0.0127,0 -0.038,0.0235 -0.0557,0.052 -0.0177,0.0285 -0.007,0.052 0.0235,0.052 0.0304,0 0.0557,-0.0235 0.0557,-0.052 0,-0.0285 -0.0108,-0.052 -0.0235,-0.052 z m 3.7368,0 c -0.0304,0 -0.0557,0.0235 -0.0557,0.052 0,0.0285 0.0108,0.052 0.0235,0.052 0.0127,0 0.038,-0.0235 0.0557,-0.052 0.0178,-0.0285 0.007,-0.052 -0.0235,-0.052 z m -3.79498,0.10645 c 0.004,0.006 0.009,0.006 0.0149,0.007 -0.006,0 -0.0113,-0.006 -0.0149,-0.007 z m 0.0557,0 c -0.006,0.006 -0.0126,0.006 -0.0198,0.007 0.007,0 0.0139,-0.006 0.0198,-0.007 z m 3.72566,0 c -0.007,0.006 -0.0136,0.01 -0.0186,0.01 0.005,0 0.011,-0.006 0.0186,-0.01 z m -0.0285,0.006 0.005,0 -0.005,0 z m 1.84179,0.01 c 0.003,0 0.005,-1.5e-4 0.007,0.006 -0.003,0 -0.004,-0.006 -0.007,-0.006 z m 0.30078,0.01 c -0.005,0.006 -0.01,0.009 -0.0149,0.0124 0.005,-0.006 0.01,-0.007 0.0149,-0.0124 z m -0.073,0.006 c 0.0132,0.0127 0.0283,0.0156 0.0433,0.01 -0.015,0.006 -0.0301,-3.9e-4 -0.0433,-0.01 z m -0.93822,0.078 c -0.01,0.007 -0.0214,0.0105 -0.0359,0.0111 0.0146,0 0.0262,-0.007 0.0359,-0.0111 z m 8.62347,0 c -0.017,0 -0.0605,0.0927 -0.0978,0.20547 -0.16077,0.48715 0.0978,1.208 0.62011,1.73038 0.17099,0.17099 0.33657,0.31192 0.36762,0.31192 0.15343,0 0.0152,-0.55011 -0.35276,-1.40362 -0.17637,-0.40914 -0.45366,-0.84415 -0.53719,-0.84415 z m -0.40103,0.16214 c -0.14694,0 -0.45407,0.1633 -0.47283,0.26489 -0.0238,0.12909 0.038,0.11493 0.33296,-0.0755 0.18982,-0.12263 0.23478,-0.17226 0.1671,-0.1869 l -0.0272,0 0,-0.002 z m -9.42307,0.006 c -0.0168,0.0108 -0.0343,0.0221 -0.0557,0.0297 0.0214,-0.008 0.0389,-0.0183 0.0557,-0.0297 z m 8.26205,0.17577 0,0.001 c -0.0166,7e-5 -0.0345,5.1e-4 -0.0532,0 -0.33455,0.0159 -0.70672,0.28934 -1.51502,1.11027 -0.38807,0.39406 -0.79972,0.78427 -0.9147,0.86767 -0.11498,0.0835 -0.42052,0.35049 -0.67829,0.59289 -0.25777,0.2424 -0.58041,0.52132 -0.7179,0.62012 -0.13749,0.0988 -0.25003,0.20046 -0.25003,0.22651 0,0.17751 0.73629,-0.11215 1.06942,-0.42084 0.31994,-0.29652 0.77084,-0.66898 1.52121,-1.25633 0.7007,-0.54843 1.76826,-1.58242 1.7341,-1.67964 -0.0145,-0.0412 -0.0795,-0.0625 -0.19556,-0.0619 z m -12.69076,0.0396 c 0.006,0.0114 0.0154,0.025 0.0297,0.0408 -0.0144,-0.0158 -0.0241,-0.0294 -0.0297,-0.0408 z m 8.93539,0.2884 c 0.0577,0 0.0557,0.0387 -0.01,0.16091 -0.0804,0.15026 -0.1628,0.1241 -0.0928,-0.0297 0.0328,-0.0719 0.0786,-0.1312 0.10273,-0.1312 z m -0.90109,0.16091 0,0.002 c 0.0158,0 0.0308,8.8e-4 0.0433,0.0161 0.0177,0.0177 0.007,0.0573 -0.0235,0.0879 -0.0375,0.0374 -0.067,0.0387 -0.0891,0 -0.0278,-0.045 0.022,-0.10201 0.0693,-0.10645 z m -5.74197,0.0235 c 0.017,0.0101 0.034,0.022 0.0495,0.0347 -0.0155,-0.0133 -0.0325,-0.0252 -0.0495,-0.0347 z m 5.69494,0.006 c -0.006,0.006 -0.0107,0.009 -0.0149,0.0148 0.004,-0.006 0.01,-0.0104 0.0149,-0.0148 z m -7.38819,0.33295 c 0.006,0.0171 0.0152,0.0342 0.0272,0.0532 -0.012,-0.019 -0.021,-0.0367 -0.0272,-0.0532 z m 3.80859,0.006 c -0.0729,0.0184 -0.14579,0.035 -0.21785,0.0483 0.0721,-0.0133 0.14495,-0.0299 0.21785,-0.0483 z m -0.43074,0.0817 c -0.10329,0.0127 -0.20145,0.0198 -0.29088,0.021 0.0894,0 0.18759,-0.008 0.29088,-0.021 z m -1.25014,0.006 c 0.003,0.012 0.002,0.0215 -0.002,0.0285 0.004,-0.008 0.005,-0.0171 0.002,-0.0285 z m 2.55721,0.0235 c -0.067,0.006 -0.22403,0.14229 -0.22403,0.20795 0,0.0771 0.16653,0.0214 0.22774,-0.0755 0.0308,-0.0488 0.0389,-0.10584 0.0186,-0.12625 -0.005,-0.006 -0.0127,-0.007 -0.0223,-0.006 z m -0.0309,0.0173 c -0.004,0 -0.008,0.006 -0.0124,0.006 0.004,0 0.008,-0.006 0.0124,-0.006 z m -0.0396,0.0198 c -0.004,0 -0.009,0.007 -0.0136,0.01 0.004,0 0.009,-0.007 0.0136,-0.01 z m -0.11264,0.0978 c -0.004,0.006 -0.01,0.0116 -0.0136,0.0173 0.004,-0.006 0.009,-0.0116 0.0136,-0.0173 z m -0.0173,0.0223 c -0.007,0.01 -0.0121,0.0196 -0.0161,0.0285 0.004,-0.009 0.009,-0.019 0.0161,-0.0285 z m -0.0198,0.0371 c -6.1e-4,0 -0.002,0.007 -0.002,0.007 4.7e-4,0 0.002,-0.007 0.002,-0.007 z m 2.07325,0.0706 c 0.008,0 0.0174,0.0116 0.026,0.021 9.6e-4,10e-4 10e-4,10e-4 0.002,0.002 0.004,0.005 0.007,0.003 0.0111,0.01 0.0212,0.0342 0.0138,0.0864 -0.0149,0.11511 -0.0681,0.0681 -0.12194,-0.0199 -0.0668,-0.10892 0.016,-0.026 0.0295,-0.0383 0.0421,-0.0396 z m -5.83604,0.10397 c 0.01,0.0114 0.0186,0.022 0.0285,0.0322 -0.01,-0.0101 -0.0188,-0.0208 -0.0285,-0.0322 z m 5.51422,0.0359 c 0.0455,0 0.0733,0.0277 0.0619,0.0619 -0.0242,0.0727 -0.0943,0.0991 -0.12749,0.0693 -0.0105,-0.01 -0.0173,-0.0259 -0.0173,-0.0483 0,-0.0456 0.0374,-0.0829 0.0829,-0.0829 z m -3.39765,0.1114 c -0.008,0 -0.0162,0.006 -0.0248,0.006 0.008,0 0.0168,-0.006 0.0248,-0.006 z m -0.15596,0.0495 c -0.0202,0 -0.0416,0.006 -0.0656,0.006 0.024,5e-4 0.0454,-4.9e-4 0.0656,-0.006 z m 12.666,0.0507 c -0.0282,0 -0.0495,0.0245 -0.0495,0.0644 0,0.0456 0.0374,0.0829 0.0829,0.0829 0.0923,0 0.0759,-0.1125 -0.021,-0.14482 l -0.0124,0 0,-0.002 z m -11.08662,0.28468 0,0.002 c 0.0101,3.8e-4 0.0192,-1.8e-4 0.0272,0.007 0.0317,0.0197 0.13783,0.0496 0.23642,0.0656 0.0986,0.0159 0.17657,0.0517 0.17328,0.0805 -0.01,0.0838 -0.26723,0.0822 -0.52481,-0.006 -0.0567,-0.019 -0.0572,-0.0387 -0.006,-0.10026 0.0264,-0.0317 0.0636,-0.0501 0.0941,-0.0495 z m -1.22909,0.078 c 0.0796,0 0.0887,0.0156 0.0433,0.0706 -0.032,0.0387 -0.0424,0.085 -0.0235,0.10397 0.019,0.019 0.0102,0.0347 -0.0198,0.0347 -0.0752,0 -0.17959,-0.13232 -0.13739,-0.17452 0.0189,-0.019 0.0812,-0.0347 0.13739,-0.0347 z m 0.0235,0.19557 c -0.005,0.006 -0.0135,0.006 -0.0247,0.006 0.0112,0 0.0197,1.4e-4 0.0247,-0.006 z m 2.96073,0.0334 c 0.0187,0 0.0322,0.0221 0.0322,0.0557 0,0.045 -0.0245,0.0817 -0.0532,0.0817 -0.0288,0 -0.052,-0.0223 -0.052,-0.0495 0,-0.0272 0.0232,-0.0639 0.052,-0.0817 0.007,-0.006 0.0148,-0.006 0.0211,-0.006 z m 5.7135,0.13367 c -0.0794,0 -0.23682,0.0772 -0.50872,0.23518 -0.3011,0.17491 -0.43516,0.22816 -0.48273,0.18938 -0.0477,-0.0387 -0.18818,0.0189 -0.50996,0.20918 -1.40233,0.83012 -1.33418,0.77673 -1.16225,0.90728 0.13565,0.10298 0.19108,0.092 0.71171,-0.1374 0.8492,-0.37428 2.01879,-1.14716 2.01879,-1.3343 0,-0.0475 -0.0192,-0.0711 -0.0668,-0.0693 z m -9.62483,0.35029 c 0.0534,0.006 0.16722,0.0507 0.22775,0.10397 0.0259,0.0228 -0.0398,0.0169 -0.16586,-0.0161 -0.0503,-0.0133 -0.0916,-0.0463 -0.0916,-0.0743 0,-0.0108 0.012,-0.0149 0.0297,-0.0136 z m 2.5436,0.0198 c 0.0448,0 0.0379,0.0181 -0.007,0.073 -0.0819,0.0986 -0.23148,0.11106 -0.20051,0.0173 0.0118,-0.0361 0.0778,-0.073 0.14605,-0.0829 0.0271,-0.006 0.0469,-0.007 0.0619,-0.007 z m 0.0223,0.0223 c -0.002,0 -0.005,0.006 -0.007,0.009 0.003,0 0.006,-0.006 0.007,-0.009 z m -2.59187,0.23889 c 0.0304,0 0.0413,0.0222 0.0235,0.0507 -0.0177,0.0285 -0.043,0.052 -0.0557,0.052 -0.0127,0 -0.0235,-0.0235 -0.0235,-0.052 0,-0.0285 0.0253,-0.0507 0.0557,-0.0507 z m 3.24912,0.36019 c 0.004,0 0.008,-1.5e-4 0.0111,0.006 -0.003,0 -0.007,1.5e-4 -0.0111,-0.006 z m -0.073,10e-4 c -0.008,0 -0.0161,-1.5e-4 -0.0247,0.006 0.009,0 0.017,-0.006 0.0247,-0.006 z m 0.0891,0.006 c 0,0 10e-4,0 10e-4,0 0,0 -10e-4,0 -10e-4,0 z m -0.0433,0.004 c -0.0465,0 -0.12516,0.0147 -0.22651,0.0483 -0.12234,0.0406 -0.16549,0.0769 -0.12377,0.10274 0.0354,0.0215 0.15515,-1.7e-4 0.26611,-0.0458 0.0532,-0.0225 0.0696,-0.0384 0.0904,-0.0545 0,0 0.001,-10e-4 0.001,-10e-4 0.0366,-0.0287 0.0422,-0.0494 -0.007,-0.0495 z m -0.11882,0.009 c -0.008,0 -0.0151,0.006 -0.0235,0.006 0.008,0 0.0157,-0.006 0.0235,-0.006 z m 0.16462,0 c 0,0 10e-4,0 10e-4,0 l -10e-4,0 z m -0.41218,0.1114 c -7e-5,0.006 0.001,0.008 0.004,0.0111 -0.003,-0.006 -0.004,-0.007 -0.004,-0.0111 z m -0.8491,0.0817 c -0.009,0.0292 -0.0119,0.0497 -0.006,0.0644 -0.006,-0.0146 -0.003,-0.0352 0.006,-0.0644 z m -6.55394,1.06448 c -0.0285,0.0279 0.34254,0.41387 0.52357,0.54461 0.0742,0.0539 0.30906,0.1444 0.52234,0.20176 0.48188,0.12934 0.51475,0.13141 0.55575,0.0247 0.0461,-0.12028 -0.16495,-0.27973 -0.37009,-0.27973 -0.0914,0 -0.39703,-0.11369 -0.68695,-0.25622 -0.26921,-0.13232 -0.50138,-0.23321 -0.53967,-0.23517 -0.003,0 -0.004,4.4e-4 -0.005,0 z"
       id="path4952"
       inkscape:connector-curvature="0" />
  </g>
</svg>
