<?xml version="1.0" encoding="UTF-8" standalone="no"?>
<!-- Created with Inkscape (http://www.inkscape.org/) -->

<svg
   xmlns:dc="http://purl.org/dc/elements/1.1/"
   xmlns:cc="http://creativecommons.org/ns#"
   xmlns:rdf="http://www.w3.org/1999/02/22-rdf-syntax-ns#"
   xmlns:svg="http://www.w3.org/2000/svg"
   xmlns="http://www.w3.org/2000/svg"
   xmlns:xlink="http://www.w3.org/1999/xlink"
   xmlns:sodipodi="http://sodipodi.sourceforge.net/DTD/sodipodi-0.dtd"
   xmlns:inkscape="http://www.inkscape.org/namespaces/inkscape"
   width="48"
   height="48"
   id="svg2"
   version="1.1"
   inkscape:version="0.91+devel r"
   sodipodi:docname="fading-hearts.svg"
   viewBox="0 0 48 48">
  <defs
     id="defs4">
    <linearGradient
       gradientTransform="matrix(1.0058652,0,0,0.994169,119.23086,972.70405)"
       gradientUnits="userSpaceOnUse"
       id="ButtonShadow"
       y2="7.0165396"
       x2="45.447727"
       y1="92.539597"
       x1="45.447727">
      <stop
         offset="0"
         style="stop-color:#000000;stop-opacity:1"
         id="stop3750" />
      <stop
         offset="1"
         style="stop-color:#000000;stop-opacity:0.58823532"
         id="stop3752" />
    </linearGradient>
    <filter
       id="filter3174"
       style="color-interpolation-filters:sRGB">
      <feGaussianBlur
         stdDeviation="1.71"
         id="feGaussianBlur3176" />
    </filter>
    <linearGradient
       gradientUnits="userSpaceOnUse"
       y2="1007.4026"
       x2="27.568569"
       y1="1049.1152"
       x1="27.568569"
       id="linearGradient7156"
       xlink:href="#linearGradient6125"
       inkscape:collect="always"
       gradientTransform="translate(1.8598633e-6,9.6960938e-5)" />
    <linearGradient
       inkscape:collect="always"
       id="linearGradient6125">
      <stop
         style="stop-color:#f81654;stop-opacity:1"
         offset="0"
         id="stop6127" />
      <stop
         style="stop-color:#fd668f;stop-opacity:1"
         offset="1"
         id="stop6129" />
    </linearGradient>
  </defs>
  <sodipodi:namedview
     id="base"
     pagecolor="#ffffff"
     bordercolor="#666666"
     borderopacity="1.0"
     inkscape:pageopacity="0.0"
     inkscape:pageshadow="2"
     inkscape:zoom="8.1825096"
     inkscape:cx="-28.573702"
     inkscape:cy="30.669875"
     inkscape:document-units="px"
     inkscape:current-layer="layer1"
     showgrid="false"
     inkscape:window-width="2560"
     inkscape:window-height="957"
     inkscape:window-x="-4"
     inkscape:window-y="29"
     inkscape:window-maximized="1">
    <inkscape:grid
       type="xygrid"
       id="grid3850" />
  </sodipodi:namedview>
  <metadata
     id="metadata7">
    <rdf:RDF>
      <cc:Work
         rdf:about="">
        <dc:format>image/svg+xml</dc:format>
        <dc:type
           rdf:resource="http://purl.org/dc/dcmitype/StillImage" />
        <dc:title />
      </cc:Work>
    </rdf:RDF>
  </metadata>
  <g
     inkscape:label="Capa 1"
     inkscape:groupmode="layer"
     id="layer1"
     transform="translate(0,-1004.3622)">
    <rect
       style="fill:#000000;fill-opacity:0.01960784;stroke:none"
       id="rect5263"
       width="44.399963"
       height="44.399963"
       x="1.8000183"
       y="1006.1622"
       ry="6.2786646" />
    <rect
       ry="6.1938181"
       y="1006.4623"
       x="2.1000061"
       height="43.799973"
       width="43.799973"
       id="rect5261"
       style="fill:#000000;fill-opacity:0.03921569;stroke:none" />
    <rect
       style="fill:#000000;fill-opacity:0.07843137;stroke:none"
       id="rect5259"
       width="43.199982"
       height="43.199982"
       x="2.3999939"
       y="1006.7625"
       ry="6.1089716" />
    <rect
       ry="6.0241251"
       y="1007.0624"
       x="2.7000122"
       height="42.599991"
       width="42.599991"
       id="rect5257"
       style="fill:#000000;fill-opacity:0.15686275;stroke:none" />
    <rect
       style="fill:url(#linearGradient7156);fill-opacity:1.0;stroke:none"
       id="rect5237"
       width="42"
       height="42"
       x="3"
       y="1007.3622"
       ry="5.9392786" />
    <path
       inkscape:connector-curvature="0"
       style="fill:#000000;fill-opacity:0.11764706;stroke:none"
       d="m 3.0000009,1040.9248 0,2.4999 c 0,3.2904 2.64714,5.9375 5.9375,5.9375 l 30.1250001,0 c 3.29036,0 5.9375,-2.6471 5.9375,-5.9375 l 0,-2.4999 c 0,3.2903 -2.64714,5.9374 -5.9375,5.9374 l -30.1250001,0 c -3.29036,0 -5.9375,-2.6471 -5.9375,-5.9374 z"
       id="rect5265" />
    <path
       inkscape:connector-curvature="0"
       style="fill:#000000;fill-opacity:0.09803922;stroke:none"
       d="m 3.0000009,1042.9247 0,0.5 c 0,3.2904 2.64714,5.9375 5.9375,5.9375 l 30.1250001,0 c 3.29036,0 5.9375,-2.6471 5.9375,-5.9375 l 0,-0.5 c 0,3.2904 -2.64714,5.9375 -5.9375,5.9375 l -30.1250001,0 c -3.29036,0 -5.9375,-2.6471 -5.9375,-5.9375 z"
       id="path5252" />
    <rect
       style="display:none;opacity:0.9;fill:url(#ButtonShadow);fill-opacity:1;fill-rule:nonzero;stroke:none;filter:url(#filter3174)"
       id="rect3745"
       y="979.70404"
       x="124.23086"
       ry="6"
       rx="6"
       height="85"
       width="86" />
    <g
       transform="matrix(0.36107049,0,0,-0.36107049,-164.22284,965.58774)"
       id="g312"
       style="fill:#000000;fill-opacity:0.49803922" />
    <g
       transform="matrix(0.36107049,0,0,-0.36107049,-152.86746,954.23166)"
       id="g316"
       style="fill:#000000;fill-opacity:0.49803922" />
    <path
       inkscape:connector-curvature="0"
       id="path292-3"
       style="fill:#000000;fill-opacity:0.49803922;fill-rule:nonzero;stroke:none;stroke-width:0.25288117"
       d="m 36.545011,1017.6741 c -1.490503,-1.4907 -3.47299,-2.3119 -5.580725,-2.3119 -2.108097,0 -4.090181,0.8212 -5.580359,2.3119 -0.557269,0.5575 -1.021822,1.1834 -1.383967,1.8591 -0.362005,-0.6757 -0.826497,-1.3016 -1.383806,-1.8591 -1.490198,-1.4907 -3.472262,-2.3119 -5.580076,-2.3119 -2.107673,0 -4.090464,0.8212 -5.580663,2.3119 -1.4901985,1.4906 -2.3123865,3.4726 -2.3123865,5.5809 0,2.1084 0.822188,4.0904 2.3123865,5.581 l 11.184004,11.9326 c 0.350695,0.3785 0.845776,0.5936 1.360541,0.5936 0.515291,0 1.009986,-0.2151 1.360682,-0.5936 L 36.54501,1028.836 c 1.490117,-1.4906 2.311961,-3.4726 2.311961,-5.581 0,-2.1083 -0.821844,-4.0903 -2.311961,-5.5809" />
  </g>
</svg>
