<?xml version="1.0" encoding="UTF-8" standalone="no"?>
<!-- Created with Inkscape (http://www.inkscape.org/) -->

<svg
   xmlns:dc="http://purl.org/dc/elements/1.1/"
   xmlns:cc="http://creativecommons.org/ns#"
   xmlns:rdf="http://www.w3.org/1999/02/22-rdf-syntax-ns#"
   xmlns:svg="http://www.w3.org/2000/svg"
   xmlns="http://www.w3.org/2000/svg"
   xmlns:xlink="http://www.w3.org/1999/xlink"
   xmlns:sodipodi="http://sodipodi.sourceforge.net/DTD/sodipodi-0.dtd"
   xmlns:inkscape="http://www.inkscape.org/namespaces/inkscape"
   width="48"
   height="48"
   id="svg2"
   version="1.1"
   inkscape:version="0.91+devel r"
   sodipodi:docname="kruler.svg"
   viewBox="0 0 48 48">
  <defs
     id="defs4">
    <linearGradient
       inkscape:collect="always"
       id="linearGradient4887">
      <stop
         style="stop-color:#e0a269;stop-opacity:1"
         offset="0"
         id="stop4889" />
      <stop
         style="stop-color:#f0d3a9;stop-opacity:1"
         offset="1"
         id="stop4891" />
    </linearGradient>
    <linearGradient
       inkscape:collect="always"
       xlink:href="#linearGradient4887"
       id="linearGradient4047"
       x1="26.509884"
       y1="1049.3497"
       x2="26.509884"
       y2="1007.4331"
       gradientUnits="userSpaceOnUse" />
  </defs>
  <sodipodi:namedview
     id="base"
     pagecolor="#ffffff"
     bordercolor="#666666"
     borderopacity="1.0"
     inkscape:pageopacity="0.0"
     inkscape:pageshadow="2"
     inkscape:zoom="26.396438"
     inkscape:cx="21.97417"
     inkscape:cy="28.565524"
     inkscape:document-units="px"
     inkscape:current-layer="layer1"
     showgrid="true"
     inkscape:window-width="2560"
     inkscape:window-height="964"
     inkscape:window-x="-4"
     inkscape:window-y="34"
     inkscape:window-maximized="1"
     showguides="false"
     borderlayer="true"
     inkscape:showpageshadow="false">
    <inkscape:grid
       type="xygrid"
       id="grid4162" />
  </sodipodi:namedview>
  <metadata
     id="metadata7">
    <rdf:RDF>
      <cc:Work
         rdf:about="">
        <dc:format>image/svg+xml</dc:format>
        <dc:type
           rdf:resource="http://purl.org/dc/dcmitype/StillImage" />
        <dc:title />
      </cc:Work>
    </rdf:RDF>
  </metadata>
  <g
     inkscape:label="Capa 1"
     inkscape:groupmode="layer"
     id="layer1"
     transform="translate(0,-1004.3622)">
    <rect
       style="fill:#000000;fill-opacity:0.01960784;stroke:none"
       id="rect5263"
       width="44.399963"
       height="44.399963"
       x="1.8000183"
       y="1006.1622"
       ry="6.2786646" />
    <rect
       ry="6.1938181"
       y="1006.4622"
       x="2.1000137"
       height="43.799973"
       width="43.799973"
       id="rect5261"
       style="fill:#000000;fill-opacity:0.03921569;stroke:none" />
    <rect
       style="fill:#000000;fill-opacity:0.07843137;stroke:none"
       id="rect5259"
       width="43.199982"
       height="43.199982"
       x="2.4000092"
       y="1006.7622"
       ry="6.1089716" />
    <rect
       ry="6.0241251"
       y="1007.0622"
       x="2.7000046"
       height="42.599991"
       width="42.599991"
       id="rect5257"
       style="fill:#000000;fill-opacity:0.15686275;stroke:none" />
    <rect
       style="fill:url(#linearGradient4047);fill-opacity:1;stroke:none"
       id="rect5237"
       width="42"
       height="42"
       x="3"
       y="1007.3622"
       ry="5.9392786" />
    <path
       style="fill:#000000;fill-opacity:0.11764706;stroke:none"
       d="m 3,36.5625 v 2.5 C 3,42.35286 5.6471397,45 8.9375,45 h 30.125 C 42.35286,45 45,42.35286 45,39.0625 v -2.5 C 45,39.85286 42.35286,42.5 39.0625,42.5 H 8.9375 C 5.6471397,42.5 3,39.85286 3,36.5625 Z"
       id="rect5265"
       transform="translate(0,1004.3622)"
       inkscape:connector-curvature="0" />
    <path
       style="fill:#000000;fill-opacity:0.09803922;stroke:none"
       d="m 3,38.5625 v 0.5 C 3,42.35286 5.6471397,45 8.9375,45 h 30.125 C 42.35286,45 45,42.35286 45,39.0625 v -0.5 C 45,41.8529 42.35286,44.5 39.0625,44.5 H 8.9375 C 5.6471397,44.5 3,41.8529 3,38.5625 Z"
       transform="translate(0,1004.3622)"
       id="path5252"
       inkscape:connector-curvature="0" />
    <path
       style="fill:#000000;fill-opacity:0.49803922;fill-rule:nonzero;stroke:none"
       d="M 10 20 L 10 28 L 13 28 L 13 26 L 14 26 L 14 28 L 16 28 L 16 25 L 17 25 L 17 28 L 19 28 L 19 26 L 20 26 L 20 28 L 22 28 L 22 25 L 23 25 L 23 28 L 25 28 L 25 26 L 26 26 L 26 28 L 28 28 L 28 25 L 29 25 L 29 28 L 31 28 L 31 26 L 32 26 L 32 28 L 34 28 L 34 25 L 35 25 L 35 28 L 38 28 L 38 20 L 10 20 z "
       transform="translate(0,1004.3622)"
       id="path196-9" />
  </g>
</svg>
