<?xml version="1.0" encoding="UTF-8" standalone="no"?>
<!-- Created with Inkscape (http://www.inkscape.org/) -->

<svg
   xmlns:dc="http://purl.org/dc/elements/1.1/"
   xmlns:cc="http://creativecommons.org/ns#"
   xmlns:rdf="http://www.w3.org/1999/02/22-rdf-syntax-ns#"
   xmlns:svg="http://www.w3.org/2000/svg"
   xmlns="http://www.w3.org/2000/svg"
   xmlns:xlink="http://www.w3.org/1999/xlink"
   xmlns:sodipodi="http://sodipodi.sourceforge.net/DTD/sodipodi-0.dtd"
   xmlns:inkscape="http://www.inkscape.org/namespaces/inkscape"
   width="48"
   height="48"
   id="svg4230"
   version="1.1"
   inkscape:version="0.91+devel r"
   sodipodi:docname="nemiver.svg"
   viewBox="0 0 48 48">
  <defs
     id="defs4232">
    <linearGradient
       gradientUnits="userSpaceOnUse"
       y2="1007.3748"
       x2="29.109528"
       y1="1049.3851"
       x1="29.109528"
       id="linearGradient4101"
       xlink:href="#linearGradient7855"
       inkscape:collect="always"
       gradientTransform="translate(-1.0986328e-6,3.4009766e-5)" />
    <linearGradient
       id="linearGradient7855"
       inkscape:collect="always">
      <stop
         id="stop7857"
         offset="0"
         style="stop-color:#46a8fb;stop-opacity:1" />
      <stop
         id="stop7859"
         offset="1"
         style="stop-color:#54f3fd;stop-opacity:1" />
    </linearGradient>
  </defs>
  <sodipodi:namedview
     id="base"
     pagecolor="#ffffff"
     bordercolor="#666666"
     borderopacity="1.0"
     inkscape:pageopacity="0.0"
     inkscape:pageshadow="2"
     inkscape:zoom="14.79805"
     inkscape:cx="40.047853"
     inkscape:cy="33.725161"
     inkscape:document-units="px"
     inkscape:current-layer="layer1"
     showgrid="false"
     inkscape:showpageshadow="false"
     borderlayer="true"
     inkscape:window-width="2560"
     inkscape:window-height="1026"
     inkscape:window-x="-4"
     inkscape:window-y="29"
     inkscape:window-maximized="1" />
  <metadata
     id="metadata4235">
    <rdf:RDF>
      <cc:Work
         rdf:about="">
        <dc:format>image/svg+xml</dc:format>
        <dc:type
           rdf:resource="http://purl.org/dc/dcmitype/StillImage" />
        <dc:title />
      </cc:Work>
    </rdf:RDF>
  </metadata>
  <g
     inkscape:label="Capa 1"
     inkscape:groupmode="layer"
     id="layer1"
     transform="translate(0,-1004.3622)">
    <path
       style="fill:#000000"
       d=""
       id="path906"
       inkscape:connector-curvature="0" />
    <rect
       style="fill:#000000;fill-opacity:0.01960784;stroke:none"
       id="rect5263-0"
       width="44.399963"
       height="44.399963"
       x="1.8000183"
       y="1006.1622"
       ry="6.2786646" />
    <rect
       ry="6.1938181"
       y="1006.4623"
       x="2.1000061"
       height="43.799973"
       width="43.799973"
       id="rect5261-1"
       style="fill:#000000;fill-opacity:0.03921569;stroke:none" />
    <rect
       style="fill:#000000;fill-opacity:0.07843137;stroke:none"
       id="rect5259-9"
       width="43.199982"
       height="43.199982"
       x="2.3999939"
       y="1006.7625"
       ry="6.1089716" />
    <rect
       ry="6.0241251"
       y="1007.0624"
       x="2.7000122"
       height="42.599991"
       width="42.599991"
       id="rect5257-6"
       style="fill:#000000;fill-opacity:0.15686275;stroke:none" />
    <rect
       style="fill:url(#linearGradient4101);fill-opacity:1;stroke:none"
       id="rect5237-3"
       width="42"
       height="42"
       x="3"
       y="1007.3622"
       ry="5.9392786" />
    <path
       inkscape:connector-curvature="0"
       style="fill:#000000;fill-opacity:0.11764706;stroke:none"
       d="m 2.9999979,1040.9247 0,2.5 c 0,3.2904 2.64714,5.9375 5.9375,5.9375 l 30.1250011,0 c 3.29036,0 5.9375,-2.6471 5.9375,-5.9375 l 0,-2.5 c 0,3.2904 -2.64714,5.9375 -5.9375,5.9375 l -30.1250011,0 c -3.29036,0 -5.9375,-2.6471 -5.9375,-5.9375 z"
       id="rect5265-8" />
    <path
       inkscape:connector-curvature="0"
       style="fill:#000000;fill-opacity:0.09803922;stroke:none"
       d="m 2.9999979,1042.9247 0,0.5 c 0,3.2904 2.64714,5.9375 5.9375,5.9375 l 30.1250011,0 c 3.29036,0 5.9375,-2.6471 5.9375,-5.9375 l 0,-0.5 c 0,3.2904 -2.64714,5.9375 -5.9375,5.9375 l -30.1250011,0 c -3.29036,0 -5.9375,-2.6471 -5.9375,-5.9375 z"
       id="path5252-0" />
    <path
       inkscape:connector-curvature="0"
       id="path4156"
       style="font-style:normal;font-variant:normal;font-weight:normal;font-stretch:normal;font-size:medium;line-height:125%;font-family:SciFly;-inkscape-font-specification:SciFly;letter-spacing:0px;word-spacing:0px;fill:#000000;fill-opacity:0.49803922;stroke:none;stroke-width:0.9285714px;stroke-linecap:butt;stroke-linejoin:miter;stroke-opacity:1"
       d="m 31.538312,1036.9051 q 0.371428,0.3714 0.334285,0.8171 -0.03714,0.4457 -0.334285,0.7429 -1.188572,1.1885 -2.785715,2.0428 -1.597142,0.8543 -4.122857,0.8543 -1.82,0 -3.38,-0.6314 -1.56,-0.6686 -2.711428,-1.82 -1.114286,-1.1886 -1.782857,-2.8229 -0.631429,-1.6714 -0.631429,-3.64 l 0,-8.1714 q 0,-1.9314 0.631429,-3.5657 0.668571,-1.6715 1.782857,-2.8229 1.151428,-1.1886 2.711428,-1.8571 1.56,-0.6686 3.38,-0.6686 1.225715,0 2.228572,0.26 1.002857,0.2229 1.82,0.5943 0.817143,0.3714 1.411428,0.8543 0.631429,0.4457 1.04,0.8543 0.78,0.78 0,1.56 l -0.854285,0.8542 q -0.371429,0.3715 -0.705715,0.4086 -0.334285,0 -0.78,-0.4086 -0.482857,-0.4457 -1.485714,-1.04 -0.965714,-0.5942 -2.674286,-0.5942 -1.188571,0 -2.117143,0.4457 -0.891428,0.4085 -1.56,1.1885 -0.631428,0.7429 -0.965714,1.7829 -0.334286,1.0029 -0.334286,2.1543 l 0,8.1714 q 0,2.4886 1.3,4.0486 1.337143,1.5228 3.677143,1.5228 1.634286,0 2.748572,-0.5942 1.151428,-0.6315 1.857143,-1.2629 0.334285,-0.2971 0.742857,-0.3343 0.445714,-0.037 0.817143,0.3343 l 0.742857,0.7429 z" />
  </g>
</svg>
