<?xml version="1.0" encoding="UTF-8" standalone="no"?>
<!-- Created with Inkscape (http://www.inkscape.org/) -->

<svg
   xmlns:dc="http://purl.org/dc/elements/1.1/"
   xmlns:cc="http://creativecommons.org/ns#"
   xmlns:rdf="http://www.w3.org/1999/02/22-rdf-syntax-ns#"
   xmlns:svg="http://www.w3.org/2000/svg"
   xmlns="http://www.w3.org/2000/svg"
   xmlns:xlink="http://www.w3.org/1999/xlink"
   xmlns:sodipodi="http://sodipodi.sourceforge.net/DTD/sodipodi-0.dtd"
   xmlns:inkscape="http://www.inkscape.org/namespaces/inkscape"
   width="48"
   height="48"
   id="svg2"
   version="1.1"
   inkscape:version="0.91+devel r"
   sodipodi:docname="othman-browser.svg"
   inkscape:export-filename="/home/uri/workspace/NitruxforAndroid/res/drawable-xhdpi/mail.png"
   inkscape:export-xdpi="180"
   inkscape:export-ydpi="180">
  <defs
     id="defs4">
    <linearGradient
       gradientUnits="userSpaceOnUse"
       y2="1007.3821"
       x2="28.399813"
       y1="1049.3252"
       x1="28.399813"
       id="linearGradient6131"
       xlink:href="#linearGradient4887"
       inkscape:collect="always"
       gradientTransform="translate(-1.166893e-5,7.7900391e-5)" />
    <linearGradient
       inkscape:collect="always"
       id="linearGradient4887">
      <stop
         style="stop-color:#e0a269;stop-opacity:1"
         offset="0"
         id="stop4889" />
      <stop
         style="stop-color:#f0d3a9;stop-opacity:1"
         offset="1"
         id="stop4891" />
    </linearGradient>
  </defs>
  <sodipodi:namedview
     id="base"
     pagecolor="#ffffff"
     bordercolor="#666666"
     borderopacity="1.0"
     inkscape:pageopacity="0.0"
     inkscape:pageshadow="2"
     inkscape:zoom="8.2433461"
     inkscape:cx="0.2888696"
     inkscape:cy="24.549478"
     inkscape:document-units="px"
     inkscape:current-layer="layer1"
     showgrid="false"
     inkscape:window-width="1366"
     inkscape:window-height="670"
     inkscape:window-x="-4"
     inkscape:window-y="29"
     inkscape:window-maximized="1">
    <inkscape:grid
       type="xygrid"
       id="grid3850" />
  </sodipodi:namedview>
  <metadata
     id="metadata7">
    <rdf:RDF>
      <cc:Work
         rdf:about="">
        <dc:format>image/svg+xml</dc:format>
        <dc:type
           rdf:resource="http://purl.org/dc/dcmitype/StillImage" />
        <dc:title />
      </cc:Work>
    </rdf:RDF>
  </metadata>
  <g
     inkscape:label="Capa 1"
     inkscape:groupmode="layer"
     id="layer1"
     transform="translate(0,-1004.3622)">
    <rect
       style="fill:#000000;fill-opacity:0.01960784;stroke:none"
       id="rect5263"
       width="44.399963"
       height="44.399963"
       x="1.8000183"
       y="1006.1622"
       ry="6.2786646" />
    <rect
       ry="6.1938181"
       y="1006.4623"
       x="2.1000061"
       height="43.799973"
       width="43.799973"
       id="rect5261"
       style="fill:#000000;fill-opacity:0.03921569;stroke:none" />
    <rect
       style="fill:#000000;fill-opacity:0.07843137;stroke:none"
       id="rect5259"
       width="43.199982"
       height="43.199982"
       x="2.3999939"
       y="1006.7625"
       ry="6.1089716" />
    <rect
       ry="6.0241251"
       y="1007.0624"
       x="2.7000122"
       height="42.599991"
       width="42.599991"
       id="rect5257"
       style="fill:#000000;fill-opacity:0.15686275;stroke:none" />
    <rect
       style="fill:url(#linearGradient6131);fill-opacity:1;stroke:none"
       id="rect5237"
       width="42"
       height="42"
       x="3"
       y="1007.3622"
       ry="5.9392786" />
    <path
       inkscape:connector-curvature="0"
       style="fill:#000000;fill-opacity:0.11764706;stroke:none"
       d="m 2.9999883,1040.9247 0,2.5 c 0,3.2904 2.64714,5.9375 5.9375,5.9375 l 30.1249997,0 c 3.29036,0 5.9375,-2.6471 5.9375,-5.9375 l 0,-2.5 c 0,3.2904 -2.64714,5.9375 -5.9375,5.9375 l -30.1249997,0 c -3.29036,0 -5.9375,-2.6471 -5.9375,-5.9375 z"
       id="rect5265" />
    <path
       inkscape:connector-curvature="0"
       style="fill:#000000;fill-opacity:0.09803922;stroke:none"
       d="m 2.9999883,1042.9247 0,0.5 c 0,3.2904 2.64714,5.9375 5.9375,5.9375 l 30.1249997,0 c 3.29036,0 5.9375,-2.6471 5.9375,-5.9375 l 0,-0.5 c 0,3.2904 -2.64714,5.9375 -5.9375,5.9375 l -30.1249997,0 c -3.29036,0 -5.9375,-2.6471 -5.9375,-5.9375 z"
       id="path5252" />
    <text
       xml:space="preserve"
       style="font-style:normal;font-variant:normal;font-weight:bold;font-stretch:normal;font-size:40px;line-height:125%;font-family:Impact;-inkscape-font-specification:'Impact Bold';letter-spacing:0px;word-spacing:0px;fill:#000000;fill-opacity:1;stroke:none"
       x="-3.7815247"
       y="1062.653"
       id="text830"
       sodipodi:linespacing="125%"><tspan
         sodipodi:role="line"
         id="tspan832"
         x="-3.7815247"
         y="1062.653" /></text>
    <path
       inkscape:connector-curvature="0"
       style="fill:#000000;fill-opacity:0.49803922;fill-rule:nonzero;stroke:none"
       d="m 23.447556,1041.209 c -0.758414,-0.3076 -1.157988,-1.4626 -0.875426,-2.5353 0.159484,-0.5961 0.01734,-0.6905 -0.474115,-0.3388 -0.159484,0.1118 -0.819088,0.3926 -1.479556,0.623 -1.642506,0.5787 -3.168867,0.5987 -4.099765,0.06 -1.174456,-0.6871 -1.605235,-1.8716 -1.296669,-3.6218 0.09101,-0.5077 0.206289,-1.0423 0.257427,-1.1878 0.05721,-0.1422 -0.196754,0.018 -0.55906,0.3586 -0.704674,0.6672 -1.171856,0.863 -1.726581,0.7174 -1.012373,-0.2642 -1.262866,-2.2777 -0.50792,-4.1051 0.250493,-0.6091 0.250493,-0.636 -0.007,-0.9644 -0.775748,-0.9981 -0.657002,-2.3221 0.376174,-4.2039 0.707273,-1.2824 0.741078,-1.337 0.852889,-1.2148 0.0442,0.044 -0.07801,0.3448 -0.273895,0.6671 -0.419511,0.701 -1.008907,2.1219 -1.140654,2.7987 -0.159483,0.7407 0.142149,1.3507 0.657003,1.3507 0.230557,0 0.605864,-0.1048 0.839888,-0.2305 0.419511,-0.2269 1.879131,-1.5163 3.378621,-2.9918 l 0.775749,-0.7616 -0.494052,-0.4297 c -0.271295,-0.2366 -1.131119,-0.8803 -1.906,-1.4314 -1.554097,-1.103 -1.767319,-1.4254 -1.547163,-2.3488 0.122213,-0.5148 0.227091,-0.6023 1.509893,-1.2825 l 1.374677,-0.7244 -0.294698,-0.3282 c -0.223623,-0.247 -0.271295,-0.4333 -0.199354,-0.7687 0.05115,-0.2435 0.169018,-0.5077 0.260894,-0.5892 0.541723,-0.4669 6.093308,-2.5048 6.283994,-2.3081 0.156016,0.1594 -0.169017,0.3249 -1.733515,0.8838 -1.733516,0.6195 -4.323388,1.679 -4.496739,1.8411 -0.06067,0.058 0.0034,0.3285 0.142147,0.6058 0.138681,0.2737 0.260894,0.518 0.271295,0.5449 0.01386,0.023 0.866759,-0.2573 1.909468,-0.6229 2.45119,-0.8631 5.620057,-1.7026 6.426142,-1.7026 0.494052,0 0.717676,0.085 0.998505,0.376 0.305099,0.3214 0.34497,0.4566 0.264361,0.921 -0.115279,0.6299 -0.589395,1.3265 -1.405014,2.0647 -0.3181,0.2842 -1.015839,0.9853 -1.55063,1.5571 l -0.975103,1.0388 0.362306,-0.7347 c 0.433379,-0.8837 1.001972,-1.5337 2.18683,-2.4911 0.484518,-0.3924 0.884092,-0.8023 0.884092,-0.914 0,-0.4368 -0.552124,-0.7851 -1.239463,-0.7851 -1.39808,0 -5.525581,1.2659 -8.586102,2.6366 -2.241436,1.0017 -2.285642,1.0563 -1.330474,1.557 0.900562,0.4774 3.632582,2.2138 3.978419,2.5318 0.220155,0.2027 0.314633,0.1931 0.971634,-0.091 0.403043,-0.1724 0.822553,-0.3145 0.937832,-0.3145 0.156017,0 0.18982,-0.1014 0.122213,-0.4029 -0.04767,-0.2235 -0.175951,-0.9679 -0.284296,-1.6549 -0.108344,-0.6871 -0.234025,-1.415 -0.280829,-1.6143 -0.04421,-0.2027 -0.0338,-0.5986 0.02686,-0.8802 l 0.108344,-0.5112 0.524389,0.8768 c 0.559059,0.9306 0.704674,1.4384 0.311165,1.1005 -0.344968,-0.2947 -0.409975,-0.055 -0.243558,0.8863 0.230558,1.2763 0.44378,1.6445 1.202193,2.0613 0.721142,0.3925 0.877159,0.6463 0.73501,1.2181 -0.08494,0.345 -0.10141,0.3519 -0.500986,0.149 -0.484518,-0.2504 -1.808056,-0.3015 -2.184229,-0.084 -0.230558,0.1352 -0.182886,0.2063 0.422977,0.6464 0.376173,0.2738 1.452687,1.0658 2.393986,1.7666 1.67631,1.2521 1.71358,1.2695 1.760384,0.89 0.0234,-0.2131 -0.0234,-1.8308 -0.108343,-3.5975 -0.131748,-2.6938 -0.122213,-3.2691 0.0442,-3.6044 l 0.196754,-0.389 0.240091,0.5822 c 0.82602,2.0274 0.941299,2.6669 0.348436,1.9669 l -0.294697,-0.3518 0.08147,2.2778 c 0.04767,1.252 0.125679,2.6938 0.172485,3.205 0.08495,0.8899 0.108345,0.9375 0.626666,1.2113 0.643134,0.3422 1.097315,0.3622 1.756917,0.074 0.477584,-0.2062 0.490586,-0.2366 0.490586,-1.0354 0,-0.4505 -0.09101,-1.7598 -0.202822,-2.9103 -0.111812,-1.1473 -0.273895,-3.1479 -0.362305,-4.4406 -0.08841,-1.2927 -0.216689,-2.9346 -0.284297,-3.6451 -0.08495,-0.8803 -0.07801,-1.4218 0.02686,-1.6921 0.149082,-0.3857 0.16555,-0.3657 0.694272,0.7815 0.301632,0.6463 0.54519,1.3066 0.54519,1.4686 -0.0034,0.2539 -0.04767,0.2365 -0.362304,-0.149 l -0.358837,-0.4402 0.08147,0.9549 c 0.04421,0.5276 0.243558,2.8566 0.44378,5.1787 0.456781,5.3615 0.344968,6.3424 -0.806086,6.9662 -0.436845,0.2339 -1.215193,0.2304 -1.939803,-0.018 -0.284297,-0.094 -0.321567,-0.074 -0.25396,0.1654 0.0442,0.1526 0.118746,1.0051 0.169018,1.8959 0.09794,1.6756 -0.06761,3.5229 -0.392642,4.3408 -0.152549,0.396 -0.175951,0.1689 -0.175951,-1.7224 0,-1.1984 -0.05461,-2.8905 -0.122213,-3.7605 l -0.118746,-1.5839 -0.964702,-0.7684 c -0.531322,-0.4229 -1.605236,-1.2893 -2.390517,-1.9227 -0.781816,-0.6299 -1.425817,-1.1064 -1.425817,-1.0631 0,0.045 0.206288,0.4601 0.456781,0.921 0.34497,0.6395 0.453315,1.0121 0.450715,1.577 -0.007,1.4045 -0.605865,2.0613 -2.278707,2.4979 -1.106849,0.2876 -2.373183,0.9306 -2.966045,1.5094 -0.795685,0.772 -0.964701,2.8601 -0.321567,3.9466 0.717675,1.2113 2.874169,1.5336 4.919716,0.7409 1.821926,-0.7071 3.415893,-1.8005 3.415893,-2.3455 0,-0.1828 -0.260893,-1.0494 -0.575527,-1.9261 -0.460249,-1.2694 -0.559059,-1.7061 -0.481051,-2.1219 l 0.09448,-0.5276 0.619732,0.7346 c 0.683872,0.8153 0.765347,1.0224 0.342369,0.8838 -0.321567,-0.1049 -0.348436,0.027 -0.125679,0.6161 0.724609,1.8983 0.612797,2.9069 -0.44378,3.9292 -0.738478,0.714 -0.988972,1.3197 -0.992438,2.3758 0,0.6603 0.314633,1.09 0.809552,1.09 0.450714,0 1.381612,-0.7885 2.298641,-1.9599 1.012374,-1.2858 1.67631,-1.7901 3.182735,-2.4537 0.626666,-0.2738 1.184858,-0.5449 1.252465,-0.6021 0.06761,-0.058 0.135214,-0.559 0.152549,-1.11 0.03727,-1.1065 0.311167,-1.8213 0.849423,-2.1861 0.260894,-0.1759 0.40651,-0.1967 0.626666,-0.071 0.271295,0.1456 0.578994,0.9514 0.578994,1.4895 0.0034,0.5588 -0.481051,1.7095 -0.866758,2.0682 l -0.416044,0.3856 0.314634,0.3075 c 0.409976,0.389 0.731543,0.389 1.499491,0.01 0.385707,-0.1992 0.639667,-0.4331 0.694272,-0.6567 0.04421,-0.1897 0.01734,-1.5571 -0.07107,-3.0361 -0.138681,-2.4 -0.676937,-11.2369 -0.741078,-12.1735 -0.01734,-0.2027 0.01994,-0.5926 0.08495,-0.8629 0.131748,-0.5962 0.182886,-0.5312 0.795685,0.9885 0.467181,1.1577 0.460248,1.4556 -0.01386,0.8864 l -0.301632,-0.3517 0.08495,1.1029 c 0.04074,0.6057 0.145615,2.1593 0.22709,3.4555 0.08147,1.2926 0.179419,2.5144 0.213223,2.718 0.179418,1.083 0.234025,6.1629 0.06761,6.9835 -0.273895,1.3906 -1.127651,2.2813 -2.166894,2.2813 -0.372706,0 -0.863291,-0.4878 -1.008906,-0.9947 -0.12828,-0.4401 -0.280829,-0.4227 -1.658974,0.2097 -1.543695,0.7106 -2.474594,1.4384 -3.443629,2.6972 -1.063512,1.3882 -1.625171,1.733 -2.329845,1.4487 m 8.203862,-6.2513 c 0.379641,-0.3319 0.433379,-0.4636 0.362305,-0.8361 -0.12828,-0.6802 -0.474116,-1.0051 -0.843355,-0.8057 -0.436846,0.2399 -0.521788,0.4262 -0.426445,1.0014 0.186353,1.188 0.236625,1.2253 0.907495,0.6394 m -17.447834,-0.8802 c 0.305099,-0.2096 0.964702,-0.7954 1.472622,-1.3032 1.097315,-1.0934 1.919868,-1.5534 3.72099,-2.0716 1.293203,-0.3726 1.930271,-0.7513 1.930271,-1.1377 0,-0.3621 -1.046177,-2.0067 -1.706647,-2.6842 l -0.680405,-0.701 -0.396108,0.2739 c -0.216689,0.1456 -1.063512,0.9175 -1.889533,1.7095 -1.865262,1.8038 -2.488461,2.2976 -3.050986,2.4131 -0.392642,0.078 -0.484518,0.1965 -0.761881,0.9885 -0.365771,1.0423 -0.440312,2.2943 -0.156016,2.654 0.284297,0.3552 0.890161,0.298 1.516826,-0.1422 m 0.575528,-1.7701 c -0.172485,-0.1793 -0.09794,-1.174 0.125679,-1.7328 0.122213,-0.3052 0.250494,-0.5217 0.284296,-0.4845 0.0338,0.037 -0.04075,0.3249 -0.16555,0.6431 -0.128279,0.3144 -0.220156,0.5985 -0.209755,0.6297 0.01386,0.031 0.09101,0.1933 0.175951,0.3587 0.152551,0.2911 0.162952,0.2911 0.348436,0.023 0.236625,-0.3353 0.250495,-0.2131 0.03034,0.2877 -0.159483,0.3657 -0.399575,0.4774 -0.589395,0.2773 m 2.518798,-2.5656 c -0.234025,-0.1827 -0.44378,-0.3448 -0.47065,-0.3656 -0.08841,-0.064 0.436846,-0.7918 0.572061,-0.7918 0.07801,0 0.318099,0.1315 0.538256,0.2945 l 0.396108,0.2945 0.277363,-0.3959 c 0.273895,-0.389 0.284296,-0.3924 0.657002,-0.1385 0.511388,0.3482 0.578994,0.5986 0.271296,1.0222 l -0.257427,0.3553 -0.91443,-0.7244 -0.650069,0.785 -0.41951,-0.3317 m 9.374852,11.2368 c 0.372706,-0.5588 0.413444,-0.9643 0.08147,-0.8325 -0.193288,0.078 -0.202821,0.044 -0.06415,-0.2272 0.338902,-0.6602 0.72461,-0.1654 0.436846,0.5589 -0.09448,0.2365 -0.305099,0.5485 -0.467183,0.6976 -0.287763,0.2607 -0.287763,0.2539 0.01386,-0.1968 m 2.495395,-0.8127 c -0.18982,-0.416 -0.403042,-0.6533 -0.6362,-0.7104 -0.399576,-0.095 -0.605864,-0.8803 -0.230557,-0.8803 0.220155,0 1.083446,0.9408 1.083446,1.1809 0,0.078 0.06415,0.142 0.142149,0.142 0.07801,0 0.142148,-0.1524 0.142148,-0.3353 0,-0.3587 0.487985,-1.2822 0.673472,-1.2822 0.227089,0 0.456781,0.3587 0.456781,0.7104 0,0.3517 -0.007,0.3553 -0.287765,0.091 -0.365771,-0.3449 -0.487984,-0.2131 -0.806084,0.8561 l -0.250493,0.8464 m -15.418755,-3.6589 c 0.284297,-0.5788 0.284297,-0.9071 -0.007,-0.9071 -0.186354,0 -0.196754,-0.041 -0.05461,-0.2202 0.199354,-0.2539 0.511388,-0.2877 0.632733,-0.074 0.104879,0.1725 -0.392641,1.388 -0.630133,1.5396 -0.104876,0.068 -0.08147,-0.068 0.05461,-0.3387 m 3.453163,-0.5754 c -0.108345,-0.2944 -0.108345,-0.6263 0.0034,-1.2051 0.08495,-0.4368 0.128279,-0.8259 0.09101,-0.863 -0.0338,-0.033 -0.287763,0.074 -0.561658,0.2399 -0.379641,0.2365 -0.500987,0.2609 -0.500987,0.1013 0,-0.1117 0.585929,-0.5553 1.303604,-0.9884 1.5879,-0.955 1.543695,-0.9342 1.43535,-0.643 -0.04767,0.1318 -0.35537,0.3995 -0.683871,0.6022 -0.450714,0.2738 -0.636201,0.5042 -0.76188,0.9305 -0.206289,0.714 -0.206289,1.1308 -0.0034,1.5268 0.156016,0.3014 0.162951,0.3014 0.35537,0.033 0.227091,-0.3248 0.240093,-0.2339 0.05461,0.2877 -0.179419,0.4939 -0.53479,0.4809 -0.731544,-0.027 m 2.498863,-1.1238 c -0.379639,-0.3146 -0.403042,-0.3821 -0.250493,-0.7348 0.199354,-0.4531 0.40651,-0.4774 0.884094,-0.098 0.298164,0.24 0.328501,0.3353 0.206288,0.6837 -0.182886,0.5381 -0.338902,0.5649 -0.839889,0.149 m 2.041216,-0.1084 c -0.196754,-0.3725 -0.06761,-1.3706 0.234024,-1.8922 l 0.213222,-0.369 -0.08495,0.369 c -0.234025,0.9885 -0.243559,1.33 -0.06414,1.5535 0.169017,0.2165 0.202821,0.2131 0.369239,-0.027 0.220155,-0.311 0.236624,-0.2131 0.04766,0.3016 -0.162949,0.4565 -0.497518,0.4903 -0.714207,0.064 m 5.390366,-0.4401 c 0.07801,-0.1525 0.213222,-0.2773 0.298164,-0.2773 0.08841,0 0.04767,-0.1281 -0.09101,-0.2911 -0.236624,-0.2711 -0.240092,-0.3111 -0.01994,-0.6568 0.311167,-0.4972 0.880627,-0.8664 1.157989,-0.7582 0.342369,0.1389 0.145615,0.4637 -0.253959,0.4161 -0.196754,-0.019 -0.436847,0.064 -0.538258,0.1932 -0.298164,0.3725 0.04767,0.5752 0.921364,0.538 0.639668,-0.027 0.758413,0.01 0.690806,0.1897 -0.04767,0.1222 -0.220157,0.2236 -0.385707,0.227 -0.16295,0 -0.667404,0.1595 -1.110317,0.3483 -0.741078,0.318 -0.799151,0.325 -0.667403,0.072 m 7.878828,-1.4115 c 0.02686,-0.934 -0.05461,-3.4588 -0.182886,-5.612 -0.298164,-4.9992 -0.311166,-5.7098 -0.125679,-5.9055 0.111811,-0.1118 0.298164,0.2027 0.670003,1.1236 0.527856,1.3136 0.559059,1.7417 0.07801,1.0901 l -0.267828,-0.3657 -0.0034,0.5892 c 0,0.3215 0.09101,1.9089 0.206288,3.5264 0.271295,3.7838 0.267828,5.412 -0.0034,6.3632 -0.118745,0.4159 -0.260894,0.785 -0.318099,0.8188 -0.05461,0.037 -0.07801,-0.6975 -0.05461,-1.6281 m -15.520165,-0.1419 c 0.0034,-0.068 0.474117,-0.508 1.049644,-0.9818 0.575527,-0.4774 1.252465,-1.09 1.509892,-1.3637 0.40651,-0.4367 0.44378,-0.5417 0.294698,-0.7887 -0.234024,-0.3854 -0.220157,-0.8057 0.0338,-1.0222 0.287763,-0.2505 0.500985,-0.064 0.500985,0.4366 0,0.2305 0.06067,0.4635 0.138681,0.5147 0.257427,0.1629 0.162951,0.5381 -0.111812,0.4505 -0.175951,-0.058 -0.325033,0.047 -0.500985,0.3553 -0.314634,0.5588 -2.928774,2.7042 -2.914907,2.4027 m 3.175801,-3.7198 c -0.04767,-0.084 -0.149082,-0.1524 -0.220157,-0.1524 -0.07455,0 -0.131746,0.068 -0.131746,0.1524 0,0.078 0.09794,0.1456 0.220155,0.1456 0.118746,0 0.17942,-0.068 0.131748,-0.1456 m 6.253658,2.6167 c 0.456781,-0.2366 0.39264,-0.4601 -0.104878,-0.3855 -0.474116,0.074 -0.559058,-0.091 -0.16295,-0.3145 0.277362,-0.1526 1.293202,-0.047 1.293202,0.1351 0,0.2028 -0.500986,0.5519 -0.921363,0.6394 -0.385708,0.082 -0.396108,0.074 -0.108345,-0.074 m -17.856944,-1.0657 c 0.426445,-0.7582 0.440313,-0.8188 0.156017,-0.8188 -0.271296,0 -0.273896,-0.2062 -0.007,-0.4367 0.250492,-0.2166 0.500984,-0.082 0.500984,0.2677 0,0.2678 -0.778348,1.6385 -0.930896,1.6385 -0.04767,0 0.08147,-0.2946 0.28083,-0.6498 m 19.190017,-0.1317 -0.314634,-0.3448 0.305099,-0.403 0.305099,-0.3995 0.670003,0.6569 0.362306,-0.3519 c 0.37964,-0.3725 0.660468,-0.311 0.971635,0.1993 0.115279,0.1898 0.07801,0.3181 -0.159483,0.5616 l -0.305099,0.3145 -0.409977,-0.305 -0.416043,-0.3076 -0.342369,0.3657 -0.351905,0.3621 m 0.125681,-3.1885 c -0.01734,-0.7816 -0.07107,-1.4557 -0.11528,-1.5059 -0.04767,-0.047 -0.335435,0.064 -0.639667,0.247 -0.768814,0.46 -0.701207,0.1992 0.08147,-0.3145 0.494052,-0.325 0.619733,-0.4879 0.572061,-0.7348 -0.0338,-0.1759 -0.09794,-1.0459 -0.145615,-1.9356 -0.04767,-0.8865 -0.145616,-2.5656 -0.220157,-3.7232 -0.12828,-1.973 -0.08841,-2.8195 0.12568,-2.8159 0.09101,0 0.748013,1.5396 0.941299,2.2034 0.104878,0.369 0.104878,0.369 -0.196754,0.088 -0.165551,-0.1559 -0.325034,-0.2539 -0.35537,-0.2201 -0.02686,0.033 0.0034,0.721 0.06761,1.5302 0.06761,0.8127 0.159484,2.0985 0.206289,2.8705 0.111812,1.8075 0.135214,1.8751 0.490584,1.5362 0.253961,-0.2339 0.260894,-0.2911 0.06761,-0.5111 -0.122213,-0.1352 -0.213224,-0.3423 -0.213224,-0.4671 0,-0.2946 0.507921,-0.765 0.697741,-0.6429 0.179419,0.1187 0.16555,1.55 -0.01386,1.55 -0.07455,0 -0.284296,0.1828 -0.474116,0.41 -0.287763,0.3386 -0.34497,0.5588 -0.34497,1.3845 -0.007,0.9679 -0.260894,2.471 -0.419511,2.471 -0.04421,0 -0.09448,-0.6359 -0.111812,-1.4183 m 1.286269,-3.8011 c -0.09101,-0.2339 -0.335435,-0.3076 -0.335435,-0.098 0,0.1559 0.156017,0.318 0.301632,0.318 0.06067,0 0.07801,-0.098 0.03034,-0.2201 m 4.110166,4.9075 c -0.273895,-0.447 0.159483,-2.6296 0.514854,-2.6296 0.06415,0 -0.007,0.2808 -0.156016,0.6264 -0.3077,0.6975 -0.34497,1.1031 -0.135215,1.4314 0.12568,0.1967 0.156017,0.1967 0.277363,0 0.172485,-0.2842 0.182885,-0.1221 0.007,0.3587 -0.145616,0.3995 -0.348438,0.4844 -0.507921,0.2131 m -9.26044,-0.9478 c -0.07455,-0.2097 -0.131746,-0.4368 -0.131746,-0.5113 0,-0.2434 0.592862,-1.7804 0.663936,-1.7095 0.0338,0.037 -0.0442,0.3961 -0.182886,0.792 -0.264362,0.7755 -0.193288,1.3032 0.159483,1.161 0.25396,-0.098 0.280829,0.2167 0.04075,0.4671 -0.25396,0.2642 -0.389174,0.2165 -0.541723,-0.1993 m -3.243407,-1.0866 c -0.169019,-0.3318 0.159483,-1.55 0.521787,-1.9192 0.193287,-0.1966 0.196754,-0.1827 0.04075,0.1318 -0.325034,0.6602 -0.426445,1.232 -0.257427,1.4452 0.131748,0.1629 0.182886,0.1655 0.277362,0.01 0.09101,-0.1456 0.118746,-0.1386 0.118746,0.037 0.0034,0.24 -0.260894,0.5822 -0.44378,0.5822 -0.06067,0 -0.175951,-0.1283 -0.257427,-0.2877 m -8.840063,-0.2131 c -0.216689,-0.3387 -0.216689,-0.4297 -0.01386,-1.1472 0.125679,-0.4297 0.287762,-0.8768 0.365771,-0.9981 0.186354,-0.2945 0.175952,-0.1968 -0.06067,0.6125 -0.273896,0.9514 -0.108346,1.564 0.311165,1.1308 0.118746,-0.1256 0.142149,-0.088 0.08147,0.1421 -0.142149,0.5648 -0.426446,0.6732 -0.683873,0.2643 m -4.028689,-0.8111 c 0,-0.078 0.298165,-0.3179 0.663937,-0.5414 0.365771,-0.2202 0.937831,-0.6673 1.276733,-0.9922 0.589395,-0.5648 0.602397,-0.596 0.365772,-0.8663 -0.223623,-0.2539 -0.227091,-0.3181 -0.0338,-0.6734 0.118746,-0.2166 0.321567,-0.4133 0.456781,-0.4435 0.189819,-0.037 0.240092,0.06 0.240092,0.4704 0,0.2842 0.06415,0.5555 0.142149,0.6057 0.227089,0.149 0.16295,0.5414 -0.08147,0.4905 -0.122213,-0.027 -0.534789,0.2641 -0.914429,0.6427 -0.680405,0.6836 -2.115756,1.571 -2.115756,1.3101 m 2.63061,-3.0664 c -0.142149,-0.1489 -0.260895,0.078 -0.142149,0.2739 0.08841,0.1525 0.122213,0.1525 0.169019,0 0.03034,-0.1013 0.01994,-0.2236 -0.02686,-0.2739 m -1.543695,1.039 c -0.149082,-0.1526 -0.111812,-0.9037 0.0442,-1.0052 0.08147,-0.051 0.142149,0.078 0.142149,0.3051 0,0.3318 0.0338,0.3656 0.213223,0.2097 0.115278,-0.1014 0.209755,-0.1187 0.209755,-0.041 0,0.2096 -0.500987,0.6462 -0.609332,0.5311 m 6.551823,-1.0692 c -0.165551,-0.4194 -0.707274,-1.0493 -0.707274,-0.8223 0,0.064 -0.09794,0.033 -0.213222,-0.068 -0.284297,-0.2435 -0.271295,-0.7348 0.01734,-0.7348 0.12568,0 0.436847,0.2365 0.694273,0.5277 l 0.463716,0.5277 0.165551,-0.8189 c 0.179418,-0.9141 0.37964,-1.1471 0.650068,-0.7615 0.216689,0.3076 0.101411,0.7754 -0.12828,0.5346 -0.277363,-0.2911 -0.34237,-0.1655 -0.440313,0.8664 -0.108345,1.161 -0.250493,1.3707 -0.500986,0.7477 m 8.203863,-0.8767 c -0.165551,-0.325 -0.03034,-1.2321 0.260894,-1.7157 0.152548,-0.2504 0.16555,-0.2435 0.06415,0.085 -0.196754,0.6802 -0.142149,1.252 0.115278,1.2321 0.182887,-0.014 0.213222,0.051 0.12828,0.2842 -0.149082,0.4228 -0.385707,0.4704 -0.568593,0.1153 m 2.563003,-0.047 c -0.216689,-0.2236 -0.196754,-0.7885 0.04767,-1.4384 l 0.199354,-0.5147 -0.08495,0.6196 c -0.09448,0.7478 0.0338,1.2589 0.240093,0.921 0.111812,-0.1828 0.131746,-0.1793 0.135213,0.023 0.0034,0.3587 -0.335435,0.6022 -0.538256,0.3891 m -6.385404,-1.584 c -0.118747,-0.227 -0.08495,-0.4565 0.152548,-1.0223 0.16555,-0.4029 0.389175,-0.8093 0.497519,-0.9037 0.277363,-0.2365 0.247026,-0.1048 -0.138681,0.6022 -0.358838,0.6567 -0.358838,1.323 0,1.0154 0.234024,-0.1993 0.250493,-0.074 0.05115,0.318 -0.18982,0.3623 -0.372705,0.3588 -0.561659,-0.01 m -8.676246,-0.247 c -0.169017,-0.1758 -0.09448,-1.0829 0.122213,-1.5231 0.311166,-0.6266 0.385707,-0.5347 0.122213,0.1525 -0.227091,0.5926 -0.179419,1.1272 0.08841,0.9573 0.07801,-0.055 0.142149,-0.031 0.142149,0.045 0,0.1993 -0.362305,0.4844 -0.474117,0.3691 m 11.393531,-4.2066 c 0.589395,-0.2435 0.467183,-0.4471 -0.213222,-0.3517 l -0.59893,0.082 0.331968,-0.2841 c 0.490585,-0.4133 1.435352,-0.3518 1.435352,0.098 0,0.2339 -0.721143,0.6569 -1.090382,0.6327 -0.175952,-0.01 -0.135214,-0.064 0.135214,-0.176 m 0,0"
       id="path53" />
  </g>
</svg>
