<?xml version="1.0" encoding="UTF-8" standalone="no"?>
<!-- Created with Inkscape (http://www.inkscape.org/) -->

<svg
   xmlns:dc="http://purl.org/dc/elements/1.1/"
   xmlns:cc="http://creativecommons.org/ns#"
   xmlns:rdf="http://www.w3.org/1999/02/22-rdf-syntax-ns#"
   xmlns:svg="http://www.w3.org/2000/svg"
   xmlns="http://www.w3.org/2000/svg"
   xmlns:xlink="http://www.w3.org/1999/xlink"
   xmlns:sodipodi="http://sodipodi.sourceforge.net/DTD/sodipodi-0.dtd"
   xmlns:inkscape="http://www.inkscape.org/namespaces/inkscape"
   width="48"
   height="48"
   id="svg2"
   version="1.1"
   inkscape:version="0.91+devel r"
   sodipodi:docname="otter-browser.svg"
   inkscape:export-filename="/home/uri/Iconos/NITRUX/apps/512/opera-next-browser.png"
   inkscape:export-xdpi="960"
   inkscape:export-ydpi="960"
   viewBox="0 0 48 48">
  <defs
     id="defs4">
    <linearGradient
       gradientTransform="translate(0,9.5800782e-5)"
       inkscape:collect="always"
       xlink:href="#linearGradient4678"
       id="linearGradient6131"
       x1="28.399813"
       y1="1049.3252"
       x2="28.399813"
       y2="1007.3821"
       gradientUnits="userSpaceOnUse" />
    <linearGradient
       id="linearGradient4678"
       inkscape:collect="always">
      <stop
         id="stop4680"
         offset="0"
         style="stop-color:#0a7fe7;stop-opacity:1" />
      <stop
         id="stop4682"
         offset="1"
         style="stop-color:#50bffc;stop-opacity:1" />
    </linearGradient>
  </defs>
  <sodipodi:namedview
     id="base"
     pagecolor="#ffffff"
     bordercolor="#666666"
     borderopacity="1.0"
     inkscape:pageopacity="0.0"
     inkscape:pageshadow="2"
     inkscape:zoom="4.7925814"
     inkscape:cx="-23.877932"
     inkscape:cy="32.654325"
     inkscape:document-units="px"
     inkscape:current-layer="layer1"
     showgrid="false"
     inkscape:window-width="2560"
     inkscape:window-height="964"
     inkscape:window-x="-4"
     inkscape:window-y="34"
     inkscape:window-maximized="1" />
  <metadata
     id="metadata7">
    <rdf:RDF>
      <cc:Work
         rdf:about="">
        <dc:format>image/svg+xml</dc:format>
        <dc:type
           rdf:resource="http://purl.org/dc/dcmitype/StillImage" />
        <dc:title />
      </cc:Work>
    </rdf:RDF>
  </metadata>
  <g
     inkscape:label="Capa 1"
     inkscape:groupmode="layer"
     id="layer1"
     transform="translate(0,-1004.3622)">
    <rect
       style="fill:#000000;fill-opacity:0.01960784;stroke:none"
       id="rect5263-9"
       width="44.399963"
       height="44.399963"
       x="1.8000183"
       y="1006.1622"
       ry="6.2786646" />
    <rect
       ry="6.1938181"
       y="1006.4623"
       x="2.1000061"
       height="43.799973"
       width="43.799973"
       id="rect5261-8"
       style="fill:#000000;fill-opacity:0.03921569;stroke:none" />
    <rect
       style="fill:#000000;fill-opacity:0.07843137;stroke:none"
       id="rect5259-0"
       width="43.199982"
       height="43.199982"
       x="2.3999939"
       y="1006.7625"
       ry="6.1089716" />
    <rect
       ry="6.0241251"
       y="1007.0624"
       x="2.7000122"
       height="42.599991"
       width="42.599991"
       id="rect5257-1"
       style="fill:#000000;fill-opacity:0.15686275;stroke:none" />
    <rect
       style="fill:url(#linearGradient6131);fill-opacity:1.0;stroke:none"
       id="rect5237-5"
       width="42"
       height="42"
       x="3"
       y="1007.3622"
       ry="5.9392786" />
    <path
       inkscape:connector-curvature="0"
       style="fill:#000000;fill-opacity:0.11764706;stroke:none"
       d="m 2.9999991,1040.9247 v 2.5 c 0,3.2904 2.64714,5.9375 5.9375,5.9375 H 39.062499 c 3.29036,0 5.9375,-2.6471 5.9375,-5.9375 v -2.5 c 0,3.2904 -2.64714,5.9375 -5.9375,5.9375 H 8.9374991 c -3.29036,0 -5.9375,-2.6471 -5.9375,-5.9375 z"
       id="rect5265-4" />
    <path
       inkscape:connector-curvature="0"
       style="fill:#000000;fill-opacity:0.09803922;stroke:none"
       d="m 2.9999991,1042.9247 v 0.5 c 0,3.2904 2.64714,5.9375 5.9375,5.9375 H 39.062499 c 3.29036,0 5.9375,-2.6471 5.9375,-5.9375 v -0.5 c 0,3.2904 -2.64714,5.9375 -5.9375,5.9375 H 8.9374991 c -3.29036,0 -5.9375,-2.6471 -5.9375,-5.9375 z"
       id="path5252-6" />
    <path
       id="path4222-0"
       d="m 30.924454,1017.4062 c -1.905003,-1.3171 -4.261892,-2.044 -6.920144,-2.044 -2.431318,0 -4.610336,0.6074 -6.422178,1.7182 -3.490905,2.1169 -5.639755,6.0797 -5.639755,11.1576 0,6.8688 4.822354,13.1242 12.057127,13.1242 7.236762,0 12.058118,-6.2554 12.058118,-13.1242 0,-4.8276 -1.942799,-8.6478 -5.13383,-10.8316 z m -6.921139,0.2529 c 3.88129,0 4.670676,5.4159 4.670676,10.334 0,4.5552 -0.43912,10.6544 -4.6231,10.6544 -4.184146,0 -4.725047,-6.1586 -4.725047,-10.7141 6.62e-4,-4.9166 0.796348,-10.2735 4.678135,-10.2735 z"
       style="fill:#000000;fill-opacity:0.49803922"
       inkscape:connector-curvature="0" />
  </g>
</svg>
