<?xml version="1.0" encoding="UTF-8" standalone="no"?>
<!-- Created with Inkscape (http://www.inkscape.org/) -->

<svg
   xmlns:dc="http://purl.org/dc/elements/1.1/"
   xmlns:cc="http://creativecommons.org/ns#"
   xmlns:rdf="http://www.w3.org/1999/02/22-rdf-syntax-ns#"
   xmlns:svg="http://www.w3.org/2000/svg"
   xmlns="http://www.w3.org/2000/svg"
   xmlns:xlink="http://www.w3.org/1999/xlink"
   xmlns:sodipodi="http://sodipodi.sourceforge.net/DTD/sodipodi-0.dtd"
   xmlns:inkscape="http://www.inkscape.org/namespaces/inkscape"
   width="48"
   height="48"
   id="svg5453"
   version="1.1"
   inkscape:version="0.91+devel r"
   sodipodi:docname="popcorntime.svg"
   viewBox="0 0 48 48">
  <defs
     id="defs5455">
    <linearGradient
       inkscape:collect="always"
       xlink:href="#linearGradient6125"
       id="linearGradient6778"
       x1="40.915409"
       y1="1049.3521"
       x2="40.915409"
       y2="1007.3218"
       gradientUnits="userSpaceOnUse"
       gradientTransform="translate(384.57143,-504.56416)" />
    <linearGradient
       inkscape:collect="always"
       id="linearGradient6125">
      <stop
         style="stop-color:#f81654;stop-opacity:1"
         offset="0"
         id="stop6127" />
      <stop
         style="stop-color:#fd668f;stop-opacity:1"
         offset="1"
         id="stop6129" />
    </linearGradient>
  </defs>
  <sodipodi:namedview
     id="base"
     pagecolor="#ffffff"
     bordercolor="#666666"
     borderopacity="1.0"
     inkscape:pageopacity="0"
     inkscape:pageshadow="2"
     inkscape:zoom="16"
     inkscape:cx="36.708147"
     inkscape:cy="27.419991"
     inkscape:document-units="px"
     inkscape:current-layer="layer1"
     showgrid="false"
     fit-margin-top="0"
     fit-margin-left="0"
     fit-margin-right="0"
     fit-margin-bottom="0"
     inkscape:window-width="2560"
     inkscape:window-height="1026"
     inkscape:window-x="-4"
     inkscape:window-y="29"
     inkscape:window-maximized="1"
     inkscape:showpageshadow="false"
     borderlayer="true"
     showguides="false">
    <sodipodi:guide
       position="9.0000117,9.0000264"
       orientation="-30,0"
       id="guide4661" />
    <sodipodi:guide
       position="9.0000117,39.000026"
       orientation="0,30"
       id="guide4663" />
    <sodipodi:guide
       position="39.000012,39.000026"
       orientation="30,0"
       id="guide4665" />
    <sodipodi:guide
       position="39.000012,9.0000264"
       orientation="0,-30"
       id="guide4667" />
  </sodipodi:namedview>
  <metadata
     id="metadata5458">
    <rdf:RDF>
      <cc:Work
         rdf:about="">
        <dc:format>image/svg+xml</dc:format>
        <dc:type
           rdf:resource="http://purl.org/dc/dcmitype/StillImage" />
        <dc:title />
      </cc:Work>
    </rdf:RDF>
  </metadata>
  <g
     inkscape:label="Capa 1"
     inkscape:groupmode="layer"
     id="layer1"
     transform="translate(-384.57143,-499.798)">
    <rect
       style="fill:#000000;fill-opacity:0.01960784;stroke:none"
       id="rect5263"
       width="44.399963"
       height="44.399963"
       x="386.37146"
       y="501.59802"
       ry="6.2786646" />
    <rect
       ry="6.1938181"
       y="501.89813"
       x="386.67145"
       height="43.799973"
       width="43.799973"
       id="rect5261"
       style="fill:#000000;fill-opacity:0.03921569;stroke:none" />
    <rect
       style="fill:#000000;fill-opacity:0.07843137;stroke:none"
       id="rect5259"
       width="43.199982"
       height="43.199982"
       x="386.97144"
       y="502.19818"
       ry="6.1089716" />
    <rect
       ry="6.0241251"
       y="502.49817"
       x="387.27145"
       height="42.599991"
       width="42.599991"
       id="rect5257"
       style="fill:#000000;fill-opacity:0.15686275;stroke:none" />
    <rect
       style="fill:url(#linearGradient6778);fill-opacity:1;stroke:none"
       id="rect5237"
       width="42"
       height="42"
       x="387.57144"
       y="502.79803"
       ry="5.9392786" />
    <path
       inkscape:connector-curvature="0"
       style="fill:#000000;fill-opacity:0.11764706;stroke:none"
       d="m 387.57143,536.36054 0,2.5 c 0,3.2904 2.64714,5.9375 5.9375,5.9375 l 30.125,0 c 3.29036,0 5.9375,-2.6471 5.9375,-5.9375 l 0,-2.5 c 0,3.2904 -2.64714,5.9375 -5.9375,5.9375 l -30.125,0 c -3.29036,0 -5.9375,-2.6471 -5.9375,-5.9375 z"
       id="rect5265" />
    <path
       inkscape:connector-curvature="0"
       style="fill:#000000;fill-opacity:0.09803922;stroke:none"
       d="m 387.57143,538.36054 0,0.5 c 0,3.2904 2.64714,5.9375 5.9375,5.9375 l 30.125,0 c 3.29036,0 5.9375,-2.6471 5.9375,-5.9375 l 0,-0.5 c 0,3.2904 -2.64714,5.9375 -5.9375,5.9375 l -30.125,0 c -3.29036,0 -5.9375,-2.6471 -5.9375,-5.9375 z"
       id="path5252" />
    <rect
       id="rect6284"
       style="fill:#eeeeec;display:none;enable-background:accumulate"
       height="8.3631706"
       width="8.3799486"
       y="489.41681"
       x="379.02103" />
    <rect
       id="rect6592"
       style="fill:#eeeeec;display:none;enable-background:accumulate"
       height="5.5754471"
       width="5.5866323"
       y="502.65918"
       x="380.2326" />
    <rect
       id="rect8104"
       style="fill:#ffffff;display:none;enable-background:accumulate"
       height="4.1815853"
       width="4.1899743"
       y="511.37085"
       x="380.05804" />
    <rect
       id="rect6749"
       style="fill:#eeeeec;display:none;enable-background:accumulate"
       height="3.8331199"
       width="3.8408098"
       y="511.55554"
       x="380.2326" />
    <rect
       id="rect6833"
       style="fill:#eeeeec;display:none;enable-background:accumulate"
       height="2.7877235"
       width="2.7933161"
       y="518.86279"
       x="380.2326" />
    <rect
       id="rect3068"
       style="fill:#eeeeec;display:none;enable-background:accumulate"
       height="44.603577"
       width="44.693058"
       y="486.28058"
       x="330.13834" />
    <text
       id="context"
       style="font-size:3.19182992px;fill:#000000;display:none;enable-background:new;font-family:Bitstream Vera Sans"
       xml:space="preserve"
       y="484.93994"
       x="330.66379"
       transform="scale(1.0010026,0.99899841)"><tspan
         id="tspan2716"
         x="330.66379"
         y="484.93994">apps</tspan></text>
    <text
       sodipodi:linespacing="125%"
       id="text3021"
       style="font-size:3.19182992px;font-weight:bold;line-height:125%;fill:#000000;display:none;enable-background:new;font-family:Droid Sans"
       xml:space="preserve"
       y="484.93994"
       x="360.48746"
       transform="scale(1.0010026,0.99899841)"><tspan
         id="tspan3023"
         y="484.93994"
         x="360.48746">preferences-color</tspan></text>
    <rect
       id="rect6284-3"
       style="fill:#eeeeec;display:none;enable-background:accumulate"
       height="8.3631706"
       width="8.3799486"
       y="502.60654"
       x="488.34216" />
    <rect
       id="rect6592-0"
       style="fill:#eeeeec;display:none;enable-background:accumulate"
       height="5.5754471"
       width="5.5866323"
       y="515.84894"
       x="489.55377" />
    <rect
       id="rect8104-4"
       style="fill:#ffffff;display:none;enable-background:accumulate"
       height="4.1815853"
       width="4.1899743"
       y="524.56061"
       x="489.37918" />
    <rect
       id="rect6749-4"
       style="fill:#eeeeec;display:none;enable-background:accumulate"
       height="3.8331199"
       width="3.8408098"
       y="524.7453"
       x="489.55377" />
    <rect
       id="rect6833-1"
       style="fill:#eeeeec;display:none;enable-background:accumulate"
       height="2.7877235"
       width="2.7933161"
       y="532.05255"
       x="489.55377" />
    <rect
       id="rect3068-0"
       style="fill:#eeeeec;display:none;enable-background:accumulate"
       height="44.603577"
       width="44.693058"
       y="499.47031"
       x="439.45947" />
    <text
       id="context-8"
       style="font-size:3.19182992px;fill:#000000;display:none;enable-background:new;font-family:Bitstream Vera Sans"
       xml:space="preserve"
       y="498.14288"
       x="439.87546"
       transform="scale(1.0010026,0.99899841)"><tspan
         id="tspan2716-6"
         x="439.87546"
         y="498.14288">apps</tspan></text>
    <text
       sodipodi:linespacing="125%"
       id="text3021-1"
       style="font-size:3.19182992px;font-weight:bold;line-height:125%;fill:#000000;display:none;enable-background:new;font-family:Droid Sans"
       xml:space="preserve"
       y="498.14288"
       x="469.6991"
       transform="scale(1.0010026,0.99899841)"><tspan
         id="tspan3023-7"
         y="498.14288"
         x="469.6991">preferences-color</tspan></text>
    <path
       style="opacity:1;fill:#000000;fill-opacity:0.49803922;stroke:none;stroke-width:12.99995422;stroke-linecap:round;stroke-linejoin:round;stroke-miterlimit:4;stroke-dasharray:none;stroke-opacity:1"
       d="m 408.57157,510.79854 c -0.37939,0.002 -0.75848,0.0217 -1.13621,0.0571 -0.18348,0.0194 -0.36658,0.0428 -0.54909,0.07 -0.25072,0.031 -0.50051,0.0689 -0.74899,0.11428 -0.15616,0.0322 -0.31171,0.0667 -0.46656,0.10487 -0.27615,0.0598 -0.55032,0.1287 -0.82201,0.20629 -0.1565,0.0491 -0.31202,0.10054 -0.46656,0.15552 -0.22648,0.0753 -0.45085,0.1568 -0.67286,0.24439 l -0.013,0.002 c -4.90848,1.98559 -8.12224,6.74976 -8.12496,12.04464 0.002,5.29372 3.21755,10.05631 8.12496,12.04146 0.39388,0.15925 0.79532,0.29905 1.20288,0.41895 0.0582,0.016 0.11618,0.0323 0.17457,0.0478 0.35176,0.0998 0.70751,0.18431 1.0664,0.2539 0.11192,0.0195 0.22404,0.0375 0.33644,0.0539 0.30833,0.0534 0.61853,0.096 0.92991,0.12701 0.38724,0.0364 0.77586,0.0556 1.1648,0.0571 0.37939,-0.002 0.75848,-0.0217 1.13622,-0.0571 0.18347,-0.0194 0.36658,-0.0428 0.54908,-0.07 0.25072,-0.031 0.50052,-0.0689 0.74899,-0.11429 0.15616,-0.0322 0.31171,-0.0672 0.46656,-0.10487 0.27615,-0.0598 0.55032,-0.12857 0.82201,-0.2063 0.1565,-0.0491 0.31202,-0.10053 0.46656,-0.15551 0.22647,-0.0753 0.45085,-0.1568 0.67287,-0.24439 l 0.013,-0.002 c 4.90848,-1.98558 8.12224,-6.74975 8.12496,-12.04464 -0.002,-5.29372 -3.21755,-10.05631 -8.12496,-12.04147 -0.39388,-0.15925 -0.79532,-0.29904 -1.20288,-0.41893 -0.0582,-0.0165 -0.11617,-0.0323 -0.17457,-0.0478 -0.35176,-0.0998 -0.70751,-0.18433 -1.0664,-0.2539 -0.11192,-0.0195 -0.22404,-0.0375 -0.33643,-0.0542 -0.30834,-0.0534 -0.61854,-0.096 -0.92992,-0.12701 -0.38724,-0.0364 -0.77586,-0.0556 -1.1648,-0.0571 z m -6.49996,6.49998 4.87496,0 0,14.62494 -4.87496,0 z m 8.12496,0 4.875,0 0,14.62494 -4.875,0 z"
       id="rect4384"
       inkscape:connector-curvature="0"
       sodipodi:nodetypes="ccccccccccccccccccccccccccccccccccccccccccc" />
  </g>
</svg>
