<?xml version="1.0" encoding="UTF-8" standalone="no"?>
<!-- Created with Inkscape (http://www.inkscape.org/) -->

<svg
   xmlns:dc="http://purl.org/dc/elements/1.1/"
   xmlns:cc="http://creativecommons.org/ns#"
   xmlns:rdf="http://www.w3.org/1999/02/22-rdf-syntax-ns#"
   xmlns:svg="http://www.w3.org/2000/svg"
   xmlns="http://www.w3.org/2000/svg"
   xmlns:xlink="http://www.w3.org/1999/xlink"
   xmlns:sodipodi="http://sodipodi.sourceforge.net/DTD/sodipodi-0.dtd"
   xmlns:inkscape="http://www.inkscape.org/namespaces/inkscape"
   width="48"
   height="48"
   id="svg5453"
   version="1.1"
   inkscape:version="0.91+devel r"
   sodipodi:docname="sakura-spirit.svg"
   viewBox="0 0 48 48">
  <defs
     id="defs5455">
    <style
       id="style2464"
       type="text/css" />
    <style
       type="text/css"
       id="style2464-7" />
    <linearGradient
       inkscape:collect="always"
       id="linearGradient6125">
      <stop
         style="stop-color:#f81654;stop-opacity:1"
         offset="0"
         id="stop6127" />
      <stop
         style="stop-color:#fd668f;stop-opacity:1"
         offset="1"
         id="stop6129" />
    </linearGradient>
    <linearGradient
       inkscape:collect="always"
       xlink:href="#linearGradient6125"
       id="linearGradient5353"
       x1="28.728134"
       y1="1049.4073"
       x2="28.728134"
       y2="1007.5463"
       gradientUnits="userSpaceOnUse"
       gradientTransform="translate(384.57142,-504.56414)" />
    <clipPath
       clipPathUnits="userSpaceOnUse"
       id="clipPath4050">
      <path
         inkscape:connector-curvature="0"
         d="m 205,114 22,0 0,14 -22,0 0,-14 z"
         id="path4052" />
    </clipPath>
    <clipPath
       clipPathUnits="userSpaceOnUse"
       id="clipPath4054">
      <path
         inkscape:connector-curvature="0"
         d="m 205,114 22,0 0,14 -22,0 0,-14 z"
         id="path4056" />
    </clipPath>
  </defs>
  <sodipodi:namedview
     id="base"
     pagecolor="#ffffff"
     bordercolor="#666666"
     borderopacity="1.0"
     inkscape:pageopacity="0"
     inkscape:pageshadow="2"
     inkscape:zoom="6.4328812"
     inkscape:cx="-17.846339"
     inkscape:cy="18.380174"
     inkscape:document-units="px"
     inkscape:current-layer="layer1"
     showgrid="false"
     fit-margin-top="0"
     fit-margin-left="0"
     fit-margin-right="0"
     fit-margin-bottom="0"
     inkscape:window-width="2560"
     inkscape:window-height="957"
     inkscape:window-x="-4"
     inkscape:window-y="29"
     inkscape:window-maximized="1" />
  <metadata
     id="metadata5458">
    <rdf:RDF>
      <cc:Work
         rdf:about="">
        <dc:format>image/svg+xml</dc:format>
        <dc:type
           rdf:resource="http://purl.org/dc/dcmitype/StillImage" />
        <dc:title />
      </cc:Work>
    </rdf:RDF>
  </metadata>
  <g
     inkscape:label="Capa 1"
     inkscape:groupmode="layer"
     id="layer1"
     transform="translate(-384.57143,-499.798)">
    <rect
       style="fill:#000000;fill-opacity:0.01960784;stroke:none"
       id="rect5263-8"
       width="44.399963"
       height="44.399963"
       x="386.37146"
       y="501.59802"
       ry="6.2786646" />
    <rect
       ry="6.1938181"
       y="501.89813"
       x="386.67145"
       height="43.799973"
       width="43.799973"
       id="rect5261-1"
       style="fill:#000000;fill-opacity:0.03921569;stroke:none" />
    <rect
       style="fill:#000000;fill-opacity:0.07843137;stroke:none"
       id="rect5259-9"
       width="43.199982"
       height="43.199982"
       x="386.97144"
       y="502.19818"
       ry="6.1089716" />
    <rect
       ry="6.0241251"
       y="502.49817"
       x="387.27145"
       height="42.599991"
       width="42.599991"
       id="rect5257-8"
       style="fill:#000000;fill-opacity:0.15686275;stroke:none" />
    <rect
       style="fill:url(#linearGradient5353);fill-opacity:1;stroke:none"
       id="rect5237-9"
       width="42"
       height="42"
       x="387.57144"
       y="502.79803"
       ry="5.9392786" />
    <path
       inkscape:connector-curvature="0"
       style="fill:#000000;fill-opacity:0.11764706;stroke:none"
       d="m 387.57142,536.36056 0,2.5 c 0,3.2904 2.64714,5.9375 5.9375,5.9375 l 30.125,0 c 3.29036,0 5.9375,-2.6471 5.9375,-5.9375 l 0,-2.5 c 0,3.2904 -2.64714,5.9375 -5.9375,5.9375 l -30.125,0 c -3.29036,0 -5.9375,-2.6471 -5.9375,-5.9375 z"
       id="rect5265-8" />
    <path
       inkscape:connector-curvature="0"
       style="fill:#000000;fill-opacity:0.09803922;stroke:none"
       d="m 387.57142,538.36056 0,0.5 c 0,3.2904 2.64714,5.9375 5.9375,5.9375 l 30.125,0 c 3.29036,0 5.9375,-2.6471 5.9375,-5.9375 l 0,-0.5 c 0,3.2904 -2.64714,5.9375 -5.9375,5.9375 l -30.125,0 c -3.29036,0 -5.9375,-2.6471 -5.9375,-5.9375 z"
       id="path5252-6" />
    <g
       transform="matrix(1.25,0,0,-1.25,86.81706,675.31187)"
       id="g4058">
      <g
         clip-path="url(#clipPath4050)"
         id="g4060"
         style="opacity:0.25">
        <g
           id="g4062" />
        <g
           id="g4064">
          <g
             clip-path="url(#clipPath4054)"
             id="g4066" />
        </g>
      </g>
    </g>
    <path
       style="fill:#000000;fill-opacity:0.49803922;fill-rule:evenodd;stroke:none;stroke-width:0.26260641px;stroke-linecap:butt;stroke-linejoin:miter;stroke-opacity:1"
       d="m 408.17784,510.53646 c -2.42351,2.2334 -5.11121,5.53455 -3.4144,8.92793 -2.83792,-1.70493 -7.0911,-0.78821 -9.19201,0.52478 0.55053,2.74862 4.45444,7.81427 7.35361,7.08953 -1.62122,3.97574 -0.72606,6.22688 0.52477,9.97916 3.4951,0.0844 6.16987,-3.00786 6.82882,-6.30236 1.78474,2.76762 6.82848,3.67617 9.19201,2.36317 -0.36653,-3.41458 -0.94815,-6.2343 -3.41441,-7.87838 2.5201,-1.26687 4.46474,-3.41252 5.5152,-5.7759 -1.61798,-3.27342 -6.99895,-3.11718 -9.45439,-1.57601 0.62015,-2.62249 -0.95165,-5.05379 -2.1008,-7.35192 -0.78784,0.12217 -1.05055,0.10079 -1.8384,0 z m 1.04955,1.57433 c 1.13582,2.35768 2.81215,6.82534 0.78885,8.14076 -1.05502,0.81663 -0.42603,-4.54342 -0.78885,-6.03997 -0.67123,3.66861 -0.17188,4.36001 -2.10078,6.82882 -3.34163,-2.82238 -1.27746,-7.2406 2.10078,-8.92961 z m 6.59335,5.71536 c 1.49611,-0.0127 3.06155,0.52519 4.17468,1.63824 -1.20267,2.91726 -7.00404,6.37675 -7.87838,3.93919 1.85765,-0.0611 4.77993,-1.83607 5.51519,-2.88964 -2.36478,0.29792 -4.13339,1.83841 -6.30404,1.83841 -0.30323,-2.95619 1.99904,-4.50519 4.49255,-4.5262 z m -15.052,2.02509 c 2.77321,0.047 5.59429,0.8016 4.78353,3.55234 -2.20103,-1.22403 -3.24827,-2.33771 -6.04165,-1.83841 2.05898,0.68628 5.09207,1.4339 5.77758,3.67512 -2.69787,1.3075 -6.71702,-0.31326 -8.66554,-4.98874 0.83487,-0.20292 2.48216,-0.42838 4.14608,-0.40031 z m 7.14671,0.92509 0.52478,0.78884 0.78716,0.2624 1.05124,-0.78717 0,0.78717 0.52478,0.78716 c 0,0 1.57623,-2.1e-4 1.31362,0.26239 -0.26261,0.2626 -1.05123,0.52646 -1.05123,0.52646 0,0 1.57623,1.04955 1.31362,1.04955 -0.26261,0 -0.78716,-2.1e-4 -0.78716,0.26239 0,0.2626 -0.78885,0.78884 -0.78885,0.78884 l 0,-0.26407 0,-0.52477 c 0,-0.2626 0.26239,-0.52457 0.26239,-0.78717 0,-0.2626 0.26261,-0.26217 0,-0.52477 -0.26262,-0.26261 -0.26218,-0.52625 -0.52478,-0.78885 -0.26262,-0.26259 2.2e-4,-0.52477 -0.26239,-0.52477 l -0.78717,0 c -0.26262,0 -0.52622,-0.26239 -0.78884,-0.26239 l -0.52478,0 c -0.26261,0 -0.26216,-0.5252 -0.52477,0 -0.26262,0.52519 -0.26385,-6.4e-4 -0.52646,0.78716 -0.26262,0.78779 -0.52478,0.78843 -0.52478,1.31362 0,0.5252 0.26239,-4.2e-4 0.26239,0.52478 0,0.52519 -2.3e-4,0.26365 0.26239,0.78884 0.26261,0.5252 8.6e-4,0.26218 0.52646,0.52478 0,0.2626 -0.26385,0.78717 -0.52646,0.78717 -0.26262,0 -0.78717,-0.26239 -0.78717,-0.26239 l -1.57601,-0.26239 1.31362,-0.78717 -0.52478,-1.31362 0.52478,0 c 0,0 -2.2e-4,-0.78716 0.26239,-0.78716 0.26262,0 0.26239,-0.52646 0.26239,-0.52646 l -0.26239,-0.52477 -0.26239,-1.04956 0.78717,0.78717 0.52478,-0.2624 0.52645,-0.78884 z m 0.47432,1.19757 c 0.0872,0.0128 0.14872,0.11606 0.31285,0.11606 l 0.52477,0 c 0.26262,0 0.52646,0.26239 0.52646,0.26239 0,0 0.26215,0.26238 0.52478,0.26238 0.26261,0 0.26239,0.52624 0.26239,0.78885 l 0,0.52477 0,1.04955 0,0.26407 c 0,0.26261 -0.26239,0.26239 -0.26239,0.26239 0,0 -0.26216,0.26239 -0.52478,0.26239 -0.26261,0 -0.52623,0.26239 -0.78885,0.26239 0,0 -0.52455,2.2e-4 -0.78716,-0.26239 -0.26261,-0.26259 -0.26216,2.1e-4 -0.52477,-0.26239 -0.26262,-0.26259 -0.52646,-0.52603 -0.52646,-1.05123 l 0,-0.52478 0,-0.52477 c 0,-0.2626 -2.3e-4,-0.52646 0.26239,-0.52646 0.26261,0 0.002,-0.26217 0.26407,-0.52477 0.26261,-0.2626 0.26216,2e-4 0.52477,-0.26239 0.0985,-0.0986 0.15957,-0.12382 0.21193,-0.11606 z m 4.82727,3.41777 c 0.0714,-8.6e-4 0.14226,-8e-5 0.21193,0.003 3.00978,0.1415 4.43137,4.32254 4.46564,7.19885 -3.78444,0.0307 -7.09098,-1.05124 -7.35359,-5.25281 1.57568,2.36338 3.79894,2.88256 5.77759,4.20158 -1.82844,-2.03624 -3.88035,-3.2381 -4.72634,-5.77591 0.58409,-0.24915 1.12514,-0.36733 1.62477,-0.37508 z m -5.31,0.52983 c 0.27619,0.20126 0.32342,0.37003 0.53319,0.37003 l 0.52477,0 0.26239,0 1.05124,0 0.19511,-0.29266 c 0.009,0.0189 0.0291,0.0303 0.0673,0.0303 0.26261,0 0.26239,0.78716 0.26239,0.78716 l -0.52478,0 -0.52477,1.05123 c 0,0 -0.52624,-0.26385 -0.78885,-0.52646 l -0.78717,-0.78716 0,-0.26239 c 0,0 -0.13713,-0.20422 -0.27079,-0.37003 z m -2.09238,0.63242 c 0,2.55234 -1.77727,4.73002 -0.78884,7.35359 0.67036,-2.68131 0.58336,-5.04793 2.88963,-7.0912 2.96717,2.96698 -0.78804,8.40274 -3.6768,8.92793 -1.34709,-2.82906 -1.91281,-7.51366 1.57601,-9.19032 z"
       id="path4170-7"
       inkscape:connector-curvature="0" />
  </g>
</svg>
