<?xml version="1.0" encoding="UTF-8" standalone="no"?>
<!-- Created with Inkscape (http://www.inkscape.org/) -->

<svg
   xmlns:dc="http://purl.org/dc/elements/1.1/"
   xmlns:cc="http://creativecommons.org/ns#"
   xmlns:rdf="http://www.w3.org/1999/02/22-rdf-syntax-ns#"
   xmlns:svg="http://www.w3.org/2000/svg"
   xmlns="http://www.w3.org/2000/svg"
   xmlns:xlink="http://www.w3.org/1999/xlink"
   xmlns:sodipodi="http://sodipodi.sourceforge.net/DTD/sodipodi-0.dtd"
   xmlns:inkscape="http://www.inkscape.org/namespaces/inkscape"
   width="48"
   height="48"
   id="svg2"
   version="1.1"
   inkscape:version="0.91+devel r"
   sodipodi:docname="swtor.svg"
   viewBox="0 0 48 48">
  <defs
     id="defs4">
    <defs
       id="defs4922">
      <filter
         id="Adobe_OpacityMaskFilter"
         filterUnits="userSpaceOnUse"
         x="3.7850001"
         y="4.6750002"
         width="5.8829999"
         height="73.013"
         style="color-interpolation-filters:sRGB">
        <feColorMatrix
           type="matrix"
           values="1 0 0 0 0  0 1 0 0 0  0 0 1 0 0  0 0 0 1 0"
           id="feColorMatrix4925" />
      </filter>
    </defs>
    <mask
       maskUnits="userSpaceOnUse"
       x="3.785"
       y="4.675"
       width="5.883"
       height="73.013"
       id="SVGID_2_">
      <g
         style="filter:url(#Adobe_OpacityMaskFilter)"
         id="g4928">
        <linearGradient
           id="SVGID_3_"
           gradientUnits="userSpaceOnUse"
           x1="3.7852001"
           y1="41.181198"
           x2="9.6680002"
           y2="41.181198">
          <stop
             offset="0"
             style="stop-color:#FFFFFF"
             id="stop4931" />
          <stop
             offset="0.0029"
             style="stop-color:#FAFBFB"
             id="stop4933" />
          <stop
             offset="0.0756"
             style="stop-color:#BBBDBF"
             id="stop4935" />
          <stop
             offset="0.1438"
             style="stop-color:#898B8E"
             id="stop4937" />
          <stop
             offset="0.2053"
             style="stop-color:#646567"
             id="stop4939" />
          <stop
             offset="0.259"
             style="stop-color:#444446"
             id="stop4941" />
          <stop
             offset="0.3028"
             style="stop-color:#1D1C1D"
             id="stop4943" />
          <stop
             offset="0.3313"
             style="stop-color:#000000"
             id="stop4945" />
        </linearGradient>
        <rect
           style="fill:url(#SVGID_3_)"
           x="3.7850001"
           y="4.6750002"
           width="5.8829999"
           height="73.013"
           id="rect4947" />
      </g>
    </mask>
    <linearGradient
       inkscape:collect="always"
       id="linearGradient6075">
      <stop
         style="stop-color:#ec7928;stop-opacity:1"
         offset="0"
         id="stop6077" />
      <stop
         style="stop-color:#f29e34;stop-opacity:1"
         offset="1"
         id="stop6079" />
    </linearGradient>
    <linearGradient
       gradientTransform="translate(-1.4953613e-6,1.0944336e-4)"
       inkscape:collect="always"
       xlink:href="#linearGradient6075"
       id="linearGradient6081"
       x1="37.957897"
       y1="1049.3441"
       x2="37.957897"
       y2="1007.4396"
       gradientUnits="userSpaceOnUse" />
  </defs>
  <sodipodi:namedview
     id="base"
     pagecolor="#ffffff"
     bordercolor="#666666"
     borderopacity="1.0"
     inkscape:pageopacity="0.0"
     inkscape:pageshadow="2"
     inkscape:zoom="14.908168"
     inkscape:cx="12.554082"
     inkscape:cy="22.557194"
     inkscape:document-units="px"
     inkscape:current-layer="layer1"
     showgrid="false"
     inkscape:window-width="2560"
     inkscape:window-height="957"
     inkscape:window-x="-4"
     inkscape:window-y="29"
     inkscape:window-maximized="1" />
  <metadata
     id="metadata7">
    <rdf:RDF>
      <cc:Work
         rdf:about="">
        <dc:format>image/svg+xml</dc:format>
        <dc:type
           rdf:resource="http://purl.org/dc/dcmitype/StillImage" />
        <dc:title />
      </cc:Work>
    </rdf:RDF>
  </metadata>
  <g
     inkscape:label="Capa 1"
     inkscape:groupmode="layer"
     id="layer1"
     transform="translate(0,-1004.3622)">
    <rect
       style="fill:#000000;fill-opacity:0.01960784;stroke:none"
       id="rect5263"
       width="44.399963"
       height="44.399963"
       x="1.8000183"
       y="1006.1622"
       ry="6.2786646" />
    <rect
       ry="6.1938181"
       y="1006.4623"
       x="2.1000061"
       height="43.799973"
       width="43.799973"
       id="rect5261"
       style="fill:#000000;fill-opacity:0.03921569;stroke:none" />
    <rect
       style="fill:#000000;fill-opacity:0.07843137;stroke:none"
       id="rect5259"
       width="43.199982"
       height="43.199982"
       x="2.3999939"
       y="1006.7625"
       ry="6.1089716" />
    <rect
       ry="6.0241251"
       y="1007.0624"
       x="2.7000122"
       height="42.599991"
       width="42.599991"
       id="rect5257"
       style="fill:#000000;fill-opacity:0.15686275;stroke:none" />
    <rect
       style="fill:url(#linearGradient6081);fill-opacity:1;stroke:none"
       id="rect5237"
       width="42"
       height="42"
       x="3"
       y="1007.3622"
       ry="5.9392786" />
    <path
       inkscape:connector-curvature="0"
       style="fill:#000000;fill-opacity:0.11764706;stroke:none"
       d="m 2.9999975,1040.9247 0,2.5 c 0,3.2904 2.64714,5.9375 5.9375,5.9375 l 30.1250005,0 c 3.29036,0 5.9375,-2.6471 5.9375,-5.9375 l 0,-2.5 c 0,3.2904 -2.64714,5.9375 -5.9375,5.9375 l -30.1250005,0 c -3.29036,0 -5.9375,-2.6471 -5.9375,-5.9375 z"
       id="rect5265" />
    <path
       inkscape:connector-curvature="0"
       style="fill:#000000;fill-opacity:0.09803922;stroke:none"
       d="m 2.9999975,1042.9247 0,0.5 c 0,3.2904 2.64714,5.9375 5.9375,5.9375 l 30.1250005,0 c 3.29036,0 5.9375,-2.6471 5.9375,-5.9375 l 0,-0.5 c 0,3.2904 -2.64714,5.9375 -5.9375,5.9375 l -30.1250005,0 c -3.29036,0 -5.9375,-2.6471 -5.9375,-5.9375 z"
       id="path5252" />
    <path
       style="opacity:0.76000001;fill:#000000;fill-opacity:0.49803922;stroke-width:0.06866121"
       d="m 23.921497,1012.9624 c -0.844686,0.01 -1.690404,0.06 -2.283203,0.1602 -3.261007,0.5502 -5.991501,1.9041 -8.261719,4.0957 -2.23155,2.1543 -3.7123148,4.7403 -4.3984374,7.6875 -0.5179323,2.2247 -0.5030989,4.764 0.039063,7.0488 0.3930201,1.6563 1.2084704,3.538 2.1347654,4.9238 2.485499,3.7186 6.417216,6.189 10.794922,6.7813 0.989763,0.134 3.023179,0.1369 4.029297,0.01 l 0,0 c 5.835876,-0.7585 10.809136,-4.8416 12.642578,-10.3808 0.571868,-1.7278 0.786958,-3.1067 0.78125,-5.0039 -0.01028,-3.3683 -1.025426,-6.421 -3.046875,-9.1524 -0.585305,-0.7908 -1.859845,-2.1175 -2.636719,-2.7461 -2.138545,-1.7304 -4.71144,-2.8588 -7.513671,-3.2929 -0.592016,-0.092 -1.436565,-0.1329 -2.28125,-0.127 z m 0.0039,1 c 0.789837,-0.01 1.581192,0.033 2.134765,0.1191 2.62027,0.4059 5.025711,1.4602 7.025391,3.0782 0.726427,0.5878 1.917545,1.8288 2.464844,2.5683 1.890187,2.554 2.840009,5.4072 2.849609,8.5567 0.0053,1.7741 -0.195734,3.0641 -0.730468,4.6797 -1.714389,5.1795 -6.365338,8.9976 -11.822266,9.707 l 0,0.01 c -0.940785,0.1173 -2.840133,0.1136 -3.765625,-0.012 -4.093443,-0.5539 -7.771599,-2.8627 -10.095703,-6.3398 -0.866147,-1.2958 -1.628594,-3.0548 -1.9960936,-4.6035 -0.5069571,-2.1364 -0.5194569,-4.5116 -0.035156,-6.5918 0.6415696,-2.7557 2.0246826,-5.1751 4.1113276,-7.1895 2.122803,-2.0492 4.677309,-3.3135 7.726563,-3.8281 0.554308,-0.094 1.342976,-0.1448 2.132813,-0.1504 z m 0.800781,1.3633 c -0.02231,0 -0.04102,5.8751 -0.04102,13.0566 0,11.9865 0.0086,13.0563 0.109376,13.0176 0.162638,-0.062 3.995682,-2.363 4.103515,-2.4629 0.07707,-0.071 0.06173,-0.1363 -0.0918,-0.3984 -0.101161,-0.1728 -0.196201,-0.3145 -0.21289,-0.3145 -0.01665,0 -0.457051,0.245 -0.978516,0.5449 -0.521476,0.2999 -0.976824,0.545 -1.009766,0.545 -0.05177,0 -0.624526,-4.4004 -0.736328,-5.6563 l -0.03906,-0.4433 1.324218,-0.7911 1.322266,-0.791 2.460938,1.7461 c 1.353434,0.9599 2.463394,1.7606 2.464843,1.7793 0.0011,0.019 -0.40886,0.2903 -0.910156,0.6055 l -0.912109,0.5742 0.121094,0.3457 c 0.0664,0.1909 0.15339,0.3408 0.193359,0.332 0.07739,-0.017 4.377501,-2.1157 4.417969,-2.1562 0.03047,-0.031 -0.18248,-4.4551 -0.22461,-4.6641 -0.0287,-0.143 -0.06266,-0.1554 -0.386718,-0.1367 l -0.355469,0.022 -0.01953,1.0742 c -0.01028,0.5904 -0.04122,1.0722 -0.06836,1.0723 -0.02728,0 -1.312023,-0.5091 -2.857422,-1.1328 l -2.810547,-1.1348 0,-1.5859 0,-1.584 2.826172,-1.1328 c 1.554814,-0.6223 2.842648,-1.1309 2.861328,-1.1309 0.01843,0 0.0332,0.49 0.0332,1.0898 l 0,1.0918 0.375,0 c 0.33261,0 0.376744,-0.018 0.404297,-0.1543 0.03774,-0.1869 0.255729,-4.6277 0.228516,-4.6543 -0.01064,-0.01 -1.025066,-0.51 -2.253906,-1.1113 -1.433257,-0.7013 -2.244736,-1.0642 -2.263672,-1.0117 -0.0163,0.045 -0.07313,0.2077 -0.126953,0.3633 l -0.09766,0.2832 0.912109,0.5703 c 0.502182,0.3129 0.912449,0.5828 0.912109,0.6016 -7.26e-4,0.046 -4.881541,3.5126 -4.939453,3.5078 -0.02551,0 -0.624816,-0.3562 -1.332031,-0.7852 -1.077584,-0.6536 -1.284883,-0.8043 -1.285156,-0.9375 -1.99e-4,-0.087 0.152544,-1.4188 0.339843,-2.957 0.187299,-1.5383 0.339844,-2.8387 0.339844,-2.8906 0,-0.052 0.03393,-0.094 0.07422,-0.094 0.04025,0 0.467117,0.2302 0.949219,0.5117 0.482092,0.2815 0.921396,0.5296 0.976562,0.5508 0.06729,0.026 0.15914,-0.062 0.277344,-0.2637 0.09687,-0.1654 0.175781,-0.3191 0.175781,-0.3418 0,-0.043 -4.174563,-2.5656 -4.25,-2.5683 z m -4.986328,1.1172 c -0.06757,0 -0.227335,0.047 -0.445312,0.1289 -2.333459,0.8788 -4.254117,2.7408 -5.03711,4.8847 -0.363199,0.9945 -0.47492,1.6295 -0.517578,2.9082 -0.04344,1.3022 0.0304,2.1293 0.28711,3.1426 0.170397,0.6732 0.628863,1.7132 0.980468,2.2246 0.934016,1.3583 2.498333,2.2934 4.283203,2.5586 0.213023,0.031 0.434038,0.053 0.490235,0.047 0.08862,-0.01 0.101562,-0.3184 0.101562,-2.3301 0,-2.0783 -0.01244,-2.3379 -0.117187,-2.498 -0.06442,-0.098 -0.403176,-0.4112 -0.753907,-0.6934 -2.061987,-1.6595 -2.912402,-3.0954 -2.927734,-4.9492 -0.006,-0.7592 0.08846,-1.2162 0.392578,-1.8828 0.308623,-0.6766 0.71562,-1.2538 1.357422,-1.9238 0.521557,-0.5445 1.453994,-1.325 1.798828,-1.5059 0.149528,-0.078 0.174992,-0.1149 0.107422,-0.1113 z m 2.251953,3.5293 c -0.0843,0 -0.618075,0.8749 -0.882812,1.4433 -0.297496,0.6386 -0.466435,1.2204 -0.546875,1.8887 l -0.04492,0.3809 0.398437,0.1914 c 0.793134,0.3851 1.517447,1.3369 1.853516,2.4355 0.621914,2.033 0.609857,5.7545 -0.0293,9.1094 -0.254303,1.3351 -0.695842,2.666 -0.882812,2.666 -0.127773,0 -0.196365,-0.1129 -0.476563,-0.7695 -0.5724,-1.3413 -0.850239,-1.4887 -2.453125,-1.3086 -1.14114,0.1283 -2.013023,0.1269 -2.521484,0 -0.922858,-0.2339 -2.151103,-0.9985 -3.148438,-1.9629 -0.271594,-0.2626 -0.492187,-0.4577 -0.492187,-0.4316 0,0.026 0.09102,0.2309 0.203125,0.4531 0.914634,1.8129 2.243857,3.4592 3.222656,3.9922 0.685198,0.3732 1.651356,0.2998 2.751953,-0.209 0.285166,-0.1319 0.530413,-0.2274 0.544922,-0.2129 0.01453,0.014 -0.152017,0.1856 -0.369141,0.3809 -0.244275,0.2197 -0.646336,0.4753 -1.05664,0.6719 -0.364699,0.1747 -0.663521,0.3364 -0.664063,0.3574 -0.0021,0.078 1.489912,1.0233 1.933594,1.2246 0.825343,0.3744 2.728256,0.7673 4.025391,0.832 l 0.339843,0.018 0.01953,-8.3828 c 0.01028,-4.6108 0.0011,-8.4535 -0.01953,-8.5391 -0.03908,-0.1618 -0.146392,-0.2227 -0.626953,-0.3515 -0.395529,-0.1061 -0.980489,-0.6545 -1.185547,-1.1114 -0.220925,-0.4922 -0.223467,-1.633 -0.0059,-2.2968 0.07937,-0.2421 0.132994,-0.4529 0.11914,-0.4668 l -0.0059,0 z m 2.076172,0.2578 c -0.02126,0 -0.09325,0.1688 -0.158203,0.375 l -0.117188,0.375 -0.71289,0 c -0.429084,0 -0.710938,0.027 -0.710938,0.068 0,0.038 0.02648,0.068 0.05859,0.068 0.03224,0 0.269292,0.097 0.527344,0.2148 l 0.470703,0.2149 -0.544922,0.2558 -0.544922,0.2579 0.720703,0.01 0.720703,0.01 0.125,0.4101 c 0.06807,0.2249 0.141918,0.4082 0.164063,0.4082 0.02232,0 0.03906,-0.599 0.03906,-1.33 0,-0.731 -0.01578,-1.3282 -0.03711,-1.3282 l 0,-0.01 z m -11.134765,2.3984 c -0.02835,-0.032 -0.560703,1.3503 -0.722657,1.875 -0.35658,1.1551 -0.476687,1.8709 -0.515625,3.0645 -0.03083,0.9449 -0.01488,1.298 0.08203,1.8398 0.44048,2.458 1.895557,4.4643 4.039063,5.5664 0.693269,0.3565 1.125965,0.5111 1.646484,0.5879 0.547111,0.081 0.749491,0.08 1.333985,0 0.585376,-0.082 1.295534,-0.2823 1.486328,-0.4219 0.119763,-0.088 0.120218,-0.1125 0.01367,-0.5313 -0.156617,-0.6153 -0.45616,-1.2254 -0.740235,-1.5097 -0.278574,-0.2787 -0.588083,-0.3988 -1.445312,-0.5606 -1.81941,-0.3433 -3.498043,-1.6108 -4.386719,-3.3105 -0.415715,-0.7951 -0.70688,-1.6562 -0.863281,-2.5547 -0.147437,-0.8471 -0.151418,-2.6043 -0.0078,-3.4414 0.05467,-0.3186 0.09067,-0.5898 0.08008,-0.6016 z"
       id="path6053-7"
       inkscape:connector-curvature="0" />
  </g>
</svg>
