<?xml version="1.0" encoding="UTF-8" standalone="no"?>
<!-- Created with Inkscape (http://www.inkscape.org/) -->

<svg
   xmlns:dc="http://purl.org/dc/elements/1.1/"
   xmlns:cc="http://creativecommons.org/ns#"
   xmlns:rdf="http://www.w3.org/1999/02/22-rdf-syntax-ns#"
   xmlns:svg="http://www.w3.org/2000/svg"
   xmlns="http://www.w3.org/2000/svg"
   xmlns:xlink="http://www.w3.org/1999/xlink"
   xmlns:sodipodi="http://sodipodi.sourceforge.net/DTD/sodipodi-0.dtd"
   xmlns:inkscape="http://www.inkscape.org/namespaces/inkscape"
   width="48"
   height="48"
   id="svg2"
   version="1.1"
   inkscape:version="0.91+devel r"
   sodipodi:docname="team-fortress-2.svg"
   viewBox="0 0 48 48">
  <defs
     id="defs4">
    <linearGradient
       inkscape:collect="always"
       id="linearGradient6075">
      <stop
         style="stop-color:#ec7928;stop-opacity:1"
         offset="0"
         id="stop6077" />
      <stop
         style="stop-color:#f29e34;stop-opacity:1"
         offset="1"
         id="stop6079" />
    </linearGradient>
    <linearGradient
       gradientTransform="translate(0,6e-5)"
       inkscape:collect="always"
       xlink:href="#linearGradient6075"
       id="linearGradient6081"
       x1="37.957897"
       y1="1049.3441"
       x2="37.957897"
       y2="1007.4396"
       gradientUnits="userSpaceOnUse" />
    <linearGradient
       x1="45.447727"
       y1="92.539597"
       x2="45.447727"
       y2="7.0165396"
       id="ButtonShadow"
       gradientUnits="userSpaceOnUse"
       gradientTransform="matrix(1.0058652,0,0,0.994169,119.23086,972.70405)">
      <stop
         id="stop3750"
         style="stop-color:#000000;stop-opacity:1"
         offset="0" />
      <stop
         id="stop3752"
         style="stop-color:#000000;stop-opacity:0.58823532"
         offset="1" />
    </linearGradient>
    <filter
       style="color-interpolation-filters:sRGB"
       id="filter3174">
      <feGaussianBlur
         id="feGaussianBlur3176"
         stdDeviation="1.71" />
    </filter>
  </defs>
  <sodipodi:namedview
     id="base"
     pagecolor="#ffffff"
     bordercolor="#666666"
     borderopacity="1.0"
     inkscape:pageopacity="0.0"
     inkscape:pageshadow="2"
     inkscape:zoom="16.365019"
     inkscape:cx="-3.1901355"
     inkscape:cy="24.794817"
     inkscape:document-units="px"
     inkscape:current-layer="layer1"
     showgrid="false"
     inkscape:window-width="2560"
     inkscape:window-height="957"
     inkscape:window-x="-4"
     inkscape:window-y="29"
     inkscape:window-maximized="1">
    <inkscape:grid
       type="xygrid"
       id="grid3850"
       empspacing="5"
       visible="true"
       enabled="true"
       snapvisiblegridlinesonly="true" />
  </sodipodi:namedview>
  <metadata
     id="metadata7">
    <rdf:RDF>
      <cc:Work
         rdf:about="">
        <dc:format>image/svg+xml</dc:format>
        <dc:type
           rdf:resource="http://purl.org/dc/dcmitype/StillImage" />
        <dc:title />
      </cc:Work>
    </rdf:RDF>
  </metadata>
  <g
     inkscape:label="Capa 1"
     inkscape:groupmode="layer"
     id="layer1"
     transform="translate(0,-1004.3622)">
    <g
       transform="translate(-62.2708,1009.3603)"
       id="layer2-2"
       inkscape:label="Capa 2" />
    <rect
       style="fill:#000000;fill-opacity:0.01960784;stroke:none"
       id="rect5263"
       width="44.399963"
       height="44.399963"
       x="1.80002"
       y="1006.1622"
       ry="6.2786646" />
    <rect
       ry="6.1938181"
       y="1006.4623"
       x="2.1000078"
       height="43.799973"
       width="43.799973"
       id="rect5261"
       style="fill:#000000;fill-opacity:0.03921569;stroke:none" />
    <rect
       style="fill:#000000;fill-opacity:0.07843137;stroke:none"
       id="rect5259"
       width="43.199982"
       height="43.199982"
       x="2.3999956"
       y="1006.7624"
       ry="6.1089716" />
    <rect
       ry="6.0241251"
       y="1007.0624"
       x="2.7000139"
       height="42.599991"
       width="42.599991"
       id="rect5257"
       style="fill:#000000;fill-opacity:0.15686275;stroke:none" />
    <rect
       style="fill:url(#linearGradient6081);fill-opacity:1;stroke:none"
       id="rect5237"
       width="42"
       height="42"
       x="3.0000017"
       y="1007.3622"
       ry="5.9392786" />
    <path
       inkscape:connector-curvature="0"
       style="fill:#000000;fill-opacity:0.11764706;stroke:none"
       d="m 3,1040.9248 0,2.5 c 0,3.2904 2.64714,5.9375 5.9375,5.9375 l 30.125,0 c 3.29036,0 5.9375,-2.6471 5.9375,-5.9375 l 0,-2.5 c 0,3.2904 -2.64714,5.9375 -5.9375,5.9375 l -30.125,0 C 5.64714,1046.8623 3,1044.2152 3,1040.9248 Z"
       id="rect5265" />
    <path
       inkscape:connector-curvature="0"
       style="fill:#000000;fill-opacity:0.09803922;stroke:none"
       d="m 3,1042.9248 0,0.5 c 0,3.2904 2.64714,5.9375 5.9375,5.9375 l 30.125,0 c 3.29036,0 5.9375,-2.6471 5.9375,-5.9375 l 0,-0.5 c 0,3.2904 -2.64714,5.9375 -5.9375,5.9375 l -30.125,0 C 5.64714,1048.8623 3,1046.2152 3,1042.9248 Z"
       id="path5252" />
    <path
       style="opacity:0.9;fill:#000000;fill-opacity:0.49803922;stroke:none;stroke-width:0.0857958;stroke-linecap:square;stroke-linejoin:miter;stroke-miterlimit:4;stroke-dasharray:none;stroke-dashoffset:0;stroke-opacity:1"
       d="m 23.760831,1015.3622 a 13.005443,13.005443 0 0 0 -12.40373,9.9741 l 7.128846,0.8857 a 5.9115651,5.9115651 0 0 1 4.400685,-3.6683 l 0.874199,-7.1915 z m 3.356595,0.3826 -0.867602,7.1503 a 5.9115651,5.9115651 0 0 1 3.60236,4.7421 l 7.138743,0.8891 a 13.005443,13.005443 0 0 0 0.0066,-0.1699 13.005443,13.005443 0 0 0 -9.880099,-12.6116 z m -3.251031,8.7865 c -1.020591,0 -1.159776,0.028 -1.461397,0.287 -0.323213,0.2778 -0.333185,0.3214 -0.333185,1.4548 l 0,1.1695 0.349679,0.04 c 0.192168,0.022 0.57948,0 0.861003,-0.038 l 0.511324,-0.076 0,-0.706 c 0,-0.5686 0.03759,-0.7059 0.191335,-0.7059 0.163156,0 0.183998,0.1346 0.140201,0.922 -0.05015,0.9017 -0.07215,0.9556 -1.052338,2.6655 -0.941845,1.643 -0.998352,1.7809 -0.959969,2.3405 l 0.03959,0.5955 0.672968,0.04 c 0.548158,0.032 2.893932,-0.028 2.940938,-0.076 0.0071,-0.01 0.0468,-0.2669 0.08742,-0.5773 l 0.07422,-0.5641 -0.948424,0 c -0.521442,0 -0.948423,-0.023 -0.948423,-0.051 0,-0.053 0.330595,-0.614 1.296453,-2.2053 0.533347,-0.8787 0.541162,-0.9085 0.585549,-2.098 0.07916,-2.1216 -0.170646,-2.4165 -2.046945,-2.4165 z m -12.863922,4.1665 a 13.005443,13.005443 0 0 0 9.655776,12.2174 l 0.87255,-7.1916 a 5.9115651,5.9115651 0 0 1 -3.31206,-4.1285 l -7.216266,-0.8973 z m 18.282306,2.2746 a 5.9115651,5.9115651 0 0 1 -4.407283,3.2246 l -0.8709,7.1652 a 13.005443,13.005443 0 0 0 12.505995,-9.4909 l -7.227812,-0.8989 z"
       id="path4326-5"
       inkscape:connector-curvature="0" />
  </g>
</svg>
