<?xml version="1.0" encoding="UTF-8" standalone="no"?>
<!-- Created with Inkscape (http://www.inkscape.org/) -->

<svg
   xmlns:dc="http://purl.org/dc/elements/1.1/"
   xmlns:cc="http://creativecommons.org/ns#"
   xmlns:rdf="http://www.w3.org/1999/02/22-rdf-syntax-ns#"
   xmlns:svg="http://www.w3.org/2000/svg"
   xmlns="http://www.w3.org/2000/svg"
   xmlns:xlink="http://www.w3.org/1999/xlink"
   xmlns:sodipodi="http://sodipodi.sourceforge.net/DTD/sodipodi-0.dtd"
   xmlns:inkscape="http://www.inkscape.org/namespaces/inkscape"
   width="48"
   height="48"
   id="svg2"
   version="1.1"
   inkscape:version="0.91+devel r"
   sodipodi:docname="5C12_World of Warcraft Launcher.0.svg">
  <defs
     id="defs4">
    <defs
       id="defs4922">
      <filter
         color-interpolation-filters="sRGB"
         id="Adobe_OpacityMaskFilter"
         filterUnits="userSpaceOnUse"
         x="3.7850001"
         y="4.6750002"
         width="5.8829999"
         height="73.013">
        <feColorMatrix
           type="matrix"
           values="1 0 0 0 0  0 1 0 0 0  0 0 1 0 0  0 0 0 1 0"
           id="feColorMatrix4925" />
      </filter>
    </defs>
    <mask
       maskUnits="userSpaceOnUse"
       x="3.785"
       y="4.675"
       width="5.883"
       height="73.013"
       id="SVGID_2_">
      <g
         style="filter:url(#Adobe_OpacityMaskFilter)"
         id="g4928">
        <linearGradient
           id="SVGID_3_"
           gradientUnits="userSpaceOnUse"
           x1="3.7852001"
           y1="41.181198"
           x2="9.6680002"
           y2="41.181198">
          <stop
             offset="0"
             style="stop-color:#FFFFFF"
             id="stop4931" />
          <stop
             offset="0.0029"
             style="stop-color:#FAFBFB"
             id="stop4933" />
          <stop
             offset="0.0756"
             style="stop-color:#BBBDBF"
             id="stop4935" />
          <stop
             offset="0.1438"
             style="stop-color:#898B8E"
             id="stop4937" />
          <stop
             offset="0.2053"
             style="stop-color:#646567"
             id="stop4939" />
          <stop
             offset="0.259"
             style="stop-color:#444446"
             id="stop4941" />
          <stop
             offset="0.3028"
             style="stop-color:#1D1C1D"
             id="stop4943" />
          <stop
             offset="0.3313"
             style="stop-color:#000000"
             id="stop4945" />
        </linearGradient>
        <rect
           style="fill:url(#SVGID_3_)"
           x="3.7850001"
           y="4.6750002"
           width="5.8829999"
           height="73.013"
           id="rect4947" />
      </g>
    </mask>
    <linearGradient
       inkscape:collect="always"
       id="linearGradient6075">
      <stop
         style="stop-color:#ec7928;stop-opacity:1"
         offset="0"
         id="stop6077" />
      <stop
         style="stop-color:#f29e34;stop-opacity:1"
         offset="1"
         id="stop6079" />
    </linearGradient>
    <linearGradient
       gradientTransform="translate(-1.4953613e-6,1.0944336e-4)"
       inkscape:collect="always"
       xlink:href="#linearGradient6075"
       id="linearGradient6081"
       x1="37.957897"
       y1="1049.3441"
       x2="37.957897"
       y2="1007.4396"
       gradientUnits="userSpaceOnUse" />
  </defs>
  <sodipodi:namedview
     id="base"
     pagecolor="#ffffff"
     bordercolor="#666666"
     borderopacity="1.0"
     inkscape:pageopacity="0.0"
     inkscape:pageshadow="2"
     inkscape:zoom="10.541667"
     inkscape:cx="24"
     inkscape:cy="24"
     inkscape:document-units="px"
     inkscape:current-layer="layer1"
     showgrid="false"
     inkscape:window-width="1366"
     inkscape:window-height="670"
     inkscape:window-x="-4"
     inkscape:window-y="29"
     inkscape:window-maximized="1" />
  <metadata
     id="metadata7">
    <rdf:RDF>
      <cc:Work
         rdf:about="">
        <dc:format>image/svg+xml</dc:format>
        <dc:type
           rdf:resource="http://purl.org/dc/dcmitype/StillImage" />
        <dc:title />
      </cc:Work>
    </rdf:RDF>
  </metadata>
  <g
     inkscape:label="Capa 1"
     inkscape:groupmode="layer"
     id="layer1"
     transform="translate(0,-1004.3622)">
    <rect
       style="fill:#000000;fill-opacity:0.01960784;stroke:none"
       id="rect5263"
       width="44.399963"
       height="44.399963"
       x="1.8000183"
       y="1006.1622"
       ry="6.2786646" />
    <rect
       ry="6.1938181"
       y="1006.4623"
       x="2.1000061"
       height="43.799973"
       width="43.799973"
       id="rect5261"
       style="fill:#000000;fill-opacity:0.03921569;stroke:none" />
    <rect
       style="fill:#000000;fill-opacity:0.07843137;stroke:none"
       id="rect5259"
       width="43.199982"
       height="43.199982"
       x="2.3999939"
       y="1006.7625"
       ry="6.1089716" />
    <rect
       ry="6.0241251"
       y="1007.0624"
       x="2.7000122"
       height="42.599991"
       width="42.599991"
       id="rect5257"
       style="fill:#000000;fill-opacity:0.15686275;stroke:none" />
    <rect
       style="fill:url(#linearGradient6081);fill-opacity:1;stroke:none"
       id="rect5237"
       width="42"
       height="42"
       x="3"
       y="1007.3622"
       ry="5.9392786" />
    <path
       inkscape:connector-curvature="0"
       style="fill:#000000;fill-opacity:0.11764706;stroke:none"
       d="m 2.9999975,1040.9247 0,2.5 c 0,3.2904 2.64714,5.9375 5.9375,5.9375 l 30.1250005,0 c 3.29036,0 5.9375,-2.6471 5.9375,-5.9375 l 0,-2.5 c 0,3.2904 -2.64714,5.9375 -5.9375,5.9375 l -30.1250005,0 c -3.29036,0 -5.9375,-2.6471 -5.9375,-5.9375 z"
       id="rect5265" />
    <path
       inkscape:connector-curvature="0"
       style="fill:#000000;fill-opacity:0.09803922;stroke:none"
       d="m 2.9999975,1042.9247 0,0.5 c 0,3.2904 2.64714,5.9375 5.9375,5.9375 l 30.1250005,0 c 3.29036,0 5.9375,-2.6471 5.9375,-5.9375 l 0,-0.5 c 0,3.2904 -2.64714,5.9375 -5.9375,5.9375 l -30.1250005,0 c -3.29036,0 -5.9375,-2.6471 -5.9375,-5.9375 z"
       id="path5252" />
    <path
       style="fill:#000000;fill-opacity:0.49803922;stroke:none"
       d="m 24,1015.3622 a 13,13 0 0 0 -13,13 13,13 0 0 0 13,13 13,13 0 0 0 13,-13 13,13 0 0 0 -13,-13 z m -11.7,1.3 0,4.7 a 13.65,13.65 0 0 1 4.697267,-4.7 l -4.697267,0 z m 11.7,0 a 11.7,11.7 0 0 1 8.701367,3.9 l -4.801367,0 c 0.890748,0.6735 0.76902,1.998 0.65,2.6 l -1.95,7.475 -2.6,-9.425 -2.6,9.425 -1.95,-7.475 c -0.11902,-0.602 -0.240748,-1.9265 0.65,-2.6 l -4.803908,0 A 11.7,11.7 0 0 1 24,1016.6622 Z m 7.000194,0 A 13.65,13.65 0 0 1 35.7,1021.3609 l 0,-4.6987 -4.699806,0 z m 2.092189,4.3442 a 11.7,11.7 0 0 1 2.607617,7.3558 11.7,11.7 0 0 1 -11.7,11.7 11.7,11.7 0 0 1 -11.7,-11.7 11.7,11.7 0 0 1 2.610158,-7.3533 c 0.356228,0.2834 0.558953,0.5513 0.639842,0.8533 l 3.281739,11.7 c 0.316251,1.1972 0.143458,2.2594 -1.331739,2.6 l 5.85,0 c -0.487934,-0.2815 -0.65,-0.7092 -0.65,-1.3 0.246864,-1.8584 0.577131,-3.2155 1.3,-4.875 0.722869,1.6595 1.053136,3.0166 1.3,4.875 0,0.5908 -0.162066,1.0185 -0.65,1.3 l 5.85,0 c -1.475197,-0.3406 -1.64799,-1.4028 -1.331739,-2.6 l 3.281739,-11.7 c 0.08113,-0.3027 0.284093,-0.5714 0.642383,-0.8558 z M 35.7,1035.3623 a 13.65,13.65 0 0 1 -4.698533,4.6999 l 4.698533,0 0,-4.6999 z m -23.4,0 0,4.6975 4.699805,0 A 13.65,13.65 0 0 1 12.3,1035.3623 Z"
       id="rect4163"
       inkscape:connector-curvature="0" />
  </g>
</svg>
