<?xml version="1.0" encoding="UTF-8" standalone="no"?>
<!-- Created with Inkscape (http://www.inkscape.org/) -->

<svg
   xmlns:dc="http://purl.org/dc/elements/1.1/"
   xmlns:cc="http://creativecommons.org/ns#"
   xmlns:rdf="http://www.w3.org/1999/02/22-rdf-syntax-ns#"
   xmlns:svg="http://www.w3.org/2000/svg"
   xmlns="http://www.w3.org/2000/svg"
   xmlns:xlink="http://www.w3.org/1999/xlink"
   xmlns:sodipodi="http://sodipodi.sourceforge.net/DTD/sodipodi-0.dtd"
   xmlns:inkscape="http://www.inkscape.org/namespaces/inkscape"
   width="48"
   height="48"
   id="svg5453"
   version="1.1"
   inkscape:version="0.91+devel r"
   sodipodi:docname="xonotic.svg">
  <defs
     id="defs5455">
    <linearGradient
       inkscape:collect="always"
       id="linearGradient6075">
      <stop
         style="stop-color:#ec7928;stop-opacity:1"
         offset="0"
         id="stop6077" />
      <stop
         style="stop-color:#f29e34;stop-opacity:1"
         offset="1"
         id="stop6079" />
    </linearGradient>
    <linearGradient
       gradientTransform="translate(384.57144,-504.56411)"
       inkscape:collect="always"
       xlink:href="#linearGradient6075"
       id="linearGradient6081"
       x1="37.957897"
       y1="1049.3441"
       x2="37.957897"
       y2="1007.4396"
       gradientUnits="userSpaceOnUse" />
  </defs>
  <sodipodi:namedview
     id="base"
     pagecolor="#ffffff"
     bordercolor="#666666"
     borderopacity="1.0"
     inkscape:pageopacity="0"
     inkscape:pageshadow="2"
     inkscape:zoom="5.9663713"
     inkscape:cx="-14.98026"
     inkscape:cy="37.340983"
     inkscape:document-units="px"
     inkscape:current-layer="layer1"
     showgrid="false"
     fit-margin-top="0"
     fit-margin-left="0"
     fit-margin-right="0"
     fit-margin-bottom="0"
     inkscape:window-width="1366"
     inkscape:window-height="670"
     inkscape:window-x="-4"
     inkscape:window-y="29"
     inkscape:window-maximized="1"
     showguides="true"
     inkscape:guide-bbox="true" />
  <metadata
     id="metadata5458">
    <rdf:RDF>
      <cc:Work
         rdf:about="">
        <dc:format>image/svg+xml</dc:format>
        <dc:type
           rdf:resource="http://purl.org/dc/dcmitype/StillImage" />
        <dc:title />
      </cc:Work>
    </rdf:RDF>
  </metadata>
  <g
     inkscape:label="Capa 1"
     inkscape:groupmode="layer"
     id="layer1"
     transform="translate(-384.57143,-499.798)">
    <rect
       style="fill:#000000;fill-opacity:0.01960784;stroke:none"
       id="rect5263"
       width="44.399963"
       height="44.399963"
       x="386.37146"
       y="501.59802"
       ry="6.2786646" />
    <rect
       ry="6.1938181"
       y="501.89813"
       x="386.67145"
       height="43.799973"
       width="43.799973"
       id="rect5261"
       style="fill:#000000;fill-opacity:0.03921569;stroke:none" />
    <rect
       style="fill:#000000;fill-opacity:0.07843137;stroke:none"
       id="rect5259"
       width="43.199982"
       height="43.199982"
       x="386.97144"
       y="502.19824"
       ry="6.1089716" />
    <rect
       ry="6.0241251"
       y="502.49823"
       x="387.27145"
       height="42.599991"
       width="42.599991"
       id="rect5257"
       style="fill:#000000;fill-opacity:0.15686275;stroke:none" />
    <rect
       style="fill:url(#linearGradient6081);fill-opacity:1;stroke:none"
       id="rect5237"
       width="42"
       height="42"
       x="387.57144"
       y="502.79803"
       ry="5.9392786" />
    <path
       inkscape:connector-curvature="0"
       style="fill:#000000;fill-opacity:0.11764706;stroke:none"
       d="m 387.57144,536.36054 0,2.5 c 0,3.2904 2.64714,5.9375 5.9375,5.9375 l 30.125,0 c 3.29036,0 5.9375,-2.6471 5.9375,-5.9375 l 0,-2.5 c 0,3.2904 -2.64714,5.9375 -5.9375,5.9375 l -30.125,0 c -3.29036,0 -5.9375,-2.6471 -5.9375,-5.9375 z"
       id="rect5265" />
    <path
       inkscape:connector-curvature="0"
       style="fill:#000000;fill-opacity:0.09803922;stroke:none"
       d="m 387.57144,538.36054 0,0.5 c 0,3.2904 2.64714,5.9375 5.9375,5.9375 l 30.125,0 c 3.29036,0 5.9375,-2.6471 5.9375,-5.9375 l 0,-0.5 c 0,3.2904 -2.64714,5.9375 -5.9375,5.9375 l -30.125,0 c -3.29036,0 -5.9375,-2.6471 -5.9375,-5.9375 z"
       id="path5252" />
    <path
       inkscape:connector-curvature="0"
       style="fill:#000000;fill-opacity:0.49803922;stroke:none;stroke-width:8;stroke-miterlimit:4;stroke-dasharray:none;stroke-opacity:1"
       d="m 402.73402,510.798 c -4.61929,2.19011 -7.81767,6.89595 -7.81767,12.34491 0,7.53761 6.11747,13.65509 13.65508,13.65509 7.5376,0 13.65508,-6.11748 13.65508,-13.65509 0,-5.44896 -3.19837,-10.1548 -7.81767,-12.34491 1.82251,1.02312 3.35031,2.51191 4.42223,4.30222 1.07198,1.79084 1.68856,3.8845 1.68856,6.12245 0,5.819 -4.16726,10.66988 -9.67791,11.73151 -0.36764,0.0708 -0.7745,0.92532 -1.17016,1.76189 -0.34619,0.732 -0.68352,1.45037 -0.97679,1.61854 -0.0419,0.024 -0.0834,0.0367 -0.12334,0.0367 -0.64008,0 -1.53503,-3.27545 -2.2703,-3.4171 -5.51064,-1.06164 -9.6779,-5.9125 -9.6779,-11.73151 0,-3.91593 1.88697,-7.39364 4.80061,-9.57289 0.20817,-0.15566 0.42176,-0.30462 0.64008,-0.44672 0.21833,-0.1421 0.44222,-0.27713 0.67009,-0.40505 z m 9.36787,4.63393 c -3.62728,0.58508 -8.26903,5.1148 -12.79164,8.75445 l 5.56071,-2.56699 -3.21374,3.4171 2.77701,-1.30016 c -0.91156,1.7968 -0.81396,4.9048 -3.81382,5.51737 1.562,1.54587 3.56932,2.64359 5.81408,3.07373 1.07013,0.20336 1.8169,3.19041 2.13695,3.19041 0.04,0 0.0869,-0.0463 0.14001,-0.12835 0.37197,-0.57452 1.06056,-2.88412 1.99693,-3.06206 0.29134,-0.0558 0.5789,-0.12218 0.86177,-0.20002 1.98012,-0.54489 3.74135,-1.61811 5.129,-3.05373 -7.93621,0.0992 -7.43475,-7.95283 -0.4234,-9.71458 -0.40557,-0.3779 -1.51892,-0.4195 -2.67201,-0.31838 -0.38435,0.0337 -0.77348,0.0835 -1.14181,0.14169 0.25675,-1.71696 2.6914,-2.53927 4.49058,-2.31697 -1.02823,-1.04313 -2.28014,-1.79677 -4.35723,-0.93012 l -0.49339,-0.50339 z m -0.9968,1.44685 0.54007,0.5334 c -0.70513,0.59716 -1.33166,0.63685 -1.92691,0.10335 l 1.38684,-0.63675 z"
       id="RingShadow" />
  </g>
</svg>
